<svg width="543" height="391" viewBox="0 0 543 391" fill="none" xmlns="http://www.w3.org/2000/svg">
<rect width="2" height="123" rx="1" transform="matrix(-1 0 0 1 231 131)" fill="white"/>
<path d="M48.512 35.52C52.0107 35.52 54.9333 36.224 57.28 37.632C59.6267 39.04 61.376 40.7893 62.528 42.88C63.7227 44.9707 64.32 47.2533 64.32 49.728C64.32 52.2027 63.7227 54.4853 62.528 56.576C61.376 58.6667 59.6267 60.416 57.28 61.824C54.9333 63.232 52.0107 63.936 48.512 63.936H4.48V55.04H48.512C50.3467 55.04 51.712 54.4853 52.608 53.376C53.504 52.2667 53.9307 51.0507 53.888 49.728C53.888 48.3627 53.44 47.1253 52.544 46.016C51.648 44.9067 50.304 44.352 48.512 44.352H16.832C13.6747 44.352 11.0293 43.7547 8.896 42.56C6.80533 41.3227 5.22667 39.7867 4.16 37.952C3.136 36.0747 2.624 34.0693 2.624 31.936C2.624 29.8027 3.15733 27.8187 4.224 25.984C5.29067 24.1067 6.86933 22.5707 8.96 21.376C11.0507 20.1387 13.6747 19.52 16.832 19.52H59.776V28.352H16.832C15.5947 28.352 14.656 28.736 14.016 29.504C13.376 30.2293 13.0347 31.04 12.992 31.936C12.992 32.832 13.312 33.664 13.952 34.432C14.592 35.1573 15.552 35.52 16.832 35.52H48.512ZM114.491 19.328C117.648 19.328 120.614 19.904 123.387 21.056C126.16 22.1653 128.571 23.7227 130.619 25.728C132.667 27.6907 134.288 30.0373 135.483 32.768C136.678 35.456 137.275 38.3787 137.275 41.536C137.275 44.6507 136.678 47.5733 135.483 50.304C134.288 52.992 132.667 55.3387 130.619 57.344C128.571 59.3493 126.16 60.928 123.387 62.08C120.614 63.1893 117.648 63.744 114.491 63.744H92.219C89.0617 63.744 86.0963 63.1893 83.323 62.08C80.5497 60.928 78.139 59.3493 76.091 57.344C74.043 55.3387 72.4217 52.992 71.227 50.304C70.0323 47.5733 69.435 44.6507 69.435 41.536C69.435 38.3787 70.0323 35.456 71.227 32.768C72.4217 30.0373 74.043 27.6907 76.091 25.728C78.139 23.7227 80.5497 22.1653 83.323 21.056C86.0963 19.904 89.0617 19.328 92.219 19.328H114.491ZM114.491 54.848C116.198 54.848 117.798 54.5067 119.291 53.824C120.784 53.1413 122.086 52.224 123.195 51.072C124.304 49.8773 125.179 48.4693 125.819 46.848C126.459 45.2267 126.779 43.456 126.779 41.536C126.779 39.616 126.459 37.8453 125.819 36.224C125.179 34.56 124.304 33.152 123.195 32C122.086 30.8053 120.784 29.8667 119.291 29.184C117.798 28.5013 116.198 28.16 114.491 28.16H92.219C90.5123 28.16 88.9123 28.5013 87.419 29.184C85.9257 29.8667 84.6243 30.8053 83.515 32C82.4057 33.152 81.531 34.56 80.891 36.224C80.251 37.8453 79.931 39.616 79.931 41.536C79.931 43.456 80.251 45.2267 80.891 46.848C81.531 48.4693 82.4057 49.8773 83.515 51.072C84.6243 52.224 85.9257 53.1413 87.419 53.824C88.9123 54.5067 90.5123 54.848 92.219 54.848H114.491ZM157.669 64C155.877 64 154.085 63.68 152.293 63.04C150.501 62.4 148.858 61.4613 147.365 60.224C145.914 58.944 144.719 57.344 143.781 55.424C142.842 53.504 142.373 51.264 142.373 48.704V19.584H152.357V48.576C152.357 49.4293 152.506 50.2613 152.805 51.072C153.103 51.84 153.487 52.5227 153.957 53.12C154.469 53.7173 155.045 54.208 155.685 54.592C156.325 54.9333 156.986 55.104 157.669 55.104H184.869V64H157.669ZM196.169 41.792C196.169 43.712 196.51 45.4827 197.193 47.104C197.918 48.7253 198.857 50.1333 200.009 51.328C201.204 52.5227 202.569 53.4613 204.105 54.144C205.641 54.784 207.262 55.104 208.969 55.104H226.121C227.828 55.104 229.449 54.784 230.985 54.144C232.521 53.4613 233.865 52.5227 235.017 51.328C236.212 50.1333 237.15 48.7253 237.833 47.104C238.558 45.4827 238.921 43.712 238.921 41.792V19.648H248.841V41.792C248.841 44.9067 248.244 47.8293 247.049 50.56C245.854 53.248 244.233 55.5947 242.185 57.6C240.137 59.6053 237.726 61.184 234.953 62.336C232.222 63.4453 229.278 64 226.121 64H208.969C205.854 64 202.91 63.4453 200.137 62.336C197.364 61.184 194.953 59.6053 192.905 57.6C190.857 55.5947 189.236 53.248 188.041 50.56C186.846 47.8293 186.249 44.9067 186.249 41.792L186.185 19.648H196.105L196.169 41.792ZM315.951 19.52V28.352H289.903V64H279.983V28.352H253.935V19.52H315.951ZM347.172 19.584V28.48H339.108V55.104H347.172V64H321.06V55.104H329.188V28.48H321.06V19.584H347.172ZM397.366 19.328C400.523 19.328 403.489 19.904 406.262 21.056C409.035 22.1653 411.446 23.7227 413.494 25.728C415.542 27.6907 417.163 30.0373 418.358 32.768C419.553 35.456 420.15 38.3787 420.15 41.536C420.15 44.6507 419.553 47.5733 418.358 50.304C417.163 52.992 415.542 55.3387 413.494 57.344C411.446 59.3493 409.035 60.928 406.262 62.08C403.489 63.1893 400.523 63.744 397.366 63.744H375.094C371.937 63.744 368.971 63.1893 366.198 62.08C363.425 60.928 361.014 59.3493 358.966 57.344C356.918 55.3387 355.297 52.992 354.102 50.304C352.907 47.5733 352.31 44.6507 352.31 41.536C352.31 38.3787 352.907 35.456 354.102 32.768C355.297 30.0373 356.918 27.6907 358.966 25.728C361.014 23.7227 363.425 22.1653 366.198 21.056C368.971 19.904 371.937 19.328 375.094 19.328H397.366ZM397.366 54.848C399.073 54.848 400.673 54.5067 402.166 53.824C403.659 53.1413 404.961 52.224 406.07 51.072C407.179 49.8773 408.054 48.4693 408.694 46.848C409.334 45.2267 409.654 43.456 409.654 41.536C409.654 39.616 409.334 37.8453 408.694 36.224C408.054 34.56 407.179 33.152 406.07 32C404.961 30.8053 403.659 29.8667 402.166 29.184C400.673 28.5013 399.073 28.16 397.366 28.16H375.094C373.387 28.16 371.787 28.5013 370.294 29.184C368.801 29.8667 367.499 30.8053 366.39 32C365.281 33.152 364.406 34.56 363.766 36.224C363.126 37.8453 362.806 39.616 362.806 41.536C362.806 43.456 363.126 45.2267 363.766 46.848C364.406 48.4693 365.281 49.8773 366.39 51.072C367.499 52.224 368.801 53.1413 370.294 53.824C371.787 54.5067 373.387 54.848 375.094 54.848H397.366ZM473.312 19.52H483.232V64H473.312V53.824L444.768 30.72C442.805 29.1413 440.586 28.352 438.112 28.352H435.168V64H425.248V19.52H441.312C443.786 19.52 446.005 20.3093 447.968 21.888L473.312 42.432V19.52Z" fill="#248232"/>
<path d="M26.868 81.016C28.644 81.016 30.3 81.34 31.836 81.988C33.396 82.612 34.752 83.488 35.904 84.616C37.056 85.72 37.968 87.04 38.64 88.576C39.312 90.088 39.648 91.732 39.648 93.508C39.648 95.26 39.312 96.904 38.64 98.44C37.968 99.976 37.056 101.308 35.904 102.436C34.752 103.54 33.396 104.416 31.836 105.064C30.3 105.712 28.644 106.036 26.868 106.036H4.44V81.016H26.868ZM26.868 100.996C27.828 100.996 28.716 100.804 29.532 100.42C30.372 100.036 31.104 99.52 31.728 98.872C32.352 98.2 32.844 97.408 33.204 96.496C33.564 95.584 33.744 94.588 33.744 93.508C33.744 92.428 33.564 91.432 33.204 90.52C32.844 89.584 32.352 88.792 31.728 88.144C31.104 87.472 30.372 86.944 29.532 86.56C28.716 86.176 27.828 85.984 26.868 85.984H10.02V100.996H26.868ZM65.6262 81.016C67.6662 81.016 69.3942 81.4 70.8102 82.168C72.2502 82.936 73.3782 83.92 74.1942 85.12C75.0342 86.296 75.5502 87.616 75.7422 89.08C75.9582 90.52 75.8622 91.924 75.4542 93.292C75.0462 94.66 74.3262 95.908 73.2942 97.036C72.2862 98.14 70.9662 98.944 69.3342 99.448L76.8222 106H68.3262L62.7102 101.068C61.8942 100.324 60.9222 99.952 59.7942 99.952H48.1302V106.036H42.5142V81.016H65.6262ZM65.6262 94.984C66.6102 94.984 67.4262 94.768 68.0742 94.336C68.7462 93.88 69.2382 93.316 69.5502 92.644C69.8862 91.972 70.0422 91.252 70.0182 90.484C70.0182 89.716 69.8502 88.996 69.5142 88.324C69.2022 87.652 68.7102 87.1 68.0382 86.668C67.3902 86.212 66.5862 85.984 65.6262 85.984H48.1302V94.984H65.6262ZM94.3975 81.052V86.056H89.8615V101.032H94.3975V106.036H79.7095V101.032H84.2815V86.056H79.7095V81.052H94.3975ZM127.024 81.052H132.496L122.92 102.508C122.44 103.588 121.708 104.452 120.724 105.1C119.764 105.724 118.684 106.036 117.484 106.036H112.3C111.1 106.036 110.008 105.724 109.024 105.1C108.064 104.452 107.344 103.588 106.864 102.508L97.2877 81.052H102.76L111.256 100.168C111.376 100.432 111.556 100.648 111.796 100.816C112.06 100.96 112.336 101.032 112.624 101.032H117.16C117.448 101.032 117.712 100.96 117.952 100.816C118.216 100.648 118.408 100.432 118.528 100.168L127.024 81.052ZM165.916 81.016V85.984H139.852V91.024H156.988V96.028H139.852V100.996H165.916V106.036H134.272V81.016H165.916ZM195.471 81.016H201.051V106.036H195.471V94.552L174.375 86.344V106.036H168.795V81.016H174.375L195.471 89.188V81.016Z" fill="white"/>
<path d="M17.488 278.66V280.316H10C9.816 280.316 9.676 280.388 9.58 280.532C9.484 280.668 9.432 280.82 9.424 280.988C9.424 281.156 9.472 281.312 9.568 281.456C9.664 281.592 9.808 281.66 10 281.66H16.3V283.316H10.096C9.912 283.316 9.772 283.388 9.676 283.532C9.58 283.668 9.532 283.82 9.532 283.988V287H7.588V283.988C7.588 283.732 7.628 283.48 7.708 283.232C7.788 282.984 7.908 282.756 8.068 282.548C7.868 282.324 7.72 282.076 7.624 281.804C7.528 281.524 7.48 281.24 7.48 280.952C7.488 280.664 7.544 280.384 7.648 280.112C7.76 279.832 7.92 279.588 8.128 279.38C8.336 279.164 8.596 278.992 8.908 278.864C9.22 278.728 9.584 278.66 10 278.66H17.488ZM22.7088 287.012C22.1248 287.012 21.5728 286.908 21.0527 286.7C20.5328 286.484 20.0808 286.188 19.6968 285.812C19.3128 285.436 19.0088 284.996 18.7848 284.492C18.5608 283.98 18.4488 283.432 18.4488 282.848V278.684H20.3088V282.848C20.3088 283.208 20.3728 283.54 20.5008 283.844C20.6368 284.148 20.8128 284.412 21.0288 284.636C21.2528 284.86 21.5088 285.036 21.7968 285.164C22.0848 285.284 22.3888 285.344 22.7088 285.344H25.9248C26.2448 285.344 26.5488 285.284 26.8368 285.164C27.1248 285.036 27.3768 284.86 27.5928 284.636C27.8168 284.412 27.9928 284.148 28.1208 283.844C28.2568 283.54 28.3248 283.208 28.3248 282.848V278.684H30.1848V282.848C30.1848 283.432 30.0728 283.98 29.8488 284.492C29.6248 284.996 29.3208 285.436 28.9368 285.812C28.5528 286.188 28.1008 286.484 27.5808 286.7C27.0688 286.908 26.5168 287.012 25.9248 287.012H22.7088ZM33.0122 285.344H40.7042V287.012H31.1402V278.684H33.0122V285.344ZM43.5356 285.344H51.2276V287.012H41.6636V278.684H43.5356V285.344ZM52.187 282.224H56.171V283.892H52.187V282.224ZM65.7483 281.684C66.4043 281.684 66.9483 281.816 67.3803 282.08C67.8203 282.344 68.1483 282.672 68.3643 283.064C68.5883 283.456 68.7003 283.884 68.7003 284.348C68.7003 284.812 68.5923 285.24 68.3763 285.632C68.1603 286.024 67.8323 286.352 67.3923 286.616C66.9523 286.88 66.4043 287.012 65.7483 287.012H57.4923V285.344H65.7483C65.9803 285.344 66.1683 285.296 66.3123 285.2C66.4643 285.096 66.5763 284.972 66.6483 284.828C66.7283 284.684 66.7643 284.524 66.7563 284.348C66.7563 284.172 66.7163 284.012 66.6363 283.868C66.5643 283.724 66.4523 283.604 66.3003 283.508C66.1563 283.404 65.9723 283.352 65.7483 283.352H59.7963C59.2043 283.352 58.7083 283.236 58.3083 283.004C57.9163 282.772 57.6203 282.484 57.4203 282.14C57.2283 281.796 57.1323 281.424 57.1323 281.024C57.1323 280.616 57.2323 280.24 57.4323 279.896C57.6323 279.552 57.9283 279.264 58.3203 279.032C58.7123 278.8 59.2043 278.684 59.7963 278.684H67.8603V280.352H59.7963C59.5643 280.352 59.3883 280.424 59.2683 280.568C59.1483 280.704 59.0843 280.856 59.0763 281.024C59.0763 281.184 59.1363 281.336 59.2563 281.48C59.3763 281.616 59.5563 281.684 59.7963 281.684H65.7483ZM78.5206 278.672V280.328H74.6686V287.012H72.8086V280.328H68.9566V278.672H78.5206ZM84.3487 278.684C84.7487 278.684 85.1127 278.792 85.4407 279.008C85.7687 279.216 86.0127 279.5 86.1727 279.86L89.3527 287.012H87.5287L86.7967 285.344H80.1847L79.4407 287.012H77.6167L80.8087 279.86C80.9687 279.5 81.2127 279.216 81.5407 279.008C81.8687 278.792 82.2287 278.684 82.6207 278.684H84.3487ZM86.0527 283.688L84.6967 280.64C84.6567 280.552 84.5927 280.484 84.5047 280.436C84.4247 280.38 84.3367 280.352 84.2407 280.352H82.7287C82.6327 280.352 82.5447 280.38 82.4647 280.436C82.3847 280.484 82.3247 280.552 82.2847 280.64L80.9287 283.688H86.0527ZM100.907 285.344V287.012H93.4314C92.8474 287.012 92.2954 286.908 91.7754 286.7C91.2554 286.484 90.8034 286.188 90.4194 285.812C90.0354 285.436 89.7314 284.996 89.5074 284.492C89.2834 283.98 89.1714 283.432 89.1714 282.848C89.1714 282.256 89.2834 281.708 89.5074 281.204C89.7314 280.7 90.0354 280.26 90.4194 279.884C90.8034 279.508 91.2554 279.216 91.7754 279.008C92.2954 278.792 92.8474 278.684 93.4314 278.684H100.907V280.352H93.4314C93.1114 280.352 92.8114 280.416 92.5314 280.544C92.2514 280.664 92.0074 280.836 91.7994 281.06C91.5914 281.284 91.4274 281.548 91.3074 281.852C91.1874 282.156 91.1274 282.488 91.1274 282.848C91.1274 283.208 91.1874 283.54 91.3074 283.844C91.4274 284.148 91.5914 284.412 91.7994 284.636C92.0074 284.86 92.2514 285.036 92.5314 285.164C92.8114 285.284 93.1114 285.344 93.4314 285.344H100.907ZM111.643 287.012H108.811L105.571 284.168C105.387 284.008 105.183 283.888 104.959 283.808C104.735 283.72 104.499 283.676 104.251 283.676H103.723V287.012H101.863V278.684H103.723V282.02H104.335C104.575 282.02 104.807 281.98 105.031 281.9C105.255 281.812 105.459 281.688 105.643 281.528L108.895 278.684H111.415L106.771 282.752L111.643 287.012ZM124.33 281.66C124.986 281.66 125.534 281.792 125.974 282.056C126.414 282.32 126.742 282.648 126.958 283.04C127.182 283.432 127.294 283.86 127.294 284.324C127.294 284.788 127.182 285.216 126.958 285.608C126.742 286 126.414 286.328 125.974 286.592C125.534 286.856 124.986 286.988 124.33 286.988H116.074V285.32H124.33C124.674 285.32 124.93 285.216 125.098 285.008C125.266 284.8 125.346 284.572 125.338 284.324C125.338 284.068 125.254 283.836 125.086 283.628C124.918 283.42 124.666 283.316 124.33 283.316H118.39C117.798 283.316 117.302 283.204 116.902 282.98C116.51 282.748 116.214 282.46 116.014 282.116C115.822 281.764 115.726 281.388 115.726 280.988C115.726 280.588 115.826 280.216 116.026 279.872C116.226 279.52 116.522 279.232 116.914 279.008C117.306 278.776 117.798 278.66 118.39 278.66H126.442V280.316H118.39C118.158 280.316 117.982 280.388 117.862 280.532C117.742 280.668 117.678 280.82 117.67 280.988C117.67 281.156 117.73 281.312 117.85 281.456C117.97 281.592 118.15 281.66 118.39 281.66H124.33ZM135.249 278.684C135.841 278.684 136.393 278.792 136.905 279.008C137.425 279.216 137.877 279.508 138.261 279.884C138.645 280.26 138.949 280.7 139.173 281.204C139.397 281.708 139.509 282.256 139.509 282.848C139.509 283.432 139.397 283.98 139.173 284.492C138.949 284.996 138.645 285.436 138.261 285.812C137.877 286.188 137.425 286.484 136.905 286.7C136.393 286.908 135.841 287.012 135.249 287.012H132.033C131.449 287.012 130.897 286.908 130.377 286.7C129.857 286.484 129.405 286.188 129.021 285.812C128.637 285.436 128.333 284.996 128.109 284.492C127.885 283.98 127.773 283.432 127.773 282.848C127.773 282.256 127.885 281.708 128.109 281.204C128.333 280.7 128.637 280.26 129.021 279.884C129.405 279.508 129.857 279.216 130.377 279.008C130.897 278.792 131.449 278.684 132.033 278.684H135.249ZM135.249 285.344C135.569 285.344 135.869 285.284 136.149 285.164C136.429 285.036 136.673 284.86 136.881 284.636C137.089 284.412 137.253 284.148 137.373 283.844C137.493 283.54 137.553 283.208 137.553 282.848C137.553 282.488 137.493 282.156 137.373 281.852C137.253 281.548 137.089 281.284 136.881 281.06C136.673 280.836 136.429 280.664 136.149 280.544C135.869 280.416 135.569 280.352 135.249 280.352H132.033C131.713 280.352 131.413 280.416 131.133 280.544C130.853 280.664 130.609 280.836 130.401 281.06C130.193 281.284 130.029 281.548 129.909 281.852C129.789 282.156 129.729 282.488 129.729 282.848C129.729 283.208 129.789 283.54 129.909 283.844C130.029 284.148 130.193 284.412 130.401 284.636C130.609 284.86 130.853 285.036 131.133 285.164C131.413 285.284 131.713 285.344 132.033 285.344H135.249ZM150.82 278.672V280.328H142.336V282.212H147.844V283.868H142.336V287.012H140.464V278.672H150.82ZM161.349 278.672V280.328H157.497V287.012H155.637V280.328H151.785V278.672H161.349ZM175.676 278.684H177.5L174.308 285.836C174.148 286.196 173.904 286.484 173.576 286.7C173.248 286.908 172.888 287.012 172.496 287.012H171.548C171.212 287.012 170.9 286.936 170.612 286.784C170.324 286.624 170.088 286.404 169.904 286.124C169.72 286.404 169.48 286.624 169.184 286.784C168.896 286.936 168.584 287.012 168.248 287.012H167.312C166.912 287.012 166.548 286.908 166.22 286.7C165.9 286.484 165.66 286.196 165.5 285.836L162.308 278.684H164.132L166.964 285.056C167.004 285.144 167.064 285.216 167.144 285.272C167.232 285.32 167.324 285.344 167.42 285.344H168.14C168.236 285.344 168.324 285.32 168.404 285.272C168.484 285.216 168.544 285.144 168.584 285.056L168.992 284.156L166.544 278.684H168.368L169.904 282.116L171.428 278.684H173.252L170.816 284.156L171.212 285.056C171.3 285.248 171.452 285.344 171.668 285.344H172.376C172.592 285.344 172.744 285.248 172.832 285.056L175.676 278.684ZM182.599 278.684C182.999 278.684 183.363 278.792 183.691 279.008C184.019 279.216 184.263 279.5 184.423 279.86L187.603 287.012H185.779L185.047 285.344H178.435L177.691 287.012H175.867L179.059 279.86C179.219 279.5 179.463 279.216 179.791 279.008C180.119 278.792 180.479 278.684 180.871 278.684H182.599ZM184.303 283.688L182.947 280.64C182.907 280.552 182.843 280.484 182.755 280.436C182.675 280.38 182.587 280.352 182.491 280.352H180.979C180.883 280.352 180.795 280.38 180.715 280.436C180.635 280.484 180.575 280.552 180.535 280.64L179.179 283.688H184.303ZM195.899 278.672C196.579 278.672 197.155 278.8 197.627 279.056C198.107 279.312 198.483 279.64 198.755 280.04C199.035 280.432 199.207 280.872 199.271 281.36C199.343 281.84 199.311 282.308 199.175 282.764C199.039 283.22 198.799 283.636 198.455 284.012C198.119 284.38 197.679 284.648 197.135 284.816L199.631 287H196.799L194.927 285.356C194.655 285.108 194.331 284.984 193.955 284.984H190.067V287.012H188.195V278.672H195.899ZM195.899 283.328C196.227 283.328 196.499 283.256 196.715 283.112C196.939 282.96 197.103 282.772 197.207 282.548C197.319 282.324 197.371 282.084 197.363 281.828C197.363 281.572 197.307 281.332 197.195 281.108C197.091 280.884 196.927 280.7 196.703 280.556C196.487 280.404 196.219 280.328 195.899 280.328H190.067V283.328H195.899ZM211.141 278.672V280.328H202.453V282.008H208.165V283.676H202.453V285.332H211.141V287.012H200.593V278.672H211.141ZM226.954 285.332V287H219.49C218.898 287 218.342 286.896 217.822 286.688C217.302 286.472 216.85 286.176 216.466 285.8C216.082 285.424 215.778 284.984 215.554 284.48C215.33 283.968 215.218 283.42 215.218 282.836C215.218 282.244 215.33 281.696 215.554 281.192C215.778 280.688 216.082 280.248 216.466 279.872C216.85 279.496 217.302 279.204 217.822 278.996C218.342 278.78 218.898 278.672 219.49 278.672H226.954V280.34H219.49C219.218 280.34 218.958 280.388 218.71 280.484C218.462 280.572 218.238 280.7 218.038 280.868C217.846 281.036 217.678 281.24 217.534 281.48C217.398 281.712 217.302 281.968 217.246 282.248H223.69V283.916H217.402C217.586 284.348 217.862 284.692 218.23 284.948C218.606 285.204 219.026 285.332 219.49 285.332H226.954ZM236.802 278.672H238.662V287.012H236.802V283.184L229.77 280.448V287.012H227.91V278.672H229.77L236.802 281.396V278.672ZM250.093 278.684V280.352H243.877C243.557 280.352 243.257 280.416 242.977 280.544C242.697 280.664 242.453 280.836 242.245 281.06C242.037 281.284 241.873 281.548 241.753 281.852C241.633 282.156 241.573 282.488 241.573 282.848C241.573 283.208 241.633 283.54 241.753 283.844C241.873 284.148 242.037 284.412 242.245 284.636C242.453 284.86 242.697 285.036 242.977 285.164C243.257 285.284 243.557 285.344 243.877 285.344H248.233V284.012H246.625V282.344H250.093V287.012H243.877C243.293 287.012 242.741 286.908 242.221 286.7C241.701 286.484 241.249 286.188 240.865 285.812C240.481 285.436 240.177 284.996 239.953 284.492C239.729 283.98 239.617 283.432 239.617 282.848C239.617 282.256 239.729 281.708 239.953 281.204C240.177 280.7 240.481 280.26 240.865 279.884C241.249 279.508 241.701 279.216 242.221 279.008C242.741 278.792 243.293 278.684 243.877 278.684H250.093ZM255.95 278.684V280.352H254.438V285.344H255.95V287.012H251.054V285.344H252.578V280.352H251.054V278.684H255.95ZM265.806 278.672H267.666V287.012H265.806V283.184L258.774 280.448V287.012H256.914V278.672H258.774L265.806 281.396V278.672ZM279.169 278.672V280.328H270.481V282.008H276.193V283.676H270.481V285.332H279.169V287.012H268.621V278.672H279.169ZM290.676 278.672V280.328H281.988V282.008H287.7V283.676H281.988V285.332H290.676V287.012H280.128V278.672H290.676ZM299.34 278.672C300.02 278.672 300.596 278.8 301.068 279.056C301.548 279.312 301.924 279.64 302.196 280.04C302.476 280.432 302.648 280.872 302.712 281.36C302.784 281.84 302.752 282.308 302.616 282.764C302.48 283.22 302.24 283.636 301.896 284.012C301.56 284.38 301.12 284.648 300.576 284.816L303.072 287H300.24L298.368 285.356C298.096 285.108 297.772 284.984 297.396 284.984H293.508V287.012H291.636V278.672H299.34ZM299.34 283.328C299.668 283.328 299.94 283.256 300.156 283.112C300.38 282.96 300.544 282.772 300.648 282.548C300.76 282.324 300.812 282.084 300.804 281.828C300.804 281.572 300.748 281.332 300.636 281.108C300.532 280.884 300.368 280.7 300.144 280.556C299.928 280.404 299.66 280.328 299.34 280.328H293.508V283.328H299.34ZM320.52 278.684H322.344L319.152 285.836C318.992 286.196 318.748 286.484 318.42 286.7C318.092 286.908 317.732 287.012 317.34 287.012H316.392C316.056 287.012 315.744 286.936 315.456 286.784C315.168 286.624 314.932 286.404 314.748 286.124C314.564 286.404 314.324 286.624 314.028 286.784C313.74 286.936 313.428 287.012 313.092 287.012H312.156C311.756 287.012 311.392 286.908 311.064 286.7C310.744 286.484 310.504 286.196 310.344 285.836L307.152 278.684H308.976L311.808 285.056C311.848 285.144 311.908 285.216 311.988 285.272C312.076 285.32 312.168 285.344 312.264 285.344H312.984C313.08 285.344 313.168 285.32 313.248 285.272C313.328 285.216 313.388 285.144 313.428 285.056L313.836 284.156L311.388 278.684H313.212L314.748 282.116L316.272 278.684H318.096L315.66 284.156L316.056 285.056C316.144 285.248 316.296 285.344 316.512 285.344H317.22C317.436 285.344 317.588 285.248 317.676 285.056L320.52 278.684ZM328.196 278.684V280.352H326.684V285.344H328.196V287.012H323.3V285.344H324.824V280.352H323.3V278.684H328.196ZM338.724 278.672V280.328H334.872V287.012H333.012V280.328H329.16V278.672H338.724ZM348.376 278.672H350.236V287.012H348.376V283.676H341.344V287.012H339.484V278.672H341.344V282.008H348.376V278.672ZM362.756 278.684H364.616V287.024H362.756V283.664H358.58C357.996 283.664 357.444 283.56 356.924 283.352C356.404 283.136 355.952 282.844 355.568 282.476C355.184 282.1 354.876 281.66 354.644 281.156C354.42 280.644 354.308 280.096 354.308 279.512V278.66H356.18V279.512C356.18 279.872 356.244 280.204 356.372 280.508C356.508 280.812 356.684 281.076 356.9 281.3C357.124 281.516 357.38 281.688 357.668 281.816C357.956 281.944 358.26 282.008 358.58 282.008H362.756V278.684ZM369.686 282.224H372.134V283.892H369.686V286.328H368.03V283.892H365.582V282.224H368.03V279.788H369.686V282.224ZM386.734 278.684H388.558L386.782 282.668C386.622 283.028 386.378 283.316 386.05 283.532C385.722 283.74 385.358 283.844 384.958 283.844H383.314V287.012H381.454V283.844H379.798C379.406 283.844 379.046 283.74 378.718 283.532C378.39 283.316 378.146 283.028 377.986 282.668L376.21 278.684H378.034L379.462 281.888C379.542 282.088 379.694 282.188 379.918 282.188H384.85C384.946 282.188 385.034 282.16 385.114 282.104C385.202 282.048 385.266 281.976 385.306 281.888L386.734 278.684ZM400.071 278.672V280.328H391.383V282.008H397.095V283.676H391.383V285.332H400.071V287.012H389.523V278.672H400.071ZM407.763 278.684C408.163 278.684 408.527 278.792 408.855 279.008C409.183 279.216 409.427 279.5 409.587 279.86L412.767 287.012H410.943L410.211 285.344H403.599L402.855 287.012H401.031L404.223 279.86C404.383 279.5 404.627 279.216 404.955 279.008C405.283 278.792 405.643 278.684 406.035 278.684H407.763ZM409.467 283.688L408.111 280.64C408.071 280.552 408.007 280.484 407.919 280.436C407.839 280.38 407.751 280.352 407.655 280.352H406.143C406.047 280.352 405.959 280.38 405.879 280.436C405.799 280.484 405.739 280.552 405.699 280.64L404.343 283.688H409.467ZM421.063 278.672C421.743 278.672 422.319 278.8 422.791 279.056C423.271 279.312 423.647 279.64 423.919 280.04C424.199 280.432 424.371 280.872 424.435 281.36C424.507 281.84 424.475 282.308 424.339 282.764C424.203 283.22 423.963 283.636 423.619 284.012C423.283 284.38 422.843 284.648 422.299 284.816L424.795 287H421.963L420.091 285.356C419.819 285.108 419.495 284.984 419.119 284.984H415.231V287.012H413.359V278.672H421.063ZM421.063 283.328C421.391 283.328 421.663 283.256 421.879 283.112C422.103 282.96 422.267 282.772 422.371 282.548C422.483 282.324 422.535 282.084 422.527 281.828C422.527 281.572 422.471 281.332 422.359 281.108C422.255 280.884 422.091 280.7 421.867 280.556C421.651 280.404 421.383 280.328 421.063 280.328H415.231V283.328H421.063ZM434.373 281.684C435.029 281.684 435.573 281.816 436.005 282.08C436.445 282.344 436.773 282.672 436.989 283.064C437.213 283.456 437.325 283.884 437.325 284.348C437.325 284.812 437.217 285.24 437.001 285.632C436.785 286.024 436.457 286.352 436.017 286.616C435.577 286.88 435.029 287.012 434.373 287.012H426.117V285.344H434.373C434.605 285.344 434.793 285.296 434.937 285.2C435.089 285.096 435.201 284.972 435.273 284.828C435.353 284.684 435.389 284.524 435.381 284.348C435.381 284.172 435.341 284.012 435.261 283.868C435.189 283.724 435.077 283.604 434.925 283.508C434.781 283.404 434.597 283.352 434.373 283.352H428.421C427.829 283.352 427.333 283.236 426.933 283.004C426.541 282.772 426.245 282.484 426.045 282.14C425.853 281.796 425.757 281.424 425.757 281.024C425.757 280.616 425.857 280.24 426.057 279.896C426.257 279.552 426.553 279.264 426.945 279.032C427.337 278.8 427.829 278.684 428.421 278.684H436.485V280.352H428.421C428.189 280.352 428.013 280.424 427.893 280.568C427.773 280.704 427.709 280.856 427.701 281.024C427.701 281.184 427.761 281.336 427.881 281.48C428.001 281.616 428.181 281.684 428.421 281.684H434.373ZM17.992 306.092C18.336 306.3 18.608 306.568 18.808 306.896C19.008 307.224 19.136 307.572 19.192 307.94C19.248 308.3 19.228 308.664 19.132 309.032C19.044 309.4 18.88 309.732 18.64 310.028C18.408 310.316 18.096 310.552 17.704 310.736C17.32 310.92 16.864 311.012 16.336 311.012H7.48V302.684H15.748C16.3 302.684 16.76 302.796 17.128 303.02C17.504 303.244 17.784 303.528 17.968 303.872C18.152 304.208 18.248 304.576 18.256 304.976C18.264 305.376 18.176 305.748 17.992 306.092ZM15.748 305.672C15.94 305.672 16.08 305.604 16.168 305.468C16.264 305.324 16.312 305.168 16.312 305C16.312 304.832 16.264 304.68 16.168 304.544C16.072 304.4 15.932 304.328 15.748 304.328H9.34V305.672H15.748ZM16.336 309.332C16.656 309.332 16.892 309.228 17.044 309.02C17.204 308.812 17.28 308.584 17.272 308.336C17.272 308.08 17.192 307.848 17.032 307.64C16.88 307.432 16.648 307.328 16.336 307.328H9.34V309.332H16.336ZM24.4431 311.012C23.8591 311.012 23.3071 310.908 22.7871 310.7C22.2671 310.484 21.8151 310.188 21.4311 309.812C21.0471 309.436 20.7431 308.996 20.5191 308.492C20.2951 307.98 20.1831 307.432 20.1831 306.848V302.684H22.0431V306.848C22.0431 307.208 22.1071 307.54 22.2351 307.844C22.3711 308.148 22.5471 308.412 22.7631 308.636C22.9871 308.86 23.2431 309.036 23.5311 309.164C23.8191 309.284 24.1231 309.344 24.4431 309.344H27.6591C27.9791 309.344 28.2831 309.284 28.5711 309.164C28.8591 309.036 29.1111 308.86 29.3271 308.636C29.5511 308.412 29.7271 308.148 29.8551 307.844C29.9911 307.54 30.0591 307.208 30.0591 306.848V302.684H31.9191V306.848C31.9191 307.432 31.8071 307.98 31.5831 308.492C31.3591 308.996 31.0551 309.436 30.6711 309.812C30.2871 310.188 29.8351 310.484 29.3151 310.7C28.8031 310.908 28.2511 311.012 27.6591 311.012H24.4431ZM37.7705 302.684V304.352H36.2585V309.344H37.7705V311.012H32.8745V309.344H34.3985V304.352H32.8745V302.684H37.7705ZM40.6059 309.344H48.2979V311.012H38.7339V302.684H40.6059V309.344ZM56.7333 302.672C57.3253 302.672 57.8773 302.78 58.3893 302.996C58.9093 303.204 59.3613 303.496 59.7453 303.872C60.1293 304.24 60.4333 304.68 60.6573 305.192C60.8813 305.696 60.9933 306.244 60.9933 306.836C60.9933 307.42 60.8813 307.968 60.6573 308.48C60.4333 308.992 60.1293 309.436 59.7453 309.812C59.3613 310.18 58.9093 310.472 58.3893 310.688C57.8773 310.904 57.3253 311.012 56.7333 311.012H49.2573V302.672H56.7333ZM56.7333 309.332C57.0533 309.332 57.3493 309.268 57.6213 309.14C57.9013 309.012 58.1453 308.84 58.3533 308.624C58.5613 308.4 58.7253 308.136 58.8453 307.832C58.9653 307.528 59.0253 307.196 59.0253 306.836C59.0253 306.476 58.9653 306.144 58.8453 305.84C58.7253 305.528 58.5613 305.264 58.3533 305.048C58.1453 304.824 57.9013 304.648 57.6213 304.52C57.3493 304.392 57.0533 304.328 56.7333 304.328H51.1173V309.332H56.7333ZM66.8448 302.684V304.352H65.3328V309.344H66.8448V311.012H61.9488V309.344H63.4728V304.352H61.9488V302.684H66.8448ZM76.7001 302.672H78.5601V311.012H76.7001V307.184L69.6681 304.448V311.012H67.8081V302.672H69.6681L76.7001 305.396V302.672ZM89.9912 302.684V304.352H83.7752C83.4552 304.352 83.1552 304.416 82.8752 304.544C82.5952 304.664 82.3512 304.836 82.1432 305.06C81.9352 305.284 81.7712 305.548 81.6512 305.852C81.5312 306.156 81.4712 306.488 81.4712 306.848C81.4712 307.208 81.5312 307.54 81.6512 307.844C81.7712 308.148 81.9352 308.412 82.1432 308.636C82.3512 308.86 82.5952 309.036 82.8752 309.164C83.1552 309.284 83.4552 309.344 83.7752 309.344H88.1312V308.012H86.5232V306.344H89.9912V311.012H83.7752C83.1912 311.012 82.6392 310.908 82.1192 310.7C81.5992 310.484 81.1472 310.188 80.7632 309.812C80.3792 309.436 80.0752 308.996 79.8512 308.492C79.6272 307.98 79.5152 307.432 79.5152 306.848C79.5152 306.256 79.6272 305.708 79.8512 305.204C80.0752 304.7 80.3792 304.26 80.7632 303.884C81.1472 303.508 81.5992 303.216 82.1192 303.008C82.6392 302.792 83.1912 302.684 83.7752 302.684H89.9912ZM104.618 302.672V304.328H95.9298V306.008H101.642V307.676H95.9298V309.332H104.618V311.012H94.0698V302.672H104.618ZM114.47 302.672H116.33V311.012H114.47V307.184L107.438 304.448V311.012H105.578V302.672H107.438L114.47 305.396V302.672ZM126.849 302.672V304.328H122.997V311.012H121.137V304.328H117.285V302.672H126.849ZM138.157 302.672V304.328H129.469V306.008H135.181V307.676H129.469V309.332H138.157V311.012H127.609V302.672H138.157ZM146.821 302.672C147.501 302.672 148.077 302.8 148.549 303.056C149.029 303.312 149.405 303.64 149.677 304.04C149.957 304.432 150.129 304.872 150.193 305.36C150.265 305.84 150.233 306.308 150.097 306.764C149.961 307.22 149.721 307.636 149.377 308.012C149.041 308.38 148.601 308.648 148.057 308.816L150.553 311H147.721L145.849 309.356C145.577 309.108 145.253 308.984 144.877 308.984H140.989V311.012H139.117V302.672H146.821ZM146.821 307.328C147.149 307.328 147.421 307.256 147.637 307.112C147.861 306.96 148.025 306.772 148.129 306.548C148.241 306.324 148.293 306.084 148.285 305.828C148.285 305.572 148.229 305.332 148.117 305.108C148.013 304.884 147.849 304.7 147.625 304.556C147.409 304.404 147.141 304.328 146.821 304.328H140.989V307.328H146.821ZM159.555 302.672C160.315 302.672 160.947 302.828 161.451 303.14C161.955 303.452 162.331 303.844 162.579 304.316C162.835 304.78 162.963 305.284 162.963 305.828C162.963 306.372 162.835 306.88 162.579 307.352C162.331 307.816 161.955 308.204 161.451 308.516C160.947 308.828 160.315 308.984 159.555 308.984H153.387V311.012H151.515V302.672H159.555ZM159.555 307.328C159.883 307.328 160.155 307.256 160.371 307.112C160.587 306.96 160.747 306.772 160.851 306.548C160.963 306.324 161.019 306.084 161.019 305.828C161.019 305.572 160.963 305.332 160.851 305.108C160.739 304.884 160.575 304.7 160.359 304.556C160.143 304.404 159.875 304.328 159.555 304.328H153.387V307.328H159.555ZM171.629 302.672C172.309 302.672 172.885 302.8 173.357 303.056C173.837 303.312 174.213 303.64 174.485 304.04C174.765 304.432 174.937 304.872 175.001 305.36C175.073 305.84 175.041 306.308 174.905 306.764C174.769 307.22 174.529 307.636 174.185 308.012C173.849 308.38 173.409 308.648 172.865 308.816L175.361 311H172.529L170.657 309.356C170.385 309.108 170.061 308.984 169.685 308.984H165.797V311.012H163.925V302.672H171.629ZM171.629 307.328C171.957 307.328 172.229 307.256 172.445 307.112C172.669 306.96 172.833 306.772 172.937 306.548C173.049 306.324 173.101 306.084 173.093 305.828C173.093 305.572 173.037 305.332 172.925 305.108C172.821 304.884 172.657 304.7 172.433 304.556C172.217 304.404 171.949 304.328 171.629 304.328H165.797V307.328H171.629ZM181.22 302.684V304.352H179.708V309.344H181.22V311.012H176.324V309.344H177.848V304.352H176.324V302.684H181.22ZM190.799 305.684C191.455 305.684 191.999 305.816 192.431 306.08C192.871 306.344 193.199 306.672 193.415 307.064C193.639 307.456 193.751 307.884 193.751 308.348C193.751 308.812 193.643 309.24 193.427 309.632C193.211 310.024 192.883 310.352 192.443 310.616C192.003 310.88 191.455 311.012 190.799 311.012H182.543V309.344H190.799C191.031 309.344 191.219 309.296 191.363 309.2C191.515 309.096 191.627 308.972 191.699 308.828C191.779 308.684 191.815 308.524 191.807 308.348C191.807 308.172 191.767 308.012 191.687 307.868C191.615 307.724 191.503 307.604 191.351 307.508C191.207 307.404 191.023 307.352 190.799 307.352H184.847C184.255 307.352 183.759 307.236 183.359 307.004C182.967 306.772 182.671 306.484 182.471 306.14C182.279 305.796 182.183 305.424 182.183 305.024C182.183 304.616 182.283 304.24 182.483 303.896C182.683 303.552 182.979 303.264 183.371 303.032C183.763 302.8 184.255 302.684 184.847 302.684H192.911V304.352H184.847C184.615 304.352 184.439 304.424 184.319 304.568C184.199 304.704 184.135 304.856 184.127 305.024C184.127 305.184 184.187 305.336 184.307 305.48C184.427 305.616 184.607 305.684 184.847 305.684H190.799ZM205.27 302.672V304.328H196.582V306.008H202.294V307.676H196.582V309.332H205.27V311.012H194.722V302.672H205.27ZM224.143 302.684V304.352H222.631V309.344H224.143V311.012H219.247V309.344H220.771V304.352H209.563V302.684H224.143ZM217.507 305.672V307.34H211.855C211.671 307.34 211.531 307.408 211.435 307.544C211.339 307.68 211.291 307.832 211.291 308V311.012H209.347V308C209.347 307.712 209.395 307.432 209.491 307.16C209.595 306.888 209.747 306.644 209.947 306.428C210.147 306.212 210.399 306.036 210.703 305.9C211.007 305.756 211.359 305.68 211.759 305.672H217.507ZM234.001 302.672H235.861V311.012H234.001V307.184L226.969 304.448V311.012H225.109V302.672H226.969L234.001 305.396V302.672ZM246.38 302.672V304.328H242.528V311.012H240.668V304.328H236.816V302.672H246.38ZM257.688 302.672V304.328H249V306.008H254.712V307.676H249V309.332H257.688V311.012H247.14V302.672H257.688ZM270.021 309.344V311.012H262.545C261.961 311.012 261.409 310.908 260.889 310.7C260.369 310.484 259.917 310.188 259.533 309.812C259.149 309.436 258.845 308.996 258.621 308.492C258.397 307.98 258.285 307.432 258.285 306.848C258.285 306.256 258.397 305.708 258.621 305.204C258.845 304.7 259.149 304.26 259.533 303.884C259.917 303.508 260.369 303.216 260.889 303.008C261.409 302.792 261.961 302.684 262.545 302.684H270.021V304.352H262.545C262.225 304.352 261.925 304.416 261.645 304.544C261.365 304.664 261.121 304.836 260.913 305.06C260.705 305.284 260.541 305.548 260.421 305.852C260.301 306.156 260.241 306.488 260.241 306.848C260.241 307.208 260.301 307.54 260.421 307.844C260.541 308.148 260.705 308.412 260.913 308.636C261.121 308.86 261.365 309.036 261.645 309.164C261.925 309.284 262.225 309.344 262.545 309.344H270.021ZM279.868 302.672H281.728V311.012H279.868V307.676H272.836V311.012H270.976V302.672H272.836V306.008H279.868V302.672ZM293.84 302.672C294.6 302.672 295.232 302.828 295.736 303.14C296.24 303.452 296.616 303.844 296.864 304.316C297.12 304.78 297.248 305.284 297.248 305.828C297.248 306.372 297.12 306.88 296.864 307.352C296.616 307.816 296.24 308.204 295.736 308.516C295.232 308.828 294.6 308.984 293.84 308.984H287.672V311.012H285.8V302.672H293.84ZM293.84 307.328C294.168 307.328 294.44 307.256 294.656 307.112C294.872 306.96 295.032 306.772 295.136 306.548C295.248 306.324 295.304 306.084 295.304 305.828C295.304 305.572 295.248 305.332 295.136 305.108C295.024 304.884 294.86 304.7 294.644 304.556C294.428 304.404 294.16 304.328 293.84 304.328H287.672V307.328H293.84ZM300.082 309.344H307.774V311.012H298.21V302.684H300.082V309.344ZM315.466 302.684C315.866 302.684 316.23 302.792 316.558 303.008C316.886 303.216 317.13 303.5 317.29 303.86L320.47 311.012H318.646L317.914 309.344H311.302L310.558 311.012H308.734L311.926 303.86C312.086 303.5 312.33 303.216 312.658 303.008C312.986 302.792 313.346 302.684 313.738 302.684H315.466ZM317.17 307.688L315.814 304.64C315.774 304.552 315.71 304.484 315.622 304.436C315.542 304.38 315.454 304.352 315.358 304.352H313.846C313.75 304.352 313.662 304.38 313.582 304.436C313.502 304.484 313.442 304.552 313.402 304.64L312.046 307.688H317.17ZM328.622 302.672V304.328H324.77V311.012H322.91V304.328H319.058V302.672H328.622ZM339.738 302.672V304.328H331.254V306.212H336.762V307.868H331.254V311.012H329.382V302.672H339.738ZM347.522 302.684C348.114 302.684 348.666 302.792 349.178 303.008C349.698 303.216 350.15 303.508 350.534 303.884C350.918 304.26 351.222 304.7 351.446 305.204C351.67 305.708 351.782 306.256 351.782 306.848C351.782 307.432 351.67 307.98 351.446 308.492C351.222 308.996 350.918 309.436 350.534 309.812C350.15 310.188 349.698 310.484 349.178 310.7C348.666 310.908 348.114 311.012 347.522 311.012H344.306C343.722 311.012 343.17 310.908 342.65 310.7C342.13 310.484 341.678 310.188 341.294 309.812C340.91 309.436 340.606 308.996 340.382 308.492C340.158 307.98 340.046 307.432 340.046 306.848C340.046 306.256 340.158 305.708 340.382 305.204C340.606 304.7 340.91 304.26 341.294 303.884C341.678 303.508 342.13 303.216 342.65 303.008C343.17 302.792 343.722 302.684 344.306 302.684H347.522ZM347.522 309.344C347.842 309.344 348.142 309.284 348.422 309.164C348.702 309.036 348.946 308.86 349.154 308.636C349.362 308.412 349.526 308.148 349.646 307.844C349.766 307.54 349.826 307.208 349.826 306.848C349.826 306.488 349.766 306.156 349.646 305.852C349.526 305.548 349.362 305.284 349.154 305.06C348.946 304.836 348.702 304.664 348.422 304.544C348.142 304.416 347.842 304.352 347.522 304.352H344.306C343.986 304.352 343.686 304.416 343.406 304.544C343.126 304.664 342.882 304.836 342.674 305.06C342.466 305.284 342.302 305.548 342.182 305.852C342.062 306.156 342.002 306.488 342.002 306.848C342.002 307.208 342.062 307.54 342.182 307.844C342.302 308.148 342.466 308.412 342.674 308.636C342.882 308.86 343.126 309.036 343.406 309.164C343.686 309.284 343.986 309.344 344.306 309.344H347.522ZM360.442 302.672C361.122 302.672 361.698 302.8 362.17 303.056C362.65 303.312 363.026 303.64 363.298 304.04C363.578 304.432 363.75 304.872 363.814 305.36C363.886 305.84 363.854 306.308 363.718 306.764C363.582 307.22 363.342 307.636 362.998 308.012C362.662 308.38 362.222 308.648 361.678 308.816L364.174 311H361.342L359.47 309.356C359.198 309.108 358.874 308.984 358.498 308.984H354.61V311.012H352.738V302.672H360.442ZM360.442 307.328C360.77 307.328 361.042 307.256 361.258 307.112C361.482 306.96 361.646 306.772 361.75 306.548C361.862 306.324 361.914 306.084 361.906 305.828C361.906 305.572 361.85 305.332 361.738 305.108C361.634 304.884 361.47 304.7 361.246 304.556C361.03 304.404 360.762 304.328 360.442 304.328H354.61V307.328H360.442ZM378.432 302.684V311.012H376.56V304.328H375.372C375.148 304.328 374.948 304.396 374.772 304.532C374.596 304.668 374.476 304.84 374.412 305.048L372.72 311.012H370.848L369.156 305.048C369.092 304.84 368.972 304.668 368.796 304.532C368.62 304.396 368.42 304.328 368.196 304.328H366.996V311.012H365.136V302.684H368.928C369.328 302.724 369.68 302.876 369.984 303.14C370.288 303.396 370.496 303.716 370.608 304.1L371.784 308.204L372.948 304.1C373.06 303.716 373.268 303.396 373.572 303.14C373.884 302.876 374.24 302.724 374.64 302.684H378.432ZM388.014 305.684C388.67 305.684 389.214 305.816 389.646 306.08C390.086 306.344 390.414 306.672 390.63 307.064C390.854 307.456 390.966 307.884 390.966 308.348C390.966 308.812 390.858 309.24 390.642 309.632C390.426 310.024 390.098 310.352 389.658 310.616C389.218 310.88 388.67 311.012 388.014 311.012H379.758V309.344H388.014C388.246 309.344 388.434 309.296 388.578 309.2C388.73 309.096 388.842 308.972 388.914 308.828C388.994 308.684 389.03 308.524 389.022 308.348C389.022 308.172 388.982 308.012 388.902 307.868C388.83 307.724 388.718 307.604 388.566 307.508C388.422 307.404 388.238 307.352 388.014 307.352H382.062C381.47 307.352 380.974 307.236 380.574 307.004C380.182 306.772 379.886 306.484 379.686 306.14C379.494 305.796 379.398 305.424 379.398 305.024C379.398 304.616 379.498 304.24 379.698 303.896C379.898 303.552 380.194 303.264 380.586 303.032C380.978 302.8 381.47 302.684 382.062 302.684H390.126V304.352H382.062C381.83 304.352 381.654 304.424 381.534 304.568C381.414 304.704 381.35 304.856 381.342 305.024C381.342 305.184 381.402 305.336 381.522 305.48C381.642 305.616 381.822 305.684 382.062 305.684H388.014ZM14.212 326.684C14.612 326.684 14.976 326.792 15.304 327.008C15.632 327.216 15.876 327.5 16.036 327.86L19.216 335.012H17.392L16.66 333.344H10.048L9.304 335.012H7.48L10.672 327.86C10.832 327.5 11.076 327.216 11.404 327.008C11.732 326.792 12.092 326.684 12.484 326.684H14.212ZM15.916 331.688L14.56 328.64C14.52 328.552 14.456 328.484 14.368 328.436C14.288 328.38 14.2 328.352 14.104 328.352H12.592C12.496 328.352 12.408 328.38 12.328 328.436C12.248 328.484 12.188 328.552 12.148 328.64L10.792 331.688H15.916ZM30.7707 333.344V335.012H23.2947C22.7107 335.012 22.1587 334.908 21.6387 334.7C21.1187 334.484 20.6667 334.188 20.2827 333.812C19.8987 333.436 19.5947 332.996 19.3707 332.492C19.1467 331.98 19.0347 331.432 19.0347 330.848C19.0347 330.256 19.1467 329.708 19.3707 329.204C19.5947 328.7 19.8987 328.26 20.2827 327.884C20.6667 327.508 21.1187 327.216 21.6387 327.008C22.1587 326.792 22.7107 326.684 23.2947 326.684H30.7707V328.352H23.2947C22.9747 328.352 22.6747 328.416 22.3947 328.544C22.1147 328.664 21.8707 328.836 21.6627 329.06C21.4547 329.284 21.2907 329.548 21.1707 329.852C21.0507 330.156 20.9907 330.488 20.9907 330.848C20.9907 331.208 21.0507 331.54 21.1707 331.844C21.2907 332.148 21.4547 332.412 21.6627 332.636C21.8707 332.86 22.1147 333.036 22.3947 333.164C22.6747 333.284 22.9747 333.344 23.2947 333.344H30.7707ZM39.4301 326.672C40.1101 326.672 40.6861 326.8 41.1581 327.056C41.6381 327.312 42.0141 327.64 42.2861 328.04C42.5661 328.432 42.7381 328.872 42.8021 329.36C42.8741 329.84 42.8421 330.308 42.7061 330.764C42.5701 331.22 42.3301 331.636 41.9861 332.012C41.6501 332.38 41.2101 332.648 40.6661 332.816L43.1621 335H40.3301L38.4581 333.356C38.1861 333.108 37.8621 332.984 37.4861 332.984H33.5981V335.012H31.7261V326.672H39.4301ZM39.4301 331.328C39.7581 331.328 40.0301 331.256 40.2461 331.112C40.4701 330.96 40.6341 330.772 40.7381 330.548C40.8501 330.324 40.9021 330.084 40.8941 329.828C40.8941 329.572 40.8381 329.332 40.7261 329.108C40.6221 328.884 40.4581 328.7 40.2341 328.556C40.0181 328.404 39.7501 328.328 39.4301 328.328H33.5981V331.328H39.4301ZM50.9794 326.684C51.5714 326.684 52.1234 326.792 52.6354 327.008C53.1554 327.216 53.6074 327.508 53.9914 327.884C54.3754 328.26 54.6794 328.7 54.9034 329.204C55.1274 329.708 55.2394 330.256 55.2394 330.848C55.2394 331.432 55.1274 331.98 54.9034 332.492C54.6794 332.996 54.3754 333.436 53.9914 333.812C53.6074 334.188 53.1554 334.484 52.6354 334.7C52.1234 334.908 51.5714 335.012 50.9794 335.012H47.7634C47.1794 335.012 46.6274 334.908 46.1074 334.7C45.5874 334.484 45.1354 334.188 44.7514 333.812C44.3674 333.436 44.0634 332.996 43.8394 332.492C43.6154 331.98 43.5034 331.432 43.5034 330.848C43.5034 330.256 43.6154 329.708 43.8394 329.204C44.0634 328.7 44.3674 328.26 44.7514 327.884C45.1354 327.508 45.5874 327.216 46.1074 327.008C46.6274 326.792 47.1794 326.684 47.7634 326.684H50.9794ZM50.9794 333.344C51.2994 333.344 51.5994 333.284 51.8794 333.164C52.1594 333.036 52.4034 332.86 52.6114 332.636C52.8194 332.412 52.9834 332.148 53.1034 331.844C53.2234 331.54 53.2834 331.208 53.2834 330.848C53.2834 330.488 53.2234 330.156 53.1034 329.852C52.9834 329.548 52.8194 329.284 52.6114 329.06C52.4034 328.836 52.1594 328.664 51.8794 328.544C51.5994 328.416 51.2994 328.352 50.9794 328.352H47.7634C47.4434 328.352 47.1434 328.416 46.8634 328.544C46.5834 328.664 46.3394 328.836 46.1314 329.06C45.9234 329.284 45.7594 329.548 45.6394 329.852C45.5194 330.156 45.4594 330.488 45.4594 330.848C45.4594 331.208 45.5194 331.54 45.6394 331.844C45.7594 332.148 45.9234 332.412 46.1314 332.636C46.3394 332.86 46.5834 333.036 46.8634 333.164C47.1434 333.284 47.4434 333.344 47.7634 333.344H50.9794ZM64.8108 329.684C65.4668 329.684 66.0108 329.816 66.4428 330.08C66.8828 330.344 67.2108 330.672 67.4268 331.064C67.6508 331.456 67.7628 331.884 67.7628 332.348C67.7628 332.812 67.6548 333.24 67.4388 333.632C67.2228 334.024 66.8948 334.352 66.4548 334.616C66.0148 334.88 65.4668 335.012 64.8108 335.012H56.5548V333.344H64.8108C65.0428 333.344 65.2308 333.296 65.3748 333.2C65.5268 333.096 65.6388 332.972 65.7108 332.828C65.7908 332.684 65.8268 332.524 65.8188 332.348C65.8188 332.172 65.7788 332.012 65.6988 331.868C65.6268 331.724 65.5148 331.604 65.3628 331.508C65.2188 331.404 65.0348 331.352 64.8108 331.352H58.8588C58.2668 331.352 57.7708 331.236 57.3708 331.004C56.9788 330.772 56.6828 330.484 56.4828 330.14C56.2908 329.796 56.1948 329.424 56.1948 329.024C56.1948 328.616 56.2948 328.24 56.4948 327.896C56.6948 327.552 56.9908 327.264 57.3828 327.032C57.7748 326.8 58.2668 326.684 58.8588 326.684H66.9228V328.352H58.8588C58.6268 328.352 58.4508 328.424 58.3308 328.568C58.2108 328.704 58.1468 328.856 58.1388 329.024C58.1388 329.184 58.1988 329.336 58.3188 329.48C58.4388 329.616 58.6188 329.684 58.8588 329.684H64.8108ZM77.3499 329.684C78.0059 329.684 78.5499 329.816 78.9819 330.08C79.4219 330.344 79.7499 330.672 79.9659 331.064C80.1899 331.456 80.3019 331.884 80.3019 332.348C80.3019 332.812 80.1939 333.24 79.9779 333.632C79.7619 334.024 79.4339 334.352 78.9939 334.616C78.5539 334.88 78.0059 335.012 77.3499 335.012H69.0939V333.344H77.3499C77.5819 333.344 77.7699 333.296 77.9139 333.2C78.0659 333.096 78.1779 332.972 78.2499 332.828C78.3299 332.684 78.3659 332.524 78.3579 332.348C78.3579 332.172 78.3179 332.012 78.2379 331.868C78.1659 331.724 78.0539 331.604 77.9019 331.508C77.7579 331.404 77.5739 331.352 77.3499 331.352H71.3979C70.8059 331.352 70.3099 331.236 69.9099 331.004C69.5179 330.772 69.2219 330.484 69.0219 330.14C68.8299 329.796 68.7339 329.424 68.7339 329.024C68.7339 328.616 68.8339 328.24 69.0339 327.896C69.2339 327.552 69.5299 327.264 69.9219 327.032C70.3139 326.8 70.8059 326.684 71.3979 326.684H79.4619V328.352H71.3979C71.1659 328.352 70.9899 328.424 70.8699 328.568C70.7499 328.704 70.6859 328.856 70.6779 329.024C70.6779 329.184 70.7379 329.336 70.8579 329.48C70.9779 329.616 71.1579 329.684 71.3979 329.684H77.3499ZM97.7582 326.672H99.5702L96.3902 333.824C96.2302 334.184 95.9862 334.472 95.6582 334.688C95.3302 334.896 94.9702 335 94.5782 335H93.6302C93.2942 335 92.9822 334.924 92.6942 334.772C92.4062 334.612 92.1702 334.392 91.9862 334.112C91.8022 334.392 91.5622 334.612 91.2662 334.772C90.9782 334.924 90.6662 335 90.3302 335H89.3942C88.9942 335 88.6302 334.896 88.3022 334.688C87.9742 334.472 87.7302 334.184 87.5702 333.824L84.3902 326.672H86.2142L89.0462 333.044C89.0862 333.132 89.1462 333.204 89.2262 333.26C89.3142 333.308 89.4062 333.332 89.5022 333.332H90.2222C90.3182 333.332 90.4062 333.308 90.4862 333.26C90.5662 333.204 90.6262 333.132 90.6662 333.044L91.0742 332.144L88.6262 326.672H90.4502L91.9862 330.104L93.5102 326.672H95.3342L92.8982 332.144L93.2942 333.044C93.3822 333.236 93.5342 333.332 93.7502 333.332H94.4582C94.5542 333.332 94.6422 333.308 94.7222 333.26C94.8102 333.204 94.8742 333.132 94.9142 333.044L97.7582 326.672ZM111.075 326.672V328.328H102.387V330.008H108.099V331.676H102.387V333.332H111.075V335.012H100.527V326.672H111.075ZM120.651 329.684C121.307 329.684 121.851 329.816 122.283 330.08C122.723 330.344 123.051 330.672 123.267 331.064C123.491 331.456 123.603 331.884 123.603 332.348C123.603 332.812 123.495 333.24 123.279 333.632C123.063 334.024 122.735 334.352 122.295 334.616C121.855 334.88 121.307 335.012 120.651 335.012H112.395V333.344H120.651C120.883 333.344 121.071 333.296 121.215 333.2C121.367 333.096 121.479 332.972 121.551 332.828C121.631 332.684 121.667 332.524 121.659 332.348C121.659 332.172 121.619 332.012 121.539 331.868C121.467 331.724 121.355 331.604 121.203 331.508C121.059 331.404 120.875 331.352 120.651 331.352H114.699C114.107 331.352 113.611 331.236 113.211 331.004C112.819 330.772 112.523 330.484 112.323 330.14C112.131 329.796 112.035 329.424 112.035 329.024C112.035 328.616 112.135 328.24 112.335 327.896C112.535 327.552 112.831 327.264 113.223 327.032C113.615 326.8 114.107 326.684 114.699 326.684H122.763V328.352H114.699C114.467 328.352 114.291 328.424 114.171 328.568C114.051 328.704 113.987 328.856 113.979 329.024C113.979 329.184 114.039 329.336 114.159 329.48C114.279 329.616 114.459 329.684 114.699 329.684H120.651ZM133.423 326.672V328.328H129.571V335.012H127.711V328.328H123.859V326.672H133.423ZM144.232 326.672C144.632 326.672 144.996 326.78 145.324 326.996C145.652 327.204 145.896 327.488 146.056 327.848L149.236 335H147.412L146.68 333.332H140.068L139.324 335H137.5L138.46 332.852C138.62 332.492 138.864 332.208 139.192 332C139.52 331.784 139.88 331.676 140.272 331.676H145.936L144.58 328.628C144.54 328.54 144.476 328.472 144.388 328.424C144.308 328.368 144.22 328.34 144.124 328.34H142.612C142.516 328.34 142.428 328.368 142.348 328.424C142.268 328.472 142.208 328.54 142.168 328.628L141.352 330.452H139.528L140.692 327.848C140.852 327.488 141.096 327.204 141.424 326.996C141.752 326.78 142.112 326.672 142.504 326.672H144.232ZM160.219 326.672V328.328H151.735V330.212H157.243V331.868H151.735V335.012H149.863V326.672H160.219ZM168.887 326.672C169.567 326.672 170.143 326.8 170.615 327.056C171.095 327.312 171.471 327.64 171.743 328.04C172.023 328.432 172.195 328.872 172.259 329.36C172.331 329.84 172.299 330.308 172.163 330.764C172.027 331.22 171.787 331.636 171.443 332.012C171.107 332.38 170.667 332.648 170.123 332.816L172.619 335H169.787L167.915 333.356C167.643 333.108 167.319 332.984 166.943 332.984H163.055V335.012H161.183V326.672H168.887ZM168.887 331.328C169.215 331.328 169.487 331.256 169.703 331.112C169.927 330.96 170.091 330.772 170.195 330.548C170.307 330.324 170.359 330.084 170.351 329.828C170.351 329.572 170.295 329.332 170.183 329.108C170.079 328.884 169.915 328.7 169.691 328.556C169.475 328.404 169.207 328.328 168.887 328.328H163.055V331.328H168.887ZM178.478 326.684V328.352H176.966V333.344H178.478V335.012H173.582V333.344H175.106V328.352H173.582V326.684H178.478ZM191.177 333.344V335.012H183.701C183.117 335.012 182.565 334.908 182.045 334.7C181.525 334.484 181.073 334.188 180.689 333.812C180.305 333.436 180.001 332.996 179.777 332.492C179.553 331.98 179.441 331.432 179.441 330.848C179.441 330.256 179.553 329.708 179.777 329.204C180.001 328.7 180.305 328.26 180.689 327.884C181.073 327.508 181.525 327.216 182.045 327.008C182.565 326.792 183.117 326.684 183.701 326.684H191.177V328.352H183.701C183.381 328.352 183.081 328.416 182.801 328.544C182.521 328.664 182.277 328.836 182.069 329.06C181.861 329.284 181.697 329.548 181.577 329.852C181.457 330.156 181.397 330.488 181.397 330.848C181.397 331.208 181.457 331.54 181.577 331.844C181.697 332.148 181.861 332.412 182.069 332.636C182.277 332.86 182.521 333.036 182.801 333.164C183.081 333.284 183.381 333.344 183.701 333.344H191.177ZM198.864 326.684C199.264 326.684 199.628 326.792 199.956 327.008C200.284 327.216 200.528 327.5 200.688 327.86L203.868 335.012H202.044L201.312 333.344H194.7L193.956 335.012H192.132L195.324 327.86C195.484 327.5 195.728 327.216 196.056 327.008C196.384 326.792 196.744 326.684 197.136 326.684H198.864ZM200.568 331.688L199.212 328.64C199.172 328.552 199.108 328.484 199.02 328.436C198.94 328.38 198.852 328.352 198.756 328.352H197.244C197.148 328.352 197.06 328.38 196.98 328.436C196.9 328.484 196.84 328.552 196.8 328.64L195.444 331.688H200.568ZM205.868 332.912C206.156 332.912 206.4 333.016 206.6 333.224C206.808 333.424 206.912 333.668 206.912 333.956C206.912 334.244 206.808 334.492 206.6 334.7C206.4 334.9 206.156 335 205.868 335C205.58 335 205.332 334.9 205.124 334.7C204.924 334.492 204.824 334.244 204.824 333.956C204.824 333.668 204.924 333.424 205.124 333.224C205.332 333.016 205.58 332.912 205.868 332.912ZM14.152 350.672C14.744 350.672 15.296 350.78 15.808 350.996C16.328 351.204 16.78 351.496 17.164 351.872C17.548 352.248 17.852 352.688 18.076 353.192C18.3 353.696 18.412 354.244 18.412 354.836C18.412 355.42 18.3 355.968 18.076 356.48C17.852 356.984 17.548 357.424 17.164 357.8C16.78 358.176 16.328 358.472 15.808 358.688C15.296 358.896 14.744 359 14.152 359H7.984V357.332H14.152C14.464 357.332 14.76 357.272 15.04 357.152C15.32 357.024 15.564 356.848 15.772 356.624C15.98 356.4 16.144 356.136 16.264 355.832C16.384 355.528 16.444 355.196 16.444 354.836C16.444 354.476 16.384 354.144 16.264 353.84C16.144 353.536 15.98 353.272 15.772 353.048C15.564 352.824 15.32 352.652 15.04 352.532C14.76 352.404 14.464 352.34 14.152 352.34H10.372C10.06 352.34 9.824 352.44 9.664 352.64C9.512 352.832 9.432 353.048 9.424 353.288C9.424 353.52 9.5 353.736 9.652 353.936C9.812 354.128 10.052 354.224 10.372 354.224H14.356V355.892H10.372C9.732 355.892 9.196 355.764 8.764 355.508C8.34 355.252 8.02 354.932 7.804 354.548C7.596 354.156 7.492 353.736 7.492 353.288C7.492 352.832 7.6 352.412 7.816 352.028C8.032 351.636 8.352 351.312 8.776 351.056C9.2 350.8 9.732 350.672 10.372 350.672H14.152ZM26.0465 350.672C26.6385 350.672 27.1905 350.78 27.7025 350.996C28.2225 351.204 28.6745 351.496 29.0585 351.872C29.4425 352.248 29.7465 352.688 29.9705 353.192C30.1945 353.696 30.3065 354.244 30.3065 354.836C30.3065 355.42 30.1945 355.968 29.9705 356.48C29.7465 356.984 29.4425 357.424 29.0585 357.8C28.6745 358.176 28.2225 358.472 27.7025 358.688C27.1905 358.896 26.6385 359 26.0465 359H19.8785V357.332H26.0465C26.3585 357.332 26.6545 357.272 26.9345 357.152C27.2145 357.024 27.4585 356.848 27.6665 356.624C27.8745 356.4 28.0385 356.136 28.1585 355.832C28.2785 355.528 28.3385 355.196 28.3385 354.836C28.3385 354.476 28.2785 354.144 28.1585 353.84C28.0385 353.536 27.8745 353.272 27.6665 353.048C27.4585 352.824 27.2145 352.652 26.9345 352.532C26.6545 352.404 26.3585 352.34 26.0465 352.34H22.2665C21.9545 352.34 21.7185 352.44 21.5585 352.64C21.4065 352.832 21.3265 353.048 21.3185 353.288C21.3185 353.52 21.3945 353.736 21.5465 353.936C21.7065 354.128 21.9465 354.224 22.2665 354.224H26.2505V355.892H22.2665C21.6265 355.892 21.0905 355.764 20.6585 355.508C20.2345 355.252 19.9145 354.932 19.6985 354.548C19.4905 354.156 19.3865 353.736 19.3865 353.288C19.3865 352.832 19.4945 352.412 19.7105 352.028C19.9265 351.636 20.2465 351.312 20.6705 351.056C21.0945 350.8 21.6265 350.672 22.2665 350.672H26.0465ZM32.3131 356.912C32.6011 356.912 32.8451 357.016 33.0451 357.224C33.2531 357.424 33.3571 357.668 33.3571 357.956C33.3571 358.244 33.2531 358.492 33.0451 358.7C32.8451 358.9 32.6011 359 32.3131 359C32.0251 359 31.7771 358.9 31.5691 358.7C31.3691 358.492 31.2691 358.244 31.2691 357.956C31.2691 357.668 31.3691 357.424 31.5691 357.224C31.7771 357.016 32.0251 356.912 32.3131 356.912ZM41.5519 350.66C42.0079 350.66 42.4039 350.732 42.7399 350.876C43.0839 351.012 43.3679 351.196 43.5919 351.428C43.8239 351.66 43.9959 351.924 44.1079 352.22C44.2279 352.516 44.2879 352.82 44.2879 353.132C44.2959 353.444 44.2439 353.752 44.1319 354.056C44.0279 354.352 43.8639 354.62 43.6399 354.86C43.8639 355.092 44.0279 355.36 44.1319 355.664C44.2439 355.96 44.2959 356.26 44.2879 356.564C44.2799 356.868 44.2119 357.168 44.0839 357.464C43.9639 357.752 43.7839 358.012 43.5439 358.244C43.3039 358.468 43.0039 358.652 42.6439 358.796C42.2919 358.932 41.8799 359 41.4079 359H37.2079C36.7359 359 36.3199 358.932 35.9599 358.796C35.5999 358.652 35.2999 358.468 35.0599 358.244C34.8199 358.012 34.6359 357.752 34.5079 357.464C34.3879 357.168 34.3239 356.868 34.3159 356.564C34.3079 356.26 34.3599 355.96 34.4719 355.664C34.5839 355.36 34.7519 355.092 34.9759 354.86C34.6399 354.5 34.4319 354.08 34.3519 353.6C34.2719 353.12 34.3199 352.664 34.4959 352.232C34.6719 351.792 34.9719 351.42 35.3959 351.116C35.8199 350.812 36.3719 350.66 37.0519 350.66H41.5519ZM41.5519 354.008C41.8239 354.008 42.0239 353.92 42.1519 353.744C42.2879 353.568 42.3519 353.376 42.3439 353.168C42.3439 352.952 42.2759 352.756 42.1399 352.58C42.0119 352.404 41.8159 352.316 41.5519 352.316H37.0519C36.7959 352.316 36.5999 352.404 36.4639 352.58C36.3359 352.756 36.2679 352.952 36.2599 353.168C36.2599 353.376 36.3239 353.568 36.4519 353.744C36.5879 353.92 36.7879 354.008 37.0519 354.008H41.5519ZM41.4079 357.332C41.7279 357.332 41.9639 357.248 42.1159 357.08C42.2759 356.904 42.3519 356.712 42.3439 356.504C42.3439 356.288 42.2639 356.096 42.1039 355.928C41.9519 355.752 41.7199 355.664 41.4079 355.664H37.2079C36.8959 355.664 36.6599 355.752 36.4999 355.928C36.3479 356.096 36.2679 356.288 36.2599 356.504C36.2599 356.712 36.3359 356.904 36.4879 357.08C36.6479 357.248 36.8879 357.332 37.2079 357.332H41.4079ZM50.1213 352.412C50.1213 352.676 50.0693 352.92 49.9653 353.144C49.8693 353.368 49.7333 353.564 49.5573 353.732C49.3893 353.892 49.1893 354.02 48.9573 354.116C48.7333 354.212 48.4893 354.26 48.2253 354.26H47.1573C46.8933 354.26 46.6453 354.212 46.4133 354.116C46.1893 354.02 45.9893 353.892 45.8133 353.732C45.6453 353.564 45.5093 353.368 45.4053 353.144C45.3093 352.92 45.2613 352.676 45.2613 352.412C45.2613 352.148 45.3093 351.904 45.4053 351.68C45.5093 351.448 45.6453 351.252 45.8133 351.092C45.9893 350.924 46.1893 350.792 46.4133 350.696C46.6453 350.6 46.8933 350.552 47.1573 350.552H48.2253C48.4893 350.552 48.7333 350.6 48.9573 350.696C49.1893 350.792 49.3893 350.924 49.5573 351.092C49.7333 351.252 49.8693 351.448 49.9653 351.68C50.0693 351.904 50.1213 352.148 50.1213 352.412ZM53.3973 350.72L50.0853 359.012H48.3092L51.6213 350.72H53.3973ZM48.1173 353.288C48.3413 353.288 48.5293 353.208 48.6813 353.048C48.8413 352.88 48.9213 352.668 48.9213 352.412C48.9213 352.156 48.8413 351.948 48.6813 351.788C48.5293 351.62 48.3413 351.536 48.1173 351.536H47.2773C47.0533 351.536 46.8613 351.62 46.7013 351.788C46.5413 351.948 46.4613 352.156 46.4613 352.412C46.4613 352.668 46.5413 352.88 46.7013 353.048C46.8613 353.208 47.0533 353.288 47.2773 353.288H48.1173ZM54.5613 355.304C54.8253 355.304 55.0733 355.352 55.3053 355.448C55.5373 355.544 55.7373 355.676 55.9053 355.844C56.0733 356.004 56.2053 356.196 56.3013 356.42C56.4053 356.644 56.4573 356.888 56.4573 357.152C56.4573 357.416 56.4053 357.664 56.3013 357.896C56.2053 358.12 56.0733 358.316 55.9053 358.484C55.7373 358.644 55.5373 358.772 55.3053 358.868C55.0733 358.964 54.8253 359.012 54.5613 359.012H53.4933C53.2293 359.012 52.9813 358.964 52.7493 358.868C52.5253 358.772 52.3253 358.644 52.1493 358.484C51.9813 358.316 51.8453 358.12 51.7413 357.896C51.6453 357.664 51.5973 357.416 51.5973 357.152C51.5973 356.888 51.6453 356.644 51.7413 356.42C51.8453 356.196 51.9813 356.004 52.1493 355.844C52.3253 355.676 52.5253 355.544 52.7493 355.448C52.9813 355.352 53.2293 355.304 53.4933 355.304H54.5613ZM54.4533 358.028C54.6773 358.028 54.8653 357.948 55.0173 357.788C55.1773 357.62 55.2573 357.408 55.2573 357.152C55.2573 356.896 55.1773 356.688 55.0173 356.528C54.8653 356.36 54.6773 356.276 54.4533 356.276H53.6133C53.3893 356.276 53.1973 356.36 53.0373 356.528C52.8853 356.688 52.8093 356.896 52.8093 357.152C52.8093 357.408 52.8853 357.62 53.0373 357.788C53.1973 357.948 53.3893 358.028 53.6133 358.028H54.4533ZM64.7908 359.012C64.2068 359.012 63.6548 358.908 63.1348 358.7C62.6148 358.484 62.1628 358.188 61.7788 357.812C61.3948 357.436 61.0908 356.996 60.8668 356.492C60.6428 355.98 60.5308 355.432 60.5308 354.848V350.684H62.3908V354.848C62.3908 355.208 62.4548 355.54 62.5828 355.844C62.7188 356.148 62.8948 356.412 63.1108 356.636C63.3348 356.86 63.5908 357.036 63.8788 357.164C64.1668 357.284 64.4708 357.344 64.7908 357.344H68.0068C68.3268 357.344 68.6308 357.284 68.9188 357.164C69.2068 357.036 69.4588 356.86 69.6748 356.636C69.8988 356.412 70.0748 356.148 70.2028 355.844C70.3388 355.54 70.4068 355.208 70.4068 354.848V350.684H72.2668V354.848C72.2668 355.432 72.1548 355.98 71.9308 356.492C71.7068 356.996 71.4028 357.436 71.0188 357.812C70.6348 358.188 70.1828 358.484 69.6628 358.7C69.1508 358.908 68.5988 359.012 68.0068 359.012H64.7908ZM81.2622 350.672C82.0222 350.672 82.6542 350.828 83.1582 351.14C83.6622 351.452 84.0382 351.844 84.2862 352.316C84.5422 352.78 84.6702 353.284 84.6702 353.828C84.6702 354.372 84.5422 354.88 84.2862 355.352C84.0382 355.816 83.6622 356.204 83.1582 356.516C82.6542 356.828 82.0222 356.984 81.2622 356.984H75.0942V359.012H73.2222V350.672H81.2622ZM81.2622 355.328C81.5902 355.328 81.8622 355.256 82.0782 355.112C82.2942 354.96 82.4542 354.772 82.5582 354.548C82.6702 354.324 82.7262 354.084 82.7262 353.828C82.7262 353.572 82.6702 353.332 82.5582 353.108C82.4462 352.884 82.2822 352.7 82.0662 352.556C81.8502 352.404 81.5822 352.328 81.2622 352.328H75.0942V355.328H81.2622ZM94.962 350.672V352.328H91.11V359.012H89.25V352.328H85.398V350.672H94.962ZM100.817 350.684V352.352H99.3054V357.344H100.817V359.012H95.9214V357.344H97.4454V352.352H95.9214V350.684H100.817ZM115.077 350.684V359.012H113.205V352.328H112.017C111.793 352.328 111.593 352.396 111.417 352.532C111.241 352.668 111.121 352.84 111.057 353.048L109.365 359.012H107.493L105.801 353.048C105.737 352.84 105.617 352.668 105.441 352.532C105.265 352.396 105.065 352.328 104.841 352.328H103.641V359.012H101.781V350.684H105.573C105.973 350.724 106.325 350.876 106.629 351.14C106.933 351.396 107.141 351.716 107.253 352.1L108.429 356.204L109.593 352.1C109.705 351.716 109.913 351.396 110.217 351.14C110.529 350.876 110.885 350.724 111.285 350.684H115.077ZM126.591 350.672V352.328H117.903V354.008H123.615V355.676H117.903V357.332H126.591V359.012H116.043V350.672H126.591ZM128.594 356.912C128.882 356.912 129.126 357.016 129.326 357.224C129.534 357.424 129.638 357.668 129.638 357.956C129.638 358.244 129.534 358.492 129.326 358.7C129.126 358.9 128.882 359 128.594 359C128.306 359 128.058 358.9 127.85 358.7C127.65 358.492 127.55 358.244 127.55 357.956C127.55 357.668 127.65 357.424 127.85 357.224C128.058 357.016 128.306 356.912 128.594 356.912ZM133.714 354.512L140.47 351.812V353.6L135.958 355.4L140.47 357.212V359L133.714 356.3V354.512ZM149.189 350.672C149.861 350.672 150.421 350.808 150.869 351.08C151.325 351.352 151.665 351.692 151.889 352.1C152.113 352.508 152.225 352.952 152.225 353.432C152.233 353.904 152.121 354.344 151.889 354.752C151.665 355.16 151.329 355.5 150.881 355.772C150.433 356.044 149.869 356.18 149.189 356.18H144.305C144.233 356.18 144.149 356.204 144.053 356.252C143.965 356.292 143.881 356.36 143.801 356.456C143.721 356.544 143.653 356.664 143.597 356.816C143.549 356.96 143.525 357.136 143.525 357.344H151.853V358.988H141.425V357.344C141.425 356.928 141.497 356.548 141.641 356.204C141.785 355.852 141.985 355.552 142.241 355.304C142.505 355.056 142.813 354.864 143.165 354.728C143.517 354.584 143.897 354.512 144.305 354.512H149.189C149.437 354.512 149.641 354.46 149.801 354.356C149.961 354.244 150.081 354.108 150.161 353.948C150.241 353.788 150.281 353.616 150.281 353.432C150.281 353.24 150.237 353.064 150.149 352.904C150.069 352.744 149.949 352.612 149.789 352.508C149.629 352.396 149.429 352.34 149.189 352.34H141.833V350.672H149.189ZM159.875 350.672C160.467 350.672 161.019 350.78 161.531 350.996C162.051 351.204 162.503 351.496 162.887 351.872C163.271 352.248 163.575 352.688 163.799 353.192C164.023 353.696 164.135 354.244 164.135 354.836C164.135 355.42 164.023 355.968 163.799 356.48C163.575 356.984 163.271 357.424 162.887 357.8C162.503 358.176 162.051 358.472 161.531 358.688C161.011 358.896 160.455 359 159.863 359H157.475C156.883 359 156.327 358.896 155.807 358.688C155.287 358.472 154.835 358.176 154.451 357.8C154.067 357.424 153.763 356.984 153.539 356.48C153.315 355.968 153.203 355.42 153.203 354.836C153.203 354.244 153.315 353.696 153.539 353.192C153.763 352.688 154.067 352.248 154.451 351.872C154.835 351.496 155.287 351.204 155.807 350.996C156.327 350.78 156.883 350.672 157.475 350.672H159.875ZM159.863 357.332C160.183 357.332 160.483 357.272 160.763 357.152C161.043 357.024 161.287 356.848 161.495 356.624C161.703 356.4 161.867 356.136 161.987 355.832C162.107 355.528 162.167 355.196 162.167 354.836C162.167 354.476 162.107 354.144 161.987 353.84C161.867 353.536 161.703 353.272 161.495 353.048C161.287 352.824 161.043 352.652 160.763 352.532C160.483 352.404 160.183 352.34 159.863 352.34H157.475C157.155 352.34 156.855 352.404 156.575 352.532C156.295 352.652 156.051 352.824 155.843 353.048C155.635 353.272 155.471 353.536 155.351 353.84C155.231 354.144 155.171 354.476 155.171 354.836C155.171 355.196 155.231 355.528 155.351 355.832C155.471 356.136 155.635 356.4 155.843 356.624C156.051 356.848 156.295 357.024 156.575 357.152C156.855 357.272 157.155 357.332 157.475 357.332H159.863ZM171.769 350.672C172.361 350.672 172.913 350.78 173.425 350.996C173.945 351.204 174.397 351.496 174.781 351.872C175.165 352.248 175.469 352.688 175.693 353.192C175.917 353.696 176.029 354.244 176.029 354.836C176.029 355.42 175.917 355.968 175.693 356.48C175.469 356.984 175.165 357.424 174.781 357.8C174.397 358.176 173.945 358.472 173.425 358.688C172.905 358.896 172.349 359 171.757 359H169.369C168.777 359 168.221 358.896 167.701 358.688C167.181 358.472 166.729 358.176 166.345 357.8C165.961 357.424 165.657 356.984 165.433 356.48C165.209 355.968 165.097 355.42 165.097 354.836C165.097 354.244 165.209 353.696 165.433 353.192C165.657 352.688 165.961 352.248 166.345 351.872C166.729 351.496 167.181 351.204 167.701 350.996C168.221 350.78 168.777 350.672 169.369 350.672H171.769ZM171.757 357.332C172.077 357.332 172.377 357.272 172.657 357.152C172.937 357.024 173.181 356.848 173.389 356.624C173.597 356.4 173.761 356.136 173.881 355.832C174.001 355.528 174.061 355.196 174.061 354.836C174.061 354.476 174.001 354.144 173.881 353.84C173.761 353.536 173.597 353.272 173.389 353.048C173.181 352.824 172.937 352.652 172.657 352.532C172.377 352.404 172.077 352.34 171.757 352.34H169.369C169.049 352.34 168.749 352.404 168.469 352.532C168.189 352.652 167.945 352.824 167.737 353.048C167.529 353.272 167.365 353.536 167.245 353.84C167.125 354.144 167.065 354.476 167.065 354.836C167.065 355.196 167.125 355.528 167.245 355.832C167.365 356.136 167.529 356.4 167.737 356.624C167.945 356.848 168.189 357.024 168.469 357.152C168.749 357.272 169.049 357.332 169.369 357.332H171.757ZM190.288 350.684V359.012H188.416V352.328H187.228C187.004 352.328 186.804 352.396 186.628 352.532C186.452 352.668 186.332 352.84 186.268 353.048L184.576 359.012H182.704L181.012 353.048C180.948 352.84 180.828 352.668 180.652 352.532C180.476 352.396 180.276 352.328 180.052 352.328H178.852V359.012H176.992V350.684H180.784C181.184 350.724 181.536 350.876 181.84 351.14C182.144 351.396 182.352 351.716 182.464 352.1L183.64 356.204L184.804 352.1C184.916 351.716 185.124 351.396 185.428 351.14C185.74 350.876 186.096 350.724 186.496 350.684H190.288ZM199.869 353.684C200.525 353.684 201.069 353.816 201.501 354.08C201.941 354.344 202.269 354.672 202.485 355.064C202.709 355.456 202.821 355.884 202.821 356.348C202.821 356.812 202.713 357.24 202.497 357.632C202.281 358.024 201.953 358.352 201.513 358.616C201.073 358.88 200.525 359.012 199.869 359.012H191.613V357.344H199.869C200.101 357.344 200.289 357.296 200.433 357.2C200.585 357.096 200.697 356.972 200.769 356.828C200.849 356.684 200.885 356.524 200.877 356.348C200.877 356.172 200.837 356.012 200.757 355.868C200.685 355.724 200.573 355.604 200.421 355.508C200.277 355.404 200.093 355.352 199.869 355.352H193.917C193.325 355.352 192.829 355.236 192.429 355.004C192.037 354.772 191.741 354.484 191.541 354.14C191.349 353.796 191.253 353.424 191.253 353.024C191.253 352.616 191.353 352.24 191.553 351.896C191.753 351.552 192.049 351.264 192.441 351.032C192.833 350.8 193.325 350.684 193.917 350.684H201.981V352.352H193.917C193.685 352.352 193.509 352.424 193.389 352.568C193.269 352.704 193.205 352.856 193.197 353.024C193.197 353.184 193.257 353.336 193.377 353.48C193.497 353.616 193.677 353.684 193.917 353.684H199.869ZM208.782 357.344H216.474V359.012H206.91V350.684H208.782V357.344ZM224.165 350.684C224.565 350.684 224.929 350.792 225.257 351.008C225.585 351.216 225.829 351.5 225.989 351.86L229.169 359.012H227.345L226.613 357.344H220.001L219.257 359.012H217.433L220.625 351.86C220.785 351.5 221.029 351.216 221.357 351.008C221.685 350.792 222.045 350.684 222.437 350.684H224.165ZM225.869 355.688L224.513 352.64C224.473 352.552 224.409 352.484 224.321 352.436C224.241 352.38 224.153 352.352 224.057 352.352H222.545C222.449 352.352 222.361 352.38 222.281 352.436C222.201 352.484 222.141 352.552 222.101 352.64L220.745 355.688H225.869ZM237.321 350.672V352.328H233.469V359.012H231.609V352.328H227.757V350.672H237.321ZM248.63 350.672V352.328H239.942V354.008H245.654V355.676H239.942V357.332H248.63V359.012H238.082V350.672H248.63ZM258.481 350.672H260.341V359.012H258.481V355.184L251.449 352.448V359.012H249.589V350.672H251.449L258.481 353.396V350.672ZM273.032 357.344V359.012H265.556C264.972 359.012 264.42 358.908 263.9 358.7C263.38 358.484 262.928 358.188 262.544 357.812C262.16 357.436 261.856 356.996 261.632 356.492C261.408 355.98 261.296 355.432 261.296 354.848C261.296 354.256 261.408 353.708 261.632 353.204C261.856 352.7 262.16 352.26 262.544 351.884C262.928 351.508 263.38 351.216 263.9 351.008C264.42 350.792 264.972 350.684 265.556 350.684H273.032V352.352H265.556C265.236 352.352 264.936 352.416 264.656 352.544C264.376 352.664 264.132 352.836 263.924 353.06C263.716 353.284 263.552 353.548 263.432 353.852C263.312 354.156 263.252 354.488 263.252 354.848C263.252 355.208 263.312 355.54 263.432 355.844C263.552 356.148 263.716 356.412 263.924 356.636C264.132 356.86 264.376 357.036 264.656 357.164C264.936 357.284 265.236 357.344 265.556 357.344H273.032ZM284.512 350.684H286.336L284.56 354.668C284.4 355.028 284.156 355.316 283.828 355.532C283.5 355.74 283.136 355.844 282.736 355.844H281.092V359.012H279.232V355.844H277.576C277.184 355.844 276.824 355.74 276.496 355.532C276.168 355.316 275.924 355.028 275.764 354.668L273.988 350.684H275.812L277.24 353.888C277.32 354.088 277.472 354.188 277.696 354.188H282.628C282.724 354.188 282.812 354.16 282.892 354.104C282.98 354.048 283.044 353.976 283.084 353.888L284.512 350.684ZM288.344 356.912C288.632 356.912 288.876 357.016 289.076 357.224C289.284 357.424 289.388 357.668 289.388 357.956C289.388 358.244 289.284 358.492 289.076 358.7C288.876 358.9 288.632 359 288.344 359C288.056 359 287.808 358.9 287.6 358.7C287.4 358.492 287.3 358.244 287.3 357.956C287.3 357.668 287.4 357.424 287.6 357.224C287.808 357.016 288.056 356.912 288.344 356.912ZM301.972 353.732C302.62 353.732 303.16 353.864 303.592 354.128C304.032 354.384 304.36 354.708 304.576 355.1C304.792 355.492 304.9 355.916 304.9 356.372C304.908 356.82 304.8 357.24 304.576 357.632C304.36 358.024 304.036 358.352 303.604 358.616C303.172 358.872 302.628 359 301.972 359H300.208V360.056H298.168V359H293.812V357.356H301.972C302.204 357.356 302.392 357.308 302.536 357.212C302.688 357.116 302.8 356.996 302.872 356.852C302.952 356.7 302.988 356.54 302.98 356.372C302.98 356.196 302.94 356.036 302.86 355.892C302.788 355.74 302.676 355.616 302.524 355.52C302.38 355.424 302.196 355.376 301.972 355.376H296.104C295.52 355.376 295.032 355.264 294.64 355.04C294.248 354.808 293.956 354.524 293.764 354.188C293.572 353.844 293.476 353.472 293.476 353.072C293.476 352.672 293.572 352.304 293.764 351.968C293.964 351.624 294.256 351.34 294.64 351.116C295.032 350.884 295.52 350.768 296.104 350.768H298.168V349.58H300.208V350.768H304.072V352.412H296.104C295.872 352.412 295.696 352.48 295.576 352.616C295.456 352.752 295.396 352.904 295.396 353.072C295.396 353.24 295.452 353.392 295.564 353.528C295.684 353.664 295.864 353.732 296.104 353.732H301.972ZM313.375 353.492C314.055 353.492 314.619 353.628 315.067 353.9C315.515 354.172 315.851 354.512 316.075 354.92C316.299 355.328 316.411 355.768 316.411 356.24C316.411 356.712 316.295 357.152 316.063 357.56C315.839 357.968 315.503 358.308 315.055 358.58C314.607 358.852 314.047 358.988 313.375 358.988H305.875V357.332H313.375C313.615 357.332 313.815 357.28 313.975 357.176C314.135 357.064 314.255 356.928 314.335 356.768C314.423 356.608 314.467 356.432 314.467 356.24C314.467 356.048 314.427 355.872 314.347 355.712C314.267 355.552 314.147 355.42 313.987 355.316C313.827 355.204 313.623 355.148 313.375 355.148H305.875V350.672H316.039V352.316H307.747V353.492H313.375ZM324.043 350.672C324.635 350.672 325.187 350.78 325.699 350.996C326.219 351.204 326.671 351.496 327.055 351.872C327.439 352.248 327.743 352.688 327.967 353.192C328.191 353.696 328.303 354.244 328.303 354.836C328.303 355.42 328.191 355.968 327.967 356.48C327.743 356.984 327.439 357.424 327.055 357.8C326.671 358.176 326.219 358.472 325.699 358.688C325.179 358.896 324.623 359 324.031 359H321.643C321.051 359 320.495 358.896 319.975 358.688C319.455 358.472 319.003 358.176 318.619 357.8C318.235 357.424 317.931 356.984 317.707 356.48C317.483 355.968 317.371 355.42 317.371 354.836C317.371 354.244 317.483 353.696 317.707 353.192C317.931 352.688 318.235 352.248 318.619 351.872C319.003 351.496 319.455 351.204 319.975 350.996C320.495 350.78 321.051 350.672 321.643 350.672H324.043ZM324.031 357.332C324.351 357.332 324.651 357.272 324.931 357.152C325.211 357.024 325.455 356.848 325.663 356.624C325.871 356.4 326.035 356.136 326.155 355.832C326.275 355.528 326.335 355.196 326.335 354.836C326.335 354.476 326.275 354.144 326.155 353.84C326.035 353.536 325.871 353.272 325.663 353.048C325.455 352.824 325.211 352.652 324.931 352.532C324.651 352.404 324.351 352.34 324.031 352.34H321.643C321.323 352.34 321.023 352.404 320.743 352.532C320.463 352.652 320.219 352.824 320.011 353.048C319.803 353.272 319.639 353.536 319.519 353.84C319.399 354.144 319.339 354.476 319.339 354.836C319.339 355.196 319.399 355.528 319.519 355.832C319.639 356.136 319.803 356.4 320.011 356.624C320.219 356.848 320.463 357.024 320.743 357.152C321.023 357.272 321.323 357.332 321.643 357.332H324.031ZM342.549 350.66V359H340.689V352.316H339.489C339.265 352.316 339.065 352.384 338.889 352.52C338.721 352.656 338.605 352.828 338.541 353.036L336.837 359H334.977L333.273 353.036C333.209 352.828 333.089 352.656 332.913 352.52C332.745 352.384 332.549 352.316 332.325 352.316H331.125V359H329.265V350.672H333.057C333.449 350.712 333.797 350.864 334.101 351.128C334.413 351.384 334.625 351.704 334.737 352.088L335.901 356.192L337.077 352.088C337.189 351.704 337.397 351.384 337.701 351.128C338.005 350.864 338.357 350.712 338.757 350.672V350.648L342.549 350.66ZM347.607 354.224H350.055V355.892H347.607V358.328H345.951V355.892H343.503V354.224H345.951V351.788H347.607V354.224ZM361.608 350.672C362.2 350.672 362.752 350.78 363.264 350.996C363.784 351.204 364.236 351.496 364.62 351.872C365.004 352.24 365.308 352.68 365.532 353.192C365.756 353.696 365.868 354.244 365.868 354.836C365.868 355.42 365.756 355.968 365.532 356.48C365.308 356.992 365.004 357.436 364.62 357.812C364.236 358.18 363.784 358.472 363.264 358.688C362.752 358.904 362.2 359.012 361.608 359.012H354.132V350.672H361.608ZM361.608 357.332C361.928 357.332 362.224 357.268 362.496 357.14C362.776 357.012 363.02 356.84 363.228 356.624C363.436 356.4 363.6 356.136 363.72 355.832C363.84 355.528 363.9 355.196 363.9 354.836C363.9 354.476 363.84 354.144 363.72 353.84C363.6 353.528 363.436 353.264 363.228 353.048C363.02 352.824 362.776 352.648 362.496 352.52C362.224 352.392 361.928 352.328 361.608 352.328H355.992V357.332H361.608ZM372.314 350.684C372.714 350.684 373.078 350.792 373.406 351.008C373.734 351.216 373.978 351.5 374.138 351.86L377.318 359.012H375.494L374.762 357.344H368.15L367.406 359.012H365.582L368.774 351.86C368.934 351.5 369.178 351.216 369.506 351.008C369.834 350.792 370.194 350.684 370.586 350.684H372.314ZM374.018 355.688L372.662 352.64C372.622 352.552 372.558 352.484 372.47 352.436C372.39 352.38 372.302 352.352 372.206 352.352H370.694C370.598 352.352 370.51 352.38 370.43 352.436C370.35 352.484 370.29 352.552 370.25 352.64L368.894 355.688H374.018ZM383.169 350.684V352.352H381.657V357.344H383.169V359.012H378.273V357.344H379.797V352.352H378.273V350.684H383.169ZM386.004 357.344H393.696V359.012H384.132V350.684H386.004V357.344ZM400.938 350.684H402.762L400.986 354.668C400.826 355.028 400.582 355.316 400.254 355.532C399.926 355.74 399.562 355.844 399.162 355.844H397.518V359.012H395.658V355.844H394.002C393.61 355.844 393.25 355.74 392.922 355.532C392.594 355.316 392.35 355.028 392.19 354.668L390.414 350.684H392.238L393.666 353.888C393.746 354.088 393.898 354.188 394.122 354.188H399.054C399.15 354.188 399.238 354.16 399.318 354.104C399.406 354.048 399.47 353.976 399.51 353.888L400.938 350.684ZM14.956 374.684C15.548 374.684 16.1 374.792 16.612 375.008C17.132 375.216 17.584 375.508 17.968 375.884C18.352 376.26 18.656 376.7 18.88 377.204C19.104 377.708 19.216 378.256 19.216 378.848C19.216 379.432 19.104 379.98 18.88 380.492C18.656 380.996 18.352 381.436 17.968 381.812C17.584 382.188 17.132 382.484 16.612 382.7C16.1 382.908 15.548 383.012 14.956 383.012H11.74C11.156 383.012 10.604 382.908 10.084 382.7C9.564 382.484 9.112 382.188 8.728 381.812C8.344 381.436 8.04 380.996 7.816 380.492C7.592 379.98 7.48 379.432 7.48 378.848C7.48 378.256 7.592 377.708 7.816 377.204C8.04 376.7 8.344 376.26 8.728 375.884C9.112 375.508 9.564 375.216 10.084 375.008C10.604 374.792 11.156 374.684 11.74 374.684H14.956ZM14.956 381.344C15.276 381.344 15.576 381.284 15.856 381.164C16.136 381.036 16.38 380.86 16.588 380.636C16.796 380.412 16.96 380.148 17.08 379.844C17.2 379.54 17.26 379.208 17.26 378.848C17.26 378.488 17.2 378.156 17.08 377.852C16.96 377.548 16.796 377.284 16.588 377.06C16.38 376.836 16.136 376.664 15.856 376.544C15.576 376.416 15.276 376.352 14.956 376.352H11.74C11.42 376.352 11.12 376.416 10.84 376.544C10.56 376.664 10.316 376.836 10.108 377.06C9.9 377.284 9.736 377.548 9.616 377.852C9.496 378.156 9.436 378.488 9.436 378.848C9.436 379.208 9.496 379.54 9.616 379.844C9.736 380.148 9.9 380.412 10.108 380.636C10.316 380.86 10.56 381.036 10.84 381.164C11.12 381.284 11.42 381.344 11.74 381.344H14.956ZM28.2114 374.672C28.9714 374.672 29.6034 374.828 30.1074 375.14C30.6114 375.452 30.9874 375.844 31.2354 376.316C31.4914 376.78 31.6194 377.284 31.6194 377.828C31.6194 378.372 31.4914 378.88 31.2354 379.352C30.9874 379.816 30.6114 380.204 30.1074 380.516C29.6034 380.828 28.9714 380.984 28.2114 380.984H22.0434V383.012H20.1714V374.672H28.2114ZM28.2114 379.328C28.5394 379.328 28.8114 379.256 29.0274 379.112C29.2434 378.96 29.4034 378.772 29.5074 378.548C29.6194 378.324 29.6754 378.084 29.6754 377.828C29.6754 377.572 29.6194 377.332 29.5074 377.108C29.3954 376.884 29.2314 376.7 29.0154 376.556C28.7994 376.404 28.5314 376.328 28.2114 376.328H22.0434V379.328H28.2114ZM43.1296 374.672V376.328H34.4416V378.008H40.1536V379.676H34.4416V381.332H43.1296V383.012H32.5816V374.672H43.1296ZM51.7934 374.672C52.4734 374.672 53.0494 374.8 53.5214 375.056C54.0014 375.312 54.3774 375.64 54.6494 376.04C54.9294 376.432 55.1014 376.872 55.1654 377.36C55.2374 377.84 55.2054 378.308 55.0694 378.764C54.9334 379.22 54.6934 379.636 54.3494 380.012C54.0134 380.38 53.5734 380.648 53.0294 380.816L55.5254 383H52.6934L50.8214 381.356C50.5494 381.108 50.2254 380.984 49.8494 380.984H45.9614V383.012H44.0894V374.672H51.7934ZM51.7934 379.328C52.1214 379.328 52.3934 379.256 52.6094 379.112C52.8334 378.96 52.9974 378.772 53.1014 378.548C53.2134 378.324 53.2654 378.084 53.2574 377.828C53.2574 377.572 53.2014 377.332 53.0894 377.108C52.9854 376.884 52.8214 376.7 52.5974 376.556C52.3814 376.404 52.1134 376.328 51.7934 376.328H45.9614V379.328H51.7934ZM62.5753 374.684C62.9753 374.684 63.3393 374.792 63.6673 375.008C63.9953 375.216 64.2393 375.5 64.3993 375.86L67.5793 383.012H65.7553L65.0233 381.344H58.4113L57.6673 383.012H55.8433L59.0353 375.86C59.1953 375.5 59.4393 375.216 59.7673 375.008C60.0953 374.792 60.4553 374.684 60.8473 374.684H62.5753ZM64.2793 379.688L62.9233 376.64C62.8833 376.552 62.8193 376.484 62.7313 376.436C62.6513 376.38 62.5633 376.352 62.4673 376.352H60.9553C60.8593 376.352 60.7713 376.38 60.6913 376.436C60.6113 376.484 60.5513 376.552 60.5113 376.64L59.1553 379.688H64.2793ZM75.7315 374.672V376.328H71.8795V383.012H70.0195V376.328H66.1675V374.672H75.7315ZM81.5869 374.684V376.352H80.0749V381.344H81.5869V383.012H76.6909V381.344H78.2149V376.352H76.6909V374.684H81.5869ZM90.0263 374.684C90.6183 374.684 91.1703 374.792 91.6823 375.008C92.2023 375.216 92.6543 375.508 93.0383 375.884C93.4223 376.26 93.7263 376.7 93.9503 377.204C94.1743 377.708 94.2863 378.256 94.2863 378.848C94.2863 379.432 94.1743 379.98 93.9503 380.492C93.7263 380.996 93.4223 381.436 93.0383 381.812C92.6543 382.188 92.2023 382.484 91.6823 382.7C91.1703 382.908 90.6183 383.012 90.0263 383.012H86.8103C86.2263 383.012 85.6743 382.908 85.1543 382.7C84.6343 382.484 84.1823 382.188 83.7983 381.812C83.4143 381.436 83.1103 380.996 82.8863 380.492C82.6623 379.98 82.5503 379.432 82.5503 378.848C82.5503 378.256 82.6623 377.708 82.8863 377.204C83.1103 376.7 83.4143 376.26 83.7983 375.884C84.1823 375.508 84.6343 375.216 85.1543 375.008C85.6743 374.792 86.2263 374.684 86.8103 374.684H90.0263ZM90.0263 381.344C90.3463 381.344 90.6463 381.284 90.9263 381.164C91.2063 381.036 91.4503 380.86 91.6583 380.636C91.8663 380.412 92.0303 380.148 92.1503 379.844C92.2703 379.54 92.3303 379.208 92.3303 378.848C92.3303 378.488 92.2703 378.156 92.1503 377.852C92.0303 377.548 91.8663 377.284 91.6583 377.06C91.4503 376.836 91.2063 376.664 90.9263 376.544C90.6463 376.416 90.3463 376.352 90.0263 376.352H86.8103C86.4903 376.352 86.1903 376.416 85.9103 376.544C85.6303 376.664 85.3863 376.836 85.1783 377.06C84.9703 377.284 84.8063 377.548 84.6863 377.852C84.5663 378.156 84.5063 378.488 84.5063 378.848C84.5063 379.208 84.5663 379.54 84.6863 379.844C84.8063 380.148 84.9703 380.412 85.1783 380.636C85.3863 380.86 85.6303 381.036 85.9103 381.164C86.1903 381.284 86.4903 381.344 86.8103 381.344H90.0263ZM104.134 374.672H105.994V383.012H104.134V379.184L97.1017 376.448V383.012H95.2417V374.672H97.1017L104.134 377.396V374.672ZM115.565 377.684C116.221 377.684 116.765 377.816 117.197 378.08C117.637 378.344 117.965 378.672 118.181 379.064C118.405 379.456 118.517 379.884 118.517 380.348C118.517 380.812 118.409 381.24 118.193 381.632C117.977 382.024 117.649 382.352 117.209 382.616C116.769 382.88 116.221 383.012 115.565 383.012H107.309V381.344H115.565C115.797 381.344 115.985 381.296 116.129 381.2C116.281 381.096 116.393 380.972 116.465 380.828C116.545 380.684 116.581 380.524 116.573 380.348C116.573 380.172 116.533 380.012 116.453 379.868C116.381 379.724 116.269 379.604 116.117 379.508C115.973 379.404 115.789 379.352 115.565 379.352H109.613C109.021 379.352 108.525 379.236 108.125 379.004C107.733 378.772 107.437 378.484 107.237 378.14C107.045 377.796 106.949 377.424 106.949 377.024C106.949 376.616 107.049 376.24 107.249 375.896C107.449 375.552 107.745 375.264 108.137 375.032C108.529 374.8 109.021 374.684 109.613 374.684H117.677V376.352H109.613C109.381 376.352 109.205 376.424 109.085 376.568C108.965 376.704 108.901 376.856 108.893 377.024C108.893 377.184 108.953 377.336 109.073 377.48C109.193 377.616 109.373 377.684 109.613 377.684H115.565ZM120.532 380.912C120.82 380.912 121.064 381.016 121.264 381.224C121.472 381.424 121.576 381.668 121.576 381.956C121.576 382.244 121.472 382.492 121.264 382.7C121.064 382.9 120.82 383 120.532 383C120.244 383 119.996 382.9 119.788 382.7C119.588 382.492 119.488 382.244 119.488 381.956C119.488 381.668 119.588 381.424 119.788 381.224C119.996 381.016 120.244 380.912 120.532 380.912Z" fill="#FFFDFD"/>
</svg>
