<svg width="135" height="128" viewBox="0 0 135 128" fill="none" xmlns="http://www.w3.org/2000/svg">
<g filter="url(#filter0_d_4207_2)">
<path d="M38.0469 86.0961L28.9705 72.1538L69.4259 45.8173C73.2286 43.3688 77.1318 42.1161 81.1353 42.0589C85.1198 42.0142 88.9221 43.0644 92.5422 45.2094C96.15 47.3353 99.2992 50.4649 101.99 54.5981C104.371 58.2551 105.896 61.9941 106.567 65.8152C107.225 69.6173 106.788 73.2782 105.255 76.7979C103.711 80.2985 100.837 83.4032 96.6341 86.1121L87.4647 72.0269C88.9322 70.9902 90.0319 69.8676 90.7637 68.6589C91.4641 67.4437 91.7771 66.1958 91.7029 64.9153C91.6286 63.6348 91.1699 62.347 90.3267 61.0518C89.4464 59.6995 88.4167 58.7427 87.2377 58.1813C86.0397 57.6324 84.7143 57.4919 83.2615 57.7597C81.7963 58.0084 80.2099 58.6751 78.5023 59.7596L38.0469 86.0961Z" fill="#07C189"/>
<path d="M38.0469 86.0961L28.9705 72.1538L69.4259 45.8173C73.2286 43.3688 77.1318 42.1161 81.1353 42.0589C85.1198 42.0142 88.9221 43.0644 92.5422 45.2094C96.15 47.3353 99.2992 50.4649 101.99 54.5981C104.371 58.2551 105.896 61.9941 106.567 65.8152C107.225 69.6173 106.788 73.2782 105.255 76.7979C103.711 80.2985 100.837 83.4032 96.6341 86.1121L87.4647 72.0269C88.9322 70.9902 90.0319 69.8676 90.7637 68.6589C91.4641 67.4437 91.7771 66.1958 91.7029 64.9153C91.6286 63.6348 91.1699 62.347 90.3267 61.0518C89.4464 59.6995 88.4167 58.7427 87.2377 58.1813C86.0397 57.6324 84.7143 57.4919 83.2615 57.7597C81.7963 58.0084 80.2099 58.6751 78.5023 59.7596L38.0469 86.0961Z" fill="black" fill-opacity="0.2"/>
</g>
<g filter="url(#filter1_d_4207_2)">
<path d="M40.8266 31.5317L54.8982 22.657L80.6492 63.4877C83.0427 67.3253 84.2391 71.246 84.2385 75.25C84.2259 79.2347 83.121 83.0215 80.9241 86.6104C78.7464 90.1871 75.5718 93.2909 71.4003 95.9218C67.7094 98.2496 63.9487 99.7212 60.1184 100.337C56.3072 100.94 52.653 100.45 49.1558 98.8672C45.6777 97.2721 42.6147 94.3539 39.9667 90.1126L54.1825 81.147C55.1979 82.6293 56.3046 83.745 57.5026 84.4942C58.7077 85.212 59.9509 85.543 61.2323 85.4872C62.5137 85.4314 63.808 84.9913 65.1152 84.1669C66.4801 83.3061 67.4516 82.2903 68.0299 81.1195C68.596 79.9295 68.7556 78.6063 68.5088 77.1498C68.2812 75.6811 67.6375 74.0853 66.5777 72.3623L40.8266 31.5317Z" fill="#07C189"/>
<path d="M40.8266 31.5317L54.8982 22.657L80.6492 63.4877C83.0427 67.3253 84.2391 71.246 84.2385 75.25C84.2259 79.2347 83.121 83.0215 80.9241 86.6104C78.7464 90.1871 75.5718 93.2909 71.4003 95.9218C67.7094 98.2496 63.9487 99.7212 60.1184 100.337C56.3072 100.94 52.653 100.45 49.1558 98.8672C45.6777 97.2721 42.6147 94.3539 39.9667 90.1126L54.1825 81.147C55.1979 82.6293 56.3046 83.745 57.5026 84.4942C58.7077 85.212 59.9509 85.543 61.2323 85.4872C62.5137 85.4314 63.808 84.9913 65.1152 84.1669C66.4801 83.3061 67.4516 82.2903 68.0299 81.1195C68.596 79.9295 68.7556 78.6063 68.5088 77.1498C68.2812 75.6811 67.6375 74.0853 66.5777 72.3623L40.8266 31.5317Z" fill="black" fill-opacity="0.2"/>
</g>
<defs>
<filter id="filter0_d_4207_2" x="24.9707" y="33.542" width="93.8535" height="87.3813" filterUnits="userSpaceOnUse" color-interpolation-filters="sRGB">
<feFlood flood-opacity="0" result="BackgroundImageFix"/>
<feColorMatrix in="SourceAlpha" type="matrix" values="0 0 0 0 0 0 0 0 0 0 0 0 0 0 0 0 0 0 127 0" result="hardAlpha"/>
<feOffset dy="4"/>
<feGaussianBlur stdDeviation="2"/>
<feComposite in2="hardAlpha" operator="out"/>
<feColorMatrix type="matrix" values="0 0 0 0 0 0 0 0 0 0 0 0 0 0 0 0 0 0 0.25 0"/>
<feBlend mode="normal" in2="BackgroundImageFix" result="effect1_dropShadow_4207_2"/>
<feBlend mode="normal" in="SourceGraphic" in2="effect1_dropShadow_4207_2" result="shape"/>
</filter>
<filter id="filter1_d_4207_2" x="9.75" y="22.6572" width="86.9023" height="93.8125" filterUnits="userSpaceOnUse" color-interpolation-filters="sRGB">
<feFlood flood-opacity="0" result="BackgroundImageFix"/>
<feColorMatrix in="SourceAlpha" type="matrix" values="0 0 0 0 0 0 0 0 0 0 0 0 0 0 0 0 0 0 127 0" result="hardAlpha"/>
<feOffset dy="4"/>
<feGaussianBlur stdDeviation="2"/>
<feComposite in2="hardAlpha" operator="out"/>
<feColorMatrix type="matrix" values="0 0 0 0 0 0 0 0 0 0 0 0 0 0 0 0 0 0 0.25 0"/>
<feBlend mode="normal" in2="BackgroundImageFix" result="effect1_dropShadow_4207_2"/>
<feBlend mode="normal" in="SourceGraphic" in2="effect1_dropShadow_4207_2" result="shape"/>
</filter>
</defs>
</svg>
    