<svg width="2345" height="1276" viewBox="0 0 2345 1276" fill="none" xmlns="http://www.w3.org/2000/svg">
<rect x="0.5" y="0.5" width="2344" height="1275" fill="#040F0F" stroke="#248232"/>
<mask id="mask0_403_146" style="mask-type:alpha" maskUnits="userSpaceOnUse" x="0" y="0" width="2345" height="1276">
<rect width="2345" height="1276" fill="#040F0F"/>
<rect x="0.5" y="0.5" width="2344" height="1275" stroke="white" stroke-opacity="0.31"/>
</mask>
<g mask="url(#mask0_403_146)">
<path d="M1085.77 103.945C1055.7 18.8351 875.711 -37.2309 892.027 128.527C894.702 155.706 891.26 201.822 881 257.438C871.602 308.385 771.226 328.167 735.474 391.99C679.405 492.083 849.544 579.632 816.801 631.971C773.914 700.523 658.712 722.055 593.107 755.977C531.347 787.911 488.952 843.971 469.411 903.65C435.128 1008.35 471.183 1124.19 596.406 1140.44C659.092 1148.58 744.123 1131.76 853.861 1076.1C902.926 1051.21 946.048 1030.93 984.209 1014.81C1082.43 973.32 1047.15 1088.21 1158.55 1102C1222.02 1109.85 1297.17 1014.47 1342.91 1072.64C1375.43 1114.01 1412.54 1164 1467.12 1216.79C1562.98 1309.5 1690.75 1332.81 1719.22 1214.54C1732.66 1158.71 1723.97 1071.34 1679.35 944.817C1650.8 863.852 1738.17 874.047 1756.81 774.989C1775.46 675.93 1696.85 622.835 1760.14 586.56L1761.41 585.834C1809.65 558.188 1861.1 528.703 1893.15 466.395C1920.76 412.723 1923.29 357.455 1906.24 313.373C1888 266.195 1847.33 231.83 1790.99 225.944C1734.46 220.039 1662.14 242.806 1580.86 310.073C1527.28 354.423 1503.46 238.604 1413.91 242.624C1324.35 246.645 1302.72 354.604 1252.37 318.478C1164.9 255.725 1120.99 203.623 1085.77 103.945Z" fill="#040F0F" stroke="#248232" stroke-opacity="0.47" stroke-width="3"/>
<path d="M1226.43 566.212C1221.86 553.151 1195.28 554.218 1192.78 567.74C1189.94 583.137 1197.44 604.154 1195.05 619.625C1190.41 649.498 1177.19 656.989 1150.95 670.711C1141.55 675.62 1135.09 684.23 1132.11 693.394C1126.88 709.47 1132.35 727.248 1151.41 729.729C1160.95 730.971 1173.89 728.38 1190.6 719.823C1198.07 715.997 1204.63 712.879 1210.44 710.4C1235.82 698.581 1257.41 711.367 1265.03 719.238C1269.98 725.584 1275.62 733.253 1283.92 741.351C1298.5 755.572 1322.39 755.902 1322.29 740.978C1322.14 719.894 1286.78 638.236 1331.92 628.358C1352.89 623.77 1353.44 609.386 1350.85 602.621C1348.08 595.381 1341.9 590.11 1333.32 589.213C1324.72 588.313 1309.42 599.099 1301.33 602.151C1271.49 613.418 1245.3 618.328 1226.43 566.212Z" fill="#040F0F" stroke="#248232" stroke-opacity="0.47" stroke-width="3"/>
<path d="M919.646 166.838C905.485 15.999 1069.96 67.2808 1097.53 145.305C1131.3 240.698 1173.63 287.66 1255.93 343.74C1302.11 376.47 1322.33 277.935 1404.35 274.011C1486.37 270.086 1508.58 375.238 1557.73 334.929C1632.46 273.81 1698.82 253.572 1750.51 259.599C1801.89 265.259 1838.94 297.003 1855.32 340.378C1870.61 380.938 1867.82 431.649 1841.75 480.687C1808.23 538.761 1764.07 572.929 1719.86 600.177C1662.28 633.853 1733.25 682.489 1715.59 772.615C1697.92 862.74 1617.54 853.135 1642.86 926.157C1682.7 1040.54 1690.09 1119.34 1677.41 1169.56C1651.16 1276.81 1534.25 1255.13 1446.16 1170.54C1395.63 1122.26 1360.8 1076.76 1330.06 1039.66C1287.91 986.952 1218.93 1074.02 1160.5 1067.21C1058.39 1055.05 1089.81 950.775 999.851 988.663C964.537 1003.47 924.79 1021.95 879.714 1044.54C778.132 1094.96 700.266 1108.65 643.704 1099.8C529.902 1084.6 497.31 978.802 528.79 883.192C546.858 828.542 585.791 777.234 642.413 747.959C704.49 715.859 810.513 695.594 849.953 630.53C879.854 582.213 724.932 501.735 775.835 409.846C808.253 350.957 899.475 332.138 908.156 285.09C917.604 233.88 921.396 191.595 919.646 166.838Z" fill="#040F0F" stroke="#248232" stroke-opacity="0.47" stroke-width="3"/>
<path d="M948.513 206.768C936.504 71.3389 1085.23 117.694 1110.27 188.381C1142.55 279.173 1183.25 320.85 1260.27 370.088C1302.22 399.324 1320.97 310.539 1395.34 306.736C1469.7 302.933 1490.29 397.079 1534.93 360.949C1603 306.189 1663.3 288.556 1710.07 294.691C1756.42 300.115 1789.8 329.138 1804.3 368.572C1817.81 405.477 1814.78 451.465 1790.28 495.704C1755.63 548.801 1719.46 587.551 1679.71 614.089C1627.93 645.047 1691.18 689.075 1674.53 769.97C1657.87 850.866 1584.61 841.87 1606.67 906.715C1641.69 1008.59 1647.79 1078.57 1635.9 1123.01C1611.92 1218.89 1506.02 1198.9 1425.83 1122.68C1379.42 1079.07 1346.91 1038.2 1317.98 1005.47C1279.48 958.404 1216.8 1036.85 1163.49 1031.11C1070.8 1020.6 1098.31 927.283 1016.75 961.432C984.337 974.871 948.027 991.488 907.009 1011.69C813.742 1056.69 743.156 1067.21 692.801 1057.66C590.585 1043.54 561.489 948.134 590.105 861.931C606.663 812.493 642.071 766.109 693.465 739.598C751.919 709.439 848.602 690.525 884.527 629.172C911.534 585.041 772.045 511.874 817.693 428.5C846.72 374.743 928.651 356.963 936.593 313.972C945.207 267.337 949.338 229.022 948.513 206.768Z" fill="#040F0F" stroke="#248232" stroke-opacity="0.47" stroke-width="3"/>
<path d="M976.124 245.08C966.273 124.571 1099.48 166.14 1122.02 229.741C1152.84 316.247 1191.97 352.784 1263.82 395.349C1301.59 421.19 1318.93 341.829 1385.75 338.121C1452.58 334.414 1471.57 417.892 1511.76 385.803C1573.28 337.191 1627.63 322.087 1669.55 328.343C1710.94 333.541 1740.7 359.942 1753.32 395.573C1765.08 428.955 1761.78 470.386 1738.82 509.991C1702.97 558.307 1674.73 601.77 1639.38 627.697C1593.31 656.057 1648.94 695.626 1633.25 767.587C1617.57 839.549 1551.31 831.144 1570.13 888.045C1600.37 977.776 1605.17 1039.18 1594.04 1078.02C1572.28 1162.87 1477.24 1144.52 1404.82 1076.42C1362.47 1037.33 1332.23 1000.94 1305.08 972.478C1270.18 930.878 1213.67 1001 1165.41 996.318C1082.01 987.438 1105.66 904.73 1032.37 935.278C1002.8 947.403 969.868 962.221 932.84 980.125C847.734 1019.87 784.317 1027.27 740.091 1017.01C649.305 1003.95 623.676 918.584 649.488 841.471C664.571 797.061 696.517 755.429 742.769 731.576C797.696 703.241 885.194 685.594 917.671 627.729C941.833 587.62 817.573 521.526 858.052 446.356C883.742 397.533 956.513 380.716 963.736 341.625C971.538 299.396 976.021 264.911 976.124 245.08Z" fill="#040F0F" stroke="#248232" stroke-opacity="0.47" stroke-width="3"/>
<path d="M1005.1 283.506C997.447 177.925 1114.89 214.688 1134.87 271.197C1164.18 353.418 1201.66 384.806 1268.21 420.682C1301.74 443.12 1317.63 373.185 1376.8 369.563C1435.98 365.94 1453.32 438.743 1489 410.69C1543.87 368.22 1592.16 355.639 1629.17 362.01C1665.52 366.978 1691.6 390.751 1702.33 422.577C1712.3 452.433 1708.74 489.307 1687.35 524.28C1650.35 567.82 1630.08 616.014 1599.19 641.34C1558.91 667.108 1606.8 702.208 1592.11 765.234C1577.41 828.261 1518.28 820.456 1533.81 869.406C1559.2 946.985 1562.68 999.813 1552.33 1033.04C1532.82 1106.87 1448.81 1090.17 1384.31 1030.2C1346.09 995.634 1318.19 963.735 1292.86 939.543C1261.62 903.419 1211.39 965.229 1168.26 961.605C1094.29 954.368 1114.06 882.273 1049.15 909.229C1022.48 920.046 992.979 933.069 960.005 948.676C883.202 983.189 827.065 987.474 789.048 976.499C709.855 964.499 687.751 889.192 710.725 821.167C724.314 781.787 752.747 744.902 793.779 723.702C845.089 697.18 923.25 680.787 952.23 626.401C973.511 590.312 864.709 531.311 899.959 464.342C922.273 420.449 985.758 404.583 992.255 369.392C999.238 331.568 1004.07 300.914 1005.1 283.506Z" fill="#040F0F" stroke="#248232" stroke-opacity="0.47" stroke-width="3"/>
<path d="M1033.93 323.612C1028.44 233.191 1130.12 265.087 1147.56 314.383C1175.36 392.139 1211.19 418.316 1272.44 447.436C1301.73 466.428 1316.17 406.076 1367.68 402.558C1419.19 399.041 1434.9 461.01 1466.07 437.062C1514.27 400.838 1556.51 390.817 1588.6 397.296C1619.9 402.027 1642.31 423.126 1651.16 451.078C1659.35 477.344 1655.53 509.578 1635.72 539.837C1597.6 578.498 1585.3 631.307 1558.87 655.967C1524.39 679.079 1564.55 709.641 1550.86 763.59C1537.16 817.539 1485.15 810.341 1497.41 851.235C1517.97 916.496 1520.15 960.63 1510.58 988.177C1493.33 1050.81 1420.35 1035.79 1363.75 984.068C1329.66 954.093 1304.1 926.752 1280.6 906.878C1253.02 876.306 1209.07 929.653 1171.07 927.09C1106.54 921.498 1122.41 860.18 1065.9 883.472C1042.13 892.951 1016.07 904.145 987.151 917.415C918.665 946.602 869.812 947.753 838.002 936.083C770.401 925.162 751.807 860.071 771.929 801.291C784.016 767.029 808.927 734.98 844.733 716.487C892.412 691.848 961.229 676.759 986.701 625.981C1005.09 593.995 911.741 542.198 941.748 483.584C960.68 444.724 1014.87 429.857 1020.64 398.645C1026.79 365.313 1031.97 338.558 1033.93 323.612Z" fill="#040F0F" stroke="#248232" stroke-opacity="0.47" stroke-width="3"/>
<path d="M1061.51 361.919C1058.19 286.43 1144.31 313.537 1159.24 355.743C1185.59 429.226 1219.85 450.257 1275.91 472.693C1301.02 488.286 1314.05 437.365 1358.01 433.941C1401.97 430.517 1416.07 481.809 1442.79 461.905C1484.43 431.833 1520.7 424.344 1547.93 430.946C1574.27 435.453 1593.05 453.928 1600.02 478.076C1606.45 500.818 1602.37 528.492 1584.1 554.114C1544.77 587.995 1540.41 645.549 1518.39 669.607C1489.63 690.121 1522.14 716.22 1509.42 761.228C1496.7 806.236 1451.71 799.629 1460.72 832.57C1476.49 885.676 1477.36 921.228 1468.55 943.16C1453.53 994.766 1391.42 981.373 1342.62 937.779C1312.59 912.324 1289.31 889.473 1267.59 873.868C1243.61 848.771 1205.85 893.791 1172.9 892.285C1117.68 888.325 1129.68 837.629 1081.45 857.318C1060.53 865.483 1037.85 874.877 1012.93 885.845C952.62 909.783 910.948 907.804 885.281 895.413C829.131 885.545 814.012 830.507 831.325 780.823C841.936 751.593 863.379 724.297 894.035 708.465C938.184 685.644 997.799 671.82 1019.82 624.522C1035.36 596.559 957.267 551.838 982.096 501.433C997.685 467.507 1042.7 453.599 1047.75 426.289C1053.09 397.363 1058.62 374.44 1061.51 361.919Z" fill="#040F0F" stroke="#248232" stroke-opacity="0.47" stroke-width="3"/>
<path d="M1090.44 400.338C1089.3 339.796 1159.64 362.091 1172.02 397.199C1196.82 466.417 1229.41 482.287 1280.15 498.016C1301.01 510.201 1312.59 468.715 1348.88 465.374C1385.17 462.034 1397.62 502.634 1419.82 486.772C1454.81 462.849 1485.01 457.889 1507.32 464.611C1528.61 468.888 1543.71 484.736 1548.79 505.077C1553.43 524.291 1549.09 547.405 1532.4 568.391C1491.96 597.5 1495.54 659.831 1477.98 683.297C1455.01 701.22 1479.79 722.847 1468.07 758.909C1456.34 794.971 1418.48 788.963 1424.22 813.94C1435.14 854.875 1434.71 881.835 1426.67 898.147C1413.9 938.714 1362.84 926.971 1321.97 891.517C1296.09 870.592 1275.15 852.24 1255.27 840.914C1234.96 821.304 1203.48 857.999 1175.68 857.558C1129.9 855.246 1138.01 815.18 1098.18 831.274C1080.18 838.13 1060.94 845.727 1040.08 854.396C988.091 873.092 953.712 867.984 934.256 854.87C889.707 846.066 878.113 801.093 892.584 760.507C901.696 736.311 919.621 713.767 945.049 700.589C985.556 679.574 1035.82 667 1054.34 623.17C1067 599.227 1004.37 561.603 1023.97 519.405C1036.18 490.412 1071.91 477.452 1076.23 454.042C1080.75 429.524 1086.62 410.434 1090.44 400.338Z" fill="#040F0F" stroke="#248232" stroke-opacity="0.47" stroke-width="3"/>
<path d="M1118.47 438.678C1119.49 393.099 1174.44 410.613 1184.34 438.624C1207.77 503.613 1238.89 514.328 1284.6 523.359C1301.32 532.141 1311.51 500.106 1340.33 496.864C1369.15 493.622 1380.03 523.523 1397.83 511.718C1426.33 493.969 1450.63 491.558 1468.13 498.414C1484.5 502.473 1496 515.701 1499.22 532.235C1502.11 547.923 1497.5 566.472 1482.3 582.81C1440.52 607.13 1452.11 674.292 1438.92 697.168C1421.64 712.491 1438.82 729.654 1428.04 756.754C1417.26 783.854 1386.33 778.427 1388.83 795.429C1394.98 824.179 1393.24 842.532 1385.95 853.211C1375.38 882.716 1335.08 872.598 1301.9 845.273C1280.01 828.869 1261.29 815.012 1243.13 807.964C1226.38 793.839 1201.02 822.187 1178.2 822.801C1141.63 822.12 1145.87 792.702 1114.24 805.179L1113.36 805.499C1098.43 810.939 1082.81 816.628 1066.23 822.862C1022.3 836.284 995.023 828.018 981.674 814.162C948.487 806.399 940.338 771.493 952.025 740.021C959.678 720.866 974.171 703.086 994.502 692.576C1031.59 673.381 1072.76 662.078 1087.86 621.711C1097.7 601.796 1050.19 571.241 1064.64 537.264C1073.53 513.209 1100.15 501.211 1103.75 481.703C1107.47 461.596 1113.71 446.344 1118.47 438.678Z" fill="#040F0F" stroke="#248232" stroke-opacity="0.47" stroke-width="3"/>
<path d="M1147.17 478.82C1150.37 448.405 1189.48 461.043 1196.82 481.831C1218.7 542.29 1248.11 547.796 1288.43 550.08C1300.9 555.415 1309.61 532.969 1330.74 529.832C1351.86 526.696 1361.08 545.763 1374.35 538.062C1396.15 526.557 1414.37 526.698 1426.92 533.653C1438.23 537.47 1446.05 548.015 1447.38 560.669C1448.49 572.759 1443.63 586.662 1430.03 598.283C1387.22 617.714 1406.73 689.395 1398.01 711.582C1386.55 724.24 1395.98 736.858 1386.22 754.879C1376.46 772.901 1352.7 768.087 1351.93 777.039C1353.24 793.477 1350.2 803.142 1343.71 808.143C1335.41 826.462 1306.19 818.024 1280.97 798.958C1263.24 787.155 1246.89 777.858 1230.59 775.124C1217.52 766.551 1198.48 786.432 1180.82 788.105C1153.73 789.066 1154.08 770.425 1130.88 779.238C1118.61 783.435 1106.17 787.396 1093.34 791.417C1057.79 799.519 1037.83 788.141 1030.7 773.61C1009.14 766.934 1004.51 742.253 1013.33 720.032C1019.47 706 1030.42 693.06 1045.5 685.26C1078.9 667.96 1110.67 657.968 1122.25 621.244C1129.18 605.442 1097.18 582.107 1106.38 556.498C1111.87 537.487 1129.17 526.496 1132.04 510.978C1134.93 495.371 1141.5 484.023 1147.17 478.82Z" fill="#040F0F" stroke="#248232" stroke-opacity="0.47" stroke-width="3"/>
<path d="M1176.49 517.32C1181.85 501.961 1205.25 509.764 1210.06 523.392C1230.41 579.456 1258.16 579.778 1293.18 575.338C1301.41 577.247 1308.68 564.315 1322.18 561.278C1335.67 558.24 1343.25 566.544 1352.02 562.919C1367.18 557.616 1379.37 560.301 1387.02 567.367C1393.31 570.953 1397.47 578.844 1396.91 587.654C1396.25 596.183 1391.14 605.482 1379.12 612.425C1335.22 627.024 1362.63 703.353 1358.36 724.897C1352.66 734.925 1354.4 743.038 1345.65 752.045C1336.89 761.052 1320.23 756.841 1316.2 757.787C1312.71 761.983 1308.38 763.008 1302.66 762.359C1296.62 769.561 1278.39 762.783 1261.05 751.913C1247.45 744.672 1233.43 739.904 1218.96 741.466C1209.54 738.41 1196.76 749.891 1184.22 752.624C1166.53 755.225 1163 747.289 1148.17 752.468C1138.79 755.339 1129.78 757.485 1121 759.186C1093.74 762.001 1081.04 747.497 1080.09 732.265C1070.07 726.658 1068.94 712.121 1074.92 699.077C1079.56 690.125 1087.01 681.982 1096.88 676.867C1126.64 661.422 1149.1 652.715 1157.18 619.548C1161.24 607.814 1144.63 591.63 1148.61 574.312C1150.74 560.292 1158.79 550.283 1160.93 538.71C1162.99 527.557 1169.9 520.079 1176.49 517.32Z" fill="#040F0F" stroke="#248232" stroke-opacity="0.47" stroke-width="3"/>
<path d="M1788.94 -869.643C1758.86 -954.752 1578.87 -1010.82 1595.19 -845.06C1597.86 -817.881 1594.42 -771.766 1584.16 -716.15C1574.76 -665.203 1474.39 -645.42 1438.64 -581.598C1382.57 -481.505 1552.71 -393.955 1519.96 -341.616C1477.08 -273.065 1361.87 -251.533 1296.27 -217.61C1234.51 -185.676 1192.12 -129.617 1172.57 -69.9379C1138.29 34.7616 1174.35 150.602 1299.57 166.856C1362.25 174.994 1447.29 158.175 1557.02 102.511C1606.09 77.6239 1649.21 57.3421 1687.37 41.2223C1785.59 -0.267176 1750.31 114.621 1861.71 128.41C1925.18 136.267 2000.33 40.8821 2046.07 99.0562C2078.6 140.421 2115.7 190.411 2170.29 243.202C2266.14 335.912 2393.91 359.223 2422.38 240.956C2435.82 185.127 2427.13 97.7491 2382.51 -28.7704C2353.96 -109.736 2441.34 -99.54 2459.98 -198.599C2478.62 -297.658 2400.01 -350.753 2463.31 -387.027L2464.57 -387.754C2512.82 -415.399 2564.27 -444.884 2596.32 -507.192C2623.93 -560.864 2626.45 -616.132 2609.41 -660.214C2591.16 -707.392 2550.49 -741.758 2494.15 -747.643C2437.62 -753.549 2365.31 -730.781 2284.03 -663.514C2230.44 -619.164 2206.62 -734.984 2117.07 -730.963C2027.52 -726.943 2005.88 -618.983 1955.53 -655.109C1868.06 -717.863 1824.16 -769.964 1788.94 -869.643Z" fill="#040F0F" stroke="#248232" stroke-opacity="0.47" stroke-width="3"/>
<path d="M1622.81 -806.749C1608.65 -957.588 1773.13 -906.307 1800.7 -828.283C1834.46 -732.889 1876.79 -685.928 1959.09 -629.848C2005.27 -597.117 2025.49 -695.652 2107.51 -699.577C2189.53 -703.501 2211.74 -598.349 2260.89 -638.659C2335.62 -699.778 2401.98 -720.015 2453.67 -713.989C2505.06 -708.328 2542.1 -676.585 2558.48 -633.209C2573.77 -592.65 2570.99 -541.938 2544.91 -492.9C2511.39 -434.826 2467.23 -400.658 2423.02 -373.411C2365.44 -339.734 2436.42 -291.098 2418.75 -200.973C2401.08 -110.847 2320.7 -120.452 2346.02 -47.4308C2385.86 66.9481 2393.25 145.754 2380.58 195.975C2354.33 303.221 2237.41 281.545 2149.33 196.951C2098.8 148.676 2063.97 103.172 2033.22 66.0692C1991.07 13.3645 1922.1 100.428 1863.66 93.624C1761.55 81.4638 1792.98 -22.8126 1703.01 15.0754C1667.7 29.8818 1627.95 48.3646 1582.88 70.9511C1481.29 121.369 1403.43 135.066 1346.87 126.212C1233.06 111.009 1200.47 5.21493 1231.95 -90.3952C1250.02 -145.045 1288.95 -196.354 1345.58 -225.629C1407.65 -257.728 1513.68 -277.993 1553.12 -343.057C1583.02 -391.374 1428.09 -471.853 1479 -563.741C1511.42 -622.631 1602.64 -641.45 1611.32 -688.497C1620.77 -739.708 1624.56 -781.993 1622.81 -806.749Z" fill="#040F0F" stroke="#248232" stroke-opacity="0.47" stroke-width="3"/>
<path d="M1651.68 -766.819C1639.67 -902.248 1788.4 -855.893 1813.44 -785.207C1845.71 -694.414 1886.42 -652.738 1963.43 -603.499C2005.38 -574.263 2024.13 -663.049 2098.5 -666.852C2172.86 -670.654 2193.46 -576.509 2238.09 -612.638C2306.16 -667.398 2366.46 -685.031 2413.23 -678.896C2459.58 -673.472 2492.96 -644.449 2507.46 -605.016C2520.98 -568.111 2517.94 -522.123 2493.45 -477.883C2458.79 -424.786 2422.62 -386.037 2382.87 -359.499C2331.09 -328.54 2394.35 -284.512 2377.69 -203.617C2361.04 -122.722 2287.78 -131.718 2309.83 -66.8727C2344.85 34.9994 2350.95 104.978 2339.06 149.426C2315.08 245.298 2209.19 225.311 2128.99 149.096C2082.58 105.487 2050.07 64.611 2021.14 31.8865C1982.64 -15.1838 1919.96 63.2626 1866.65 57.5243C1773.97 47.0158 1801.48 -46.304 1719.91 -12.1553C1687.5 1.28363 1651.19 17.9006 1610.17 38.1055C1516.9 83.0984 1446.32 93.6198 1395.96 84.0724C1293.75 69.9544 1264.65 -25.4529 1293.27 -111.656C1309.83 -161.095 1345.23 -207.478 1396.63 -233.989C1455.08 -264.149 1551.76 -283.062 1587.69 -344.416C1614.7 -388.547 1475.21 -461.713 1520.86 -545.088C1549.88 -598.845 1631.81 -616.624 1639.76 -659.615C1648.37 -706.25 1652.5 -744.566 1651.68 -766.819Z" fill="#040F0F" stroke="#248232" stroke-opacity="0.47" stroke-width="3"/>
<path d="M1679.29 -728.508C1669.44 -849.017 1802.64 -807.447 1825.18 -743.847C1856 -657.34 1895.13 -620.804 1966.98 -578.239C2004.76 -552.398 2022.09 -631.759 2088.91 -635.466C2155.74 -639.173 2174.73 -555.695 2214.92 -587.784C2276.44 -636.396 2330.79 -651.5 2372.71 -645.245C2414.1 -640.046 2443.86 -613.645 2456.49 -578.014C2468.25 -544.632 2464.94 -503.201 2441.99 -463.596C2406.13 -415.28 2377.89 -371.818 2342.54 -345.89C2296.47 -317.53 2352.1 -277.962 2336.41 -206C2320.73 -134.039 2254.47 -142.444 2273.29 -85.5425C2303.53 4.18848 2308.33 65.5946 2297.2 104.435C2275.44 189.286 2180.4 170.935 2107.99 102.836C2065.63 63.7436 2035.4 27.3531 2008.24 -1.10892C1973.34 -42.7098 1916.84 27.4154 1868.58 22.7302C1785.18 13.8506 1808.83 -68.8573 1735.53 -38.3098C1705.96 -26.1842 1673.03 -11.3663 1636 6.53773C1550.9 46.2854 1487.48 53.6861 1443.25 43.4228C1352.47 30.3577 1326.84 -55.0033 1352.65 -132.117C1367.73 -176.526 1399.68 -218.158 1445.93 -242.011C1500.86 -270.347 1588.36 -287.993 1620.83 -345.859C1645 -385.968 1520.74 -452.061 1561.21 -527.231C1586.9 -576.055 1659.68 -592.871 1666.9 -631.962C1674.7 -674.191 1679.18 -708.677 1679.29 -728.508Z" fill="#040F0F" stroke="#248232" stroke-opacity="0.47" stroke-width="3"/>
<path d="M1708.27 -690.082C1700.61 -795.663 1818.05 -758.9 1838.03 -702.391C1867.34 -620.17 1904.82 -588.781 1971.37 -552.905C2004.9 -530.467 2020.8 -600.403 2079.97 -604.025C2139.14 -607.647 2156.48 -534.844 2192.16 -562.897C2247.03 -605.367 2295.33 -617.948 2332.33 -611.577C2368.68 -606.61 2394.76 -582.836 2405.5 -551.01C2415.47 -521.154 2411.9 -484.28 2390.51 -449.307C2353.52 -405.767 2333.24 -357.573 2302.35 -332.248C2262.08 -306.479 2309.97 -271.38 2295.27 -208.353C2280.57 -145.327 2221.44 -153.132 2236.97 -104.182C2262.36 -26.6026 2265.85 26.2257 2255.49 59.4572C2235.98 133.285 2151.97 116.583 2087.47 56.6148C2049.25 22.0465 2021.35 -9.85195 1996.03 -34.0445C1964.79 -70.1679 1914.55 -8.35873 1871.42 -11.9826C1797.45 -19.2196 1817.22 -91.3141 1752.31 -64.3583C1725.64 -53.5418 1696.14 -40.5189 1663.17 -24.9111C1586.36 9.6015 1530.23 13.8866 1492.21 2.91111C1413.02 -9.08809 1390.91 -84.3956 1413.89 -152.42C1427.48 -191.801 1455.91 -228.685 1496.94 -249.885C1548.25 -276.407 1626.41 -292.8 1655.39 -347.186C1676.67 -383.275 1567.87 -442.276 1603.12 -509.246C1625.44 -553.139 1688.92 -569.004 1695.42 -604.195C1702.4 -642.019 1707.23 -672.674 1708.27 -690.082Z" fill="#040F0F" stroke="#248232" stroke-opacity="0.47" stroke-width="3"/>
<path d="M1737.09 -649.976C1731.61 -740.397 1833.28 -708.5 1850.72 -659.205C1878.52 -581.449 1914.36 -555.272 1975.6 -526.151C2004.89 -507.159 2019.33 -567.511 2070.84 -571.029C2122.36 -574.547 2138.06 -512.577 2169.23 -536.525C2217.44 -572.75 2259.67 -582.771 2291.76 -576.292C2323.07 -571.56 2345.48 -550.461 2354.32 -522.509C2362.51 -496.243 2358.7 -464.01 2338.88 -433.751C2300.76 -395.089 2288.46 -342.28 2262.03 -317.62C2227.55 -294.508 2267.71 -263.947 2254.02 -209.998C2240.33 -156.048 2188.32 -163.247 2200.58 -122.352C2221.14 -57.0918 2223.31 -12.9572 2213.74 14.5898C2196.49 77.2271 2123.51 62.1977 2066.92 10.4802C2032.83 -19.4941 2007.26 -46.8349 1983.76 -66.7094C1956.18 -97.2812 1912.23 -43.9345 1874.23 -46.4971C1809.7 -52.0895 1825.57 -113.407 1769.06 -90.1149C1745.29 -80.6367 1719.23 -69.4428 1690.31 -56.1722C1621.83 -26.9851 1572.97 -25.8344 1541.16 -37.5041C1473.56 -48.4253 1454.97 -113.516 1475.09 -172.297C1487.18 -206.558 1512.09 -238.608 1547.9 -257.1C1595.58 -281.74 1664.39 -296.828 1689.86 -347.607C1708.26 -379.592 1614.9 -431.39 1644.91 -490.003C1663.84 -528.863 1718.04 -543.73 1723.8 -574.942C1729.96 -608.275 1735.13 -635.03 1737.09 -649.976Z" fill="#040F0F" stroke="#248232" stroke-opacity="0.47" stroke-width="3"/>
<path d="M1764.67 -611.669C1761.35 -687.157 1847.48 -660.05 1862.41 -617.845C1888.75 -544.361 1923.01 -523.331 1979.08 -500.894C2004.19 -485.301 2017.21 -536.222 2061.17 -539.646C2105.13 -543.071 2119.23 -491.779 2145.95 -511.683C2187.6 -541.755 2223.86 -549.243 2251.09 -542.641C2277.43 -538.135 2296.21 -519.659 2303.18 -495.511C2309.61 -472.77 2305.53 -445.095 2287.26 -419.473C2247.93 -385.593 2243.57 -328.038 2221.55 -303.981C2192.79 -283.466 2225.31 -257.368 2212.59 -212.359C2199.87 -167.351 2154.87 -173.959 2163.88 -141.018C2179.65 -87.9116 2180.53 -52.3595 2171.71 -30.4271C2156.69 21.1787 2094.58 7.78579 2045.78 -35.8084C2015.75 -61.263 1992.47 -84.114 1970.75 -99.7198C1946.77 -124.816 1909.01 -79.7961 1876.07 -81.3027C1820.84 -85.2623 1832.84 -135.958 1784.61 -116.269C1763.69 -108.104 1741.01 -98.7104 1716.09 -87.7422C1655.78 -63.8047 1614.11 -65.783 1588.44 -78.1744C1532.29 -88.0425 1517.17 -143.08 1534.49 -192.765C1545.1 -221.994 1566.54 -249.29 1597.2 -265.123C1641.35 -287.943 1700.96 -301.767 1722.98 -349.066C1738.52 -377.028 1660.43 -421.749 1685.26 -472.154C1700.85 -506.08 1745.86 -519.988 1750.91 -547.299C1756.25 -576.224 1761.78 -599.147 1764.67 -611.669Z" fill="#040F0F" stroke="#248232" stroke-opacity="0.47" stroke-width="3"/>
<path d="M2159.54 1557.24C2236.05 1509.34 2251.54 1321.46 2093.32 1373.51C2067.38 1382.04 2021.62 1388.73 1965.11 1390.84C1913.34 1392.77 1872.16 1299.12 1802.08 1278.14C1692.17 1245.23 1643.8 1430.36 1585.59 1409.81C1509.34 1382.9 1463.21 1275.16 1415.81 1218.52C1371.18 1165.21 1307.23 1136.05 1244.73 1129.98C1135.07 1119.34 1029.88 1179.78 1041.3 1305.53C1047.02 1368.49 1081.97 1447.81 1160.21 1542.78C1195.2 1585.24 1224.39 1622.9 1248.44 1656.63C1310.34 1743.45 1190.52 1734.06 1201.34 1845.78C1207.51 1909.44 1316.98 1962 1270.17 2019.32C1236.89 2060.07 1196.19 2107.18 1156.56 2171.96C1086.97 2285.72 1092.07 2415.49 1213.7 2417.5C1271.11 2418.45 1354.49 2390.93 1468.25 2319.81C1541.04 2274.3 1550.14 2361.79 1650.88 2358.4C1751.62 2355 1786.31 2266.72 1835.5 2320.58L1836.49 2321.66C1873.98 2362.72 1913.97 2406.5 1981.77 2424.21C2040.17 2439.45 2094.66 2429.87 2133.96 2403.63C2176.03 2375.54 2200.71 2328.36 2194.17 2272.09C2187.61 2215.63 2149.63 2150.02 2066.27 2085.35C2011.31 2042.72 2119.15 1994.23 2095.71 1907.71C2072.27 1821.18 1962.19 1823.6 1986.47 1766.58C2028.66 1667.54 2069.93 1613.34 2159.54 1557.24Z" fill="#040F0F" stroke="#248232" stroke-opacity="0.47" stroke-width="3"/>
<path d="M2061.95 1408.81C2206.08 1362.12 2191.88 1533.82 2121.74 1577.73C2036 1631.47 1999.39 1683.02 1962.6 1775.56C1940.72 1827.77 2041.29 1826.02 2062.99 1905.22C2084.7 1984.41 1986.92 2029.01 2036.97 2068.19C2112.91 2127.81 2147.12 2188.16 2152.5 2239.92C2158.18 2291.3 2135.27 2334.38 2096.51 2359.82C2060.26 2383.58 2010.16 2391.91 1956.62 2377.15C1892.63 2357.09 1849.66 2321.44 1813.43 2284.23C1768.02 2235.37 1736.02 2315.24 1644.21 2317.64C1552.4 2320.04 1544.26 2239.51 1478.51 2280.13C1375.56 2343.94 1300.26 2368.33 1248.48 2366.9C1138.1 2364.66 1133.77 2245.82 1197.13 2141.42C1233.23 2081.59 1270.05 2037.67 1299.56 1999.58C1341.82 1946.96 1241.81 1898.62 1235.72 1840.11C1225.33 1737.8 1333.95 1745.74 1277.36 1666.2C1255.22 1634.96 1228.52 1600.2 1196.65 1561.13C1125.3 1472.98 1094.97 1399.97 1091.28 1342.84C1081.31 1228.46 1177.46 1173.59 1277.64 1183.48C1334.91 1189.2 1393.47 1216.01 1434.38 1264.89C1479.24 1318.48 1522.12 1417.54 1594.22 1441.85C1647.89 1460.5 1692.67 1291.77 1793.44 1321.42C1857.98 1340.22 1896.23 1425.15 1944.04 1423.37C1996.08 1421.43 2038.17 1415.91 2061.95 1408.81Z" fill="#040F0F" stroke="#248232" stroke-opacity="0.47" stroke-width="3"/>
<path d="M2029.27 1445.69C2158.83 1404.45 2146 1559.71 2082.47 1599.55C2000.9 1650.84 1969.1 1699.65 1937.83 1785.54C1918.44 1832.86 2009.17 1831.81 2029.09 1903.56C2049.01 1975.3 1961.62 2015.92 2006.61 2051.61C2074.88 2106.1 2105.24 2161.12 2109.44 2208.1C2114.25 2254.52 2093.2 2293.42 2057.87 2316.16C2024.8 2337.4 1979.26 2344.46 1930.74 2330.19C1871.37 2307.94 1825.67 2281.09 1791.1 2248.08C1749.61 2204.29 1720.42 2275.62 1637.84 2277C1555.26 2278.37 1548.07 2204.91 1489.59 2240.57C1397.8 2296.95 1330.84 2318.16 1284.87 2316.24C1186.07 2313.73 1182.5 2206.03 1239.4 2111.15C1271.85 2056.35 1304.66 2015.71 1330.29 1980.35C1367.84 1932.51 1277.62 1888.43 1271.6 1835.16C1261.66 1742.41 1358.73 1748.92 1307.62 1676.76C1287.44 1648.05 1263.31 1616.24 1234.65 1580.61C1170.42 1499.39 1144.76 1432.79 1143.11 1381.57C1134.61 1278.73 1221.38 1229.54 1311.75 1238.68C1363.61 1244.07 1416.59 1268.52 1453.67 1312.9C1495.84 1363.37 1535.37 1453.61 1603.08 1475.3C1652.04 1492.04 1693.04 1339.96 1784.36 1366.34C1843.15 1382.95 1878.36 1459.04 1922.05 1457.42C1969.44 1455.66 2007.74 1451.34 2029.27 1445.69Z" fill="#040F0F" stroke="#248232" stroke-opacity="0.47" stroke-width="3"/>
<path d="M1997.9 1480.98C2113.37 1445.11 2101.83 1584.17 2044.67 1620.03C1966.96 1668.96 1939.83 1715.12 1913.95 1794.51C1896.96 1837.01 1978.19 1836.63 1996.37 1901.04C2014.56 1965.46 1937.22 2002.18 1977.3 2034.41C2038.15 2083.86 2064.74 2133.61 2067.77 2175.89C2071.71 2217.41 2052.43 2252.21 2020.41 2272.3C1990.39 2291.05 1949.24 2296.86 1905.58 2283.09C1850.61 2258.62 1802.04 2240.53 1769.03 2211.68C1731.32 2172.9 1704.82 2235.82 1631.17 2236.19C1557.52 2236.57 1551.28 2170.07 1499.85 2200.84C1418.87 2249.91 1359.98 2267.97 1319.65 2265.58C1232.1 2262.84 1229.3 2166.08 1279.97 2080.56C1308.9 2030.71 1337.82 1993.27 1359.68 1960.57C1392.68 1917.44 1311.92 1877.57 1305.98 1829.45C1296.47 1746.12 1382.34 1751.18 1336.55 1686.3C1318.28 1660.09 1296.64 1631.18 1271.09 1598.94C1213.75 1524.54 1192.71 1464.26 1193.09 1418.86C1186.05 1327.41 1263.77 1283.79 1344.66 1292.18C1391.29 1297.22 1438.88 1319.33 1472.24 1359.27C1511.87 1406.7 1548.16 1488.25 1611.71 1507.33C1656.12 1522.17 1693.55 1386.49 1775.73 1409.62C1828.98 1424.05 1861.25 1491.41 1900.98 1489.94C1943.89 1488.35 1978.52 1485.21 1997.9 1480.98Z" fill="#040F0F" stroke="#248232" stroke-opacity="0.47" stroke-width="3"/>
<path d="M1966.72 1517.64C2068.09 1487.16 2057.81 1609.79 2007.01 1641.61C1933.15 1688.13 1910.69 1731.55 1890.18 1804.32C1875.59 1841.93 1947.31 1842.2 1963.74 1899.16C1980.17 1956.12 1912.89 1988.91 1948.05 2017.63C2001.46 2061.92 2024.26 2106.31 2026.11 2143.82C2029.18 2180.37 2011.66 2211.01 1982.94 2228.42C1955.98 2244.66 1919.21 2249.22 1880.42 2235.97C1829.86 2209.35 1778.41 2200.06 1746.96 2175.44C1713.03 2141.74 1689.22 2196.13 1624.5 2195.52C1559.79 2194.92 1554.52 2135.51 1510.13 2161.33C1439.95 2203.02 1389.15 2217.93 1354.46 2215.07C1278.15 2212.12 1276.14 2126.49 1320.61 2050.47C1346.02 2005.63 1371.07 1971.45 1389.16 1941.46C1417.61 1903.1 1346.34 1867.55 1340.48 1824.66C1331.42 1750.9 1406.09 1754.47 1365.63 1697C1349.26 1673.33 1330.12 1647.38 1307.71 1618.6C1257.28 1551.16 1240.87 1497.31 1243.29 1457.81C1237.74 1377.91 1306.42 1339.92 1377.82 1347.52C1419.22 1352.2 1461.41 1371.91 1491.04 1407.34C1528.11 1451.63 1561.14 1524.34 1620.54 1540.77C1660.4 1553.68 1694.27 1434.63 1767.31 1454.44C1815.01 1466.65 1844.33 1525.15 1880.09 1523.82C1918.53 1522.39 1949.5 1520.43 1966.72 1517.64Z" fill="#040F0F" stroke="#248232" stroke-opacity="0.47" stroke-width="3"/>
<path d="M2195.65 348.811C2158.44 266.556 1974.32 225.937 2004.7 389.714C2009.68 416.568 2010.18 462.808 2004.7 519.092C1999.68 570.651 1901.35 598.862 1871.17 665.482C1823.83 769.962 2000.82 842.785 1972.65 897.709C1935.76 969.644 1822.81 1000.86 1760.34 1040.21C1701.52 1077.26 1664.06 1136.71 1649.67 1197.83C1624.44 1305.05 1670.23 1417.42 1796.39 1423.01C1859.54 1425.81 1942.83 1401.85 2047.43 1337.09C2094.2 1308.14 2135.43 1284.28 2172.08 1264.98C2266.41 1215.33 2241.05 1332.79 2353.22 1337.09C2417.13 1339.54 2483.88 1238.14 2534.42 1292.23C2570.35 1330.69 2611.58 1377.36 2670.47 1425.33C2773.88 1509.59 2903.17 1522 2921.46 1401.74C2930.09 1344.98 2913.99 1258.65 2858.75 1136.37C2823.4 1058.12 2911.33 1060.87 2921.46 960.595C2931.59 860.316 2848.74 814.07 2908.71 772.566L2909.92 771.735C2955.63 740.104 3004.38 706.368 3031 641.57C3053.94 585.754 3051.75 530.472 3031 487.993C3008.8 442.531 2965.35 411.734 2908.71 410.642C2851.88 409.546 2781.77 438.355 2706.52 512.263C2656.9 560.991 2623.3 447.607 2534.42 459.198C2445.53 470.788 2433.18 580.19 2379.93 548.459C2287.43 493.34 2239.24 445.146 2195.65 348.811Z" fill="#040F0F" stroke="#248232" stroke-opacity="0.47" stroke-width="3"/>
<path d="M2375.19 797.495C2369.53 784.867 2343.13 788.182 2341.8 801.867C2340.28 817.449 2349.55 837.754 2348.48 853.373C2346.41 883.529 2333.87 892.114 2308.89 908.008C2299.94 913.696 2294.24 922.822 2292.05 932.205C2288.21 948.666 2295.18 965.916 2314.38 966.774C2323.99 967.204 2336.67 963.526 2352.59 953.584C2359.7 949.14 2365.98 945.477 2371.56 942.515C2395.84 928.589 2418.43 939.501 2426.7 946.697C2432.17 952.602 2438.44 959.766 2447.4 967.131C2463.14 980.066 2486.97 978.371 2485.6 963.51C2483.66 942.515 2441.46 864.146 2485.6 850.481C2506.1 844.133 2505.43 829.755 2502.27 823.234C2498.89 816.254 2492.28 811.527 2483.66 811.359C2475.01 811.191 2460.68 823.234 2452.89 826.959C2424.12 840.713 2398.44 847.823 2375.19 797.495Z" fill="#040F0F" stroke="#248232" stroke-opacity="0.47" stroke-width="3"/>
<path d="M2035.48 425.546C2008.52 276.452 2176.77 313.618 2210.89 389.025C2252.67 481.214 2298.85 524.42 2385.63 573.327C2434.43 602.029 2446.18 502.138 2527.57 491.28C2608.95 480.423 2640.05 583.314 2685.59 538.988C2754.84 471.76 2819.23 445.976 2871.25 447.603C2922.93 448.891 2962.55 477.382 2982.57 519.213C3001.26 558.331 3002.8 609.095 2981 660.164C2952.55 720.868 2911.46 758.652 2869.73 789.546C2815.23 827.977 2890.1 870.426 2880.17 961.722C2870.25 1053.02 2789.35 1050.25 2820.8 1120.87C2870.24 1231.46 2884.32 1309.35 2875.97 1360.47C2858.96 1469.55 2740.61 1457.85 2645.64 1381.03C2591.18 1337.2 2552.59 1294.81 2518.8 1260.45C2472.31 1211.51 2411 1304.1 2352.2 1302.27C2249.42 1298.8 2271.85 1192.24 2185.44 1237.61C2151.52 1255.35 2113.49 1277.13 2070.5 1303.46C1973.58 1362.3 1897.16 1382.54 1840.05 1378.51C1725.37 1373 1683.88 1270.34 1707.09 1172.41C1720.44 1116.43 1754.86 1062.01 1808.78 1028.05C1867.9 990.805 1971.81 961.634 2005.56 893.465C2031.24 842.79 1870.02 775.723 1912.9 679.856C1940.19 618.434 2029.47 591.957 2034.11 544.344C2039.16 492.519 2039.34 450.065 2035.48 425.546Z" fill="#040F0F" stroke="#248232" stroke-opacity="0.47" stroke-width="3"/>
<path d="M2067.65 462.887C2044.14 328.965 2196.29 362.556 2227.26 430.866C2267.16 518.597 2311.27 556.676 2392.2 599.213C2436.49 624.791 2447.6 534.738 2521.38 524.651C2595.15 514.564 2623.69 606.625 2665.08 566.845C2728.24 506.519 2786.82 483.842 2833.95 485.994C2880.59 487.473 2916.32 513.564 2934.13 551.627C2950.74 587.254 2951.63 633.333 2931 679.486C2901 735.327 2868.26 776.999 2830.92 806.808C2781.96 842.04 2848.74 880.551 2839.04 962.565C2829.34 1044.58 2755.58 1041.82 2783.08 1104.56C2826.66 1203.1 2838.7 1272.31 2830.64 1317.6C2814.92 1415.16 2707.7 1404.21 2621.3 1335.07C2571.34 1295.54 2535.47 1257.57 2503.85 1227.41C2461.48 1183.77 2405.71 1267.25 2352.11 1266.04C2258.86 1263.42 2278.32 1168.11 2199.96 1209.04C2168.81 1225.18 2134.04 1244.81 2094.9 1268.42C2005.8 1321.15 1936.37 1337.61 1885.38 1332.36C1782.33 1326.95 1745.21 1234.35 1766.37 1146.04C1778.66 1095.37 1809.99 1046.16 1858.94 1015.39C1914.61 980.391 2009.33 953.357 2039.9 889.183C2063.04 842.924 1917.82 781.836 1956.2 694.897C1980.54 638.876 2060.66 614.222 2064.91 570.714C2069.52 523.518 2070.37 484.991 2067.65 462.887Z" fill="#040F0F" stroke="#248232" stroke-opacity="0.47" stroke-width="3"/>
<path d="M2098.43 498.722C2078.34 379.483 2214.61 409.621 2242.48 471.083C2280.57 554.665 2322.67 587.756 2397.89 624.082C2437.73 646.63 2448.23 566.088 2514.5 556.734C2580.77 547.381 2606.81 628.949 2644.12 593.571C2701.27 539.925 2754.14 520.273 2796.44 522.955C2838.12 524.63 2870.02 548.415 2885.64 582.847C2900.2 615.113 2900.45 656.673 2880.95 698.08C2849.34 749.258 2824.9 794.955 2791.89 823.783C2748.41 855.942 2807.2 890.656 2797.71 963.686C2788.21 1036.72 2721.48 1033.95 2745.08 1089.05C2782.86 1175.9 2792.87 1236.68 2785.09 1276.32C2770.65 1362.71 2674.39 1352.47 2596.43 1290.75C2550.89 1255.39 2517.67 1221.69 2488.19 1195.63C2449.87 1157.14 2399.54 1231.79 2351.06 1231.21C2267.2 1229.43 2283.72 1145.02 2213.29 1181.66C2184.86 1196.25 2153.31 1213.8 2117.94 1234.78C2036.53 1281.59 1973.98 1294.33 1929.04 1287.85C1837.46 1282.52 1804.65 1199.64 1823.8 1120.62C1835.04 1075.09 1863.33 1030.91 1907.38 1003.22C1959.69 970.338 2045.37 945.345 2072.8 884.938C2093.45 842.928 1964.01 787.597 1997.94 709.271C2019.37 658.448 2090.45 635.529 2094.31 595.968C2098.49 553.231 2100.01 518.49 2098.43 498.722Z" fill="#040F0F" stroke="#248232" stroke-opacity="0.47" stroke-width="3"/>
<path d="M2130.58 534.555C2113.95 430.004 2234.1 456.687 2258.83 511.299C2295.03 590.741 2335.06 618.841 2404.42 648.952C2439.74 668.469 2449.62 597.44 2508.27 588.819C2566.92 580.199 2590.4 651.27 2623.56 620.296C2674.61 573.332 2721.66 556.707 2759.08 559.921C2795.72 561.792 2823.73 583.271 2837.14 614.072C2849.62 642.976 2849.21 680.018 2830.88 716.676C2797.72 763.192 2781.63 812.929 2753.01 840.779C2715.08 869.866 2765.78 900.782 2756.51 964.825C2747.24 1028.87 2687.66 1026.1 2707.3 1073.56C2739.22 1148.71 2747.19 1201.05 2739.7 1235.04C2726.56 1310.25 2641.42 1300.72 2572.05 1246.44C2531.02 1215.23 2500.5 1185.81 2473.21 1163.85C2439 1130.5 2394.22 1196.34 2350.93 1196.38C2276.62 1195.44 2290.16 1121.93 2227.79 1154.29C2202.14 1167.32 2173.86 1182.8 2142.33 1201.14C2068.75 1242.03 2013.18 1251.06 1974.36 1243.34C1894.43 1238.09 1865.99 1164.93 1883.08 1095.2C1893.27 1054.82 1918.45 1015.66 1957.53 991.058C2006.4 960.286 2082.88 937.332 2107.12 880.689C2125.25 842.927 2011.81 793.354 2041.22 723.642C2059.72 678.018 2121.62 656.833 2125.09 621.218C2128.83 582.94 2131.03 551.987 2130.58 534.555Z" fill="#040F0F" stroke="#248232" stroke-opacity="0.47" stroke-width="3"/>
<path d="M2162.71 572.074C2149.54 482.444 2253.57 505.615 2275.15 553.255C2309.47 628.375 2347.41 651.423 2410.91 675.251C2441.72 691.693 2450.96 630.336 2501.99 622.468C2553.01 614.601 2573.94 675.016 2602.96 648.515C2647.9 608.339 2689.14 594.777 2721.66 598.515C2753.26 600.578 2777.38 619.702 2788.58 646.804C2798.98 672.281 2797.92 704.721 2780.76 736.549C2746.07 778.299 2738.31 831.959 2714.08 858.768C2681.7 884.717 2724.32 911.767 2715.27 966.681C2706.23 1021.59 2653.79 1018.83 2669.49 1058.54C2695.54 1121.82 2701.47 1165.61 2694.28 1193.87C2682.43 1257.74 2608.43 1248.95 2547.63 1202.21C2511.11 1175.23 2483.31 1150.15 2458.21 1132.34C2428.12 1104.21 2388.87 1161.09 2350.79 1161.76C2286.02 1161.65 2296.6 1099.21 2242.28 1127.2C2219.41 1138.66 2194.39 1152.02 2166.71 1167.69C2100.96 1202.57 2052.38 1207.86 2019.7 1198.92C1951.41 1193.77 1927.33 1130.49 1942.37 1070.22C1951.5 1035.05 1973.59 1001.01 2007.69 979.553C2053.09 950.964 2120.38 930.102 2141.43 877.35C2157.03 843.922 2059.6 800.218 2084.5 739.275C2100.05 698.952 2152.78 679.549 2155.87 647.962C2159.16 614.228 2162.04 587.132 2162.71 572.074Z" fill="#040F0F" stroke="#248232" stroke-opacity="0.47" stroke-width="3"/>
<path d="M2193.46 607.907C2183.72 532.973 2271.84 552.688 2290.32 593.476C2322.83 664.462 2358.76 682.515 2416.53 700.122C2442.88 713.532 2451.52 661.692 2495.03 654.557C2538.53 647.422 2556.95 697.335 2581.88 675.24C2620.81 641.749 2656.31 631.216 2684.01 635.488C2710.63 637.747 2730.92 654.566 2739.93 678.036C2748.27 700.15 2746.56 728.071 2730.54 755.148C2694.24 792.237 2694.8 849.952 2674.91 875.787C2648.01 898.663 2682.63 921.914 2673.79 967.837C2664.95 1013.76 2619.55 1010.99 2631.34 1043.05C2651.58 1094.62 2655.48 1129.97 2648.57 1152.57C2637.99 1205.26 2574.97 1197.18 2522.63 1157.88C2490.54 1135.06 2465.39 1114.26 2442.43 1100.55C2416.4 1077.58 2382.61 1125.63 2349.65 1126.92C2294.29 1127.65 2301.92 1076.12 2255.55 1099.83C2235.4 1109.73 2213.61 1121.01 2189.71 1134.05C2131.66 1163.01 2089.97 1164.57 2063.34 1154.4C2006.55 1149.32 1986.79 1095.76 1999.81 1044.79C2007.89 1014.77 2026.93 985.756 2056.13 967.384C2098.17 940.907 2156.39 922.084 2174.3 873.092C2187.41 843.913 2105.78 805.969 2126.22 753.643C2138.87 718.519 2182.54 700.849 2185.23 673.209C2188.09 643.936 2191.65 620.628 2193.46 607.907Z" fill="#040F0F" stroke="#248232" stroke-opacity="0.47" stroke-width="3"/>
<path d="M2225.56 643.737C2219.27 583.51 2291.26 599.767 2306.58 633.7C2337.19 700.567 2371.01 713.619 2422.91 724.994C2444.73 735.368 2452.73 693.052 2488.61 686.65C2524.49 680.247 2540.35 719.647 2561.12 701.961C2593.94 675.162 2623.61 667.662 2646.41 672.47C2667.99 674.928 2684.38 689.44 2691.18 709.278C2697.44 728.029 2695.09 751.427 2680.24 773.751C2642.43 806.18 2651.31 867.982 2635.81 892.85C2614.46 912.654 2640.99 932.104 2632.38 969.029C2623.77 1005.95 2585.54 1003.17 2593.38 1027.57C2607.76 1067.44 2609.62 1094.34 2603.01 1111.27C2593.74 1152.77 2541.86 1145.39 2498.11 1113.53C2470.54 1094.87 2448.11 1078.36 2427.34 1068.76C2405.44 1050.94 2377.2 1090.17 2349.46 1092.08C2303.65 1093.66 2308.32 1053.05 2270 1072.46C2252.64 1080.81 2234.12 1090.01 2214.08 1100.42C2163.87 1123.45 2129.18 1121.27 2108.68 1109.85C2063.54 1104.85 2048.16 1061.03 2059.12 1019.36C2066.13 994.48 2082.07 970.499 2106.28 955.215C2144.85 930.846 2193.86 914.061 2208.58 868.82C2219.15 843.893 2153.55 811.708 2169.48 768.003C2179.18 738.08 2213.67 722.141 2215.98 698.45C2218.39 673.638 2222.62 654.12 2225.56 643.737Z" fill="#040F0F" stroke="#248232" stroke-opacity="0.47" stroke-width="3"/>
<path d="M2256.76 679.564C2253.89 634.063 2310.13 646.86 2322.38 673.932C2351.27 736.701 2383.19 744.742 2429.5 749.87C2446.92 757.203 2454.33 724.421 2482.77 718.75C2511.21 713.079 2524.6 741.95 2541.33 728.68C2568.22 708.582 2592.23 704.121 2610.25 709.47C2626.9 712.128 2639.49 724.334 2644.11 740.536C2648.32 755.922 2645.31 774.795 2631.55 792.362C2592 820.132 2609.27 886.069 2598.08 909.979C2582.17 926.71 2600.75 942.357 2592.32 970.272C2583.89 998.187 2552.61 995.399 2556.54 1012.13C2565.12 1040.25 2564.95 1058.69 2558.6 1069.94C2550.58 1100.24 2509.57 1093.57 2474.17 1069.15C2450.97 1054.66 2431.13 1042.44 2412.44 1036.96C2394.54 1024.3 2371.7 1054.69 2349.01 1057.24C2312.51 1059.66 2314.23 1029.99 2283.78 1045.1L2282.93 1045.49C2268.51 1052.18 2253.44 1059.17 2237.45 1066.78C2194.82 1083.88 2166.94 1077.95 2152.46 1065.28C2118.73 1060.35 2107.63 1026.26 2116.6 993.915C2122.59 974.181 2135.51 955.238 2154.88 943.044C2190.19 920.777 2230.26 906.027 2241.86 864.528C2249.96 843.852 2200.03 817.431 2211.53 782.353C2218.33 757.632 2243.83 743.423 2245.76 723.68C2247.75 703.331 2252.67 687.606 2256.76 679.564Z" fill="#040F0F" stroke="#248232" stroke-opacity="0.47" stroke-width="3"/>
<path d="M2288.78 717.13C2289.37 686.555 2329.42 695.835 2338.5 715.926C2365.45 774.314 2395.23 777.309 2435.6 776.169C2448.47 780.429 2455.25 757.326 2476.03 752.412C2496.81 747.498 2507.62 765.714 2520.18 756.918C2540.93 743.609 2559.09 742.206 2572.19 748.072C2583.79 750.918 2592.47 760.763 2594.87 773.258C2597.01 785.21 2593.35 799.475 2580.79 812.206C2539.79 835.192 2565.34 904.961 2558.55 927.806C2548.2 941.39 2558.68 953.163 2550.49 971.946C2542.3 990.729 2518.21 987.945 2518.21 996.931C2520.92 1013.2 2518.72 1023.08 2512.67 1028.62C2505.96 1047.57 2476.13 1041.64 2449.37 1024.78C2430.71 1014.52 2413.62 1006.64 2397.15 1005.3C2383.39 997.863 2366.12 1019.29 2348.67 1022.45C2321.75 1025.7 2320.51 1007.1 2298.15 1017.84C2286.28 1023.06 2274.22 1028.06 2261.78 1033.16C2227.05 1044.24 2206.19 1034.59 2197.85 1020.72C2175.8 1015.89 2169.08 991.695 2175.98 968.806C2180.9 954.305 2190.71 940.484 2205.07 931.435C2236.87 911.37 2267.68 898.722 2276.08 861.151C2281.64 844.818 2247.77 824.278 2254.75 797.983C2258.61 778.575 2274.91 766.159 2276.44 750.453C2277.99 734.659 2283.57 722.796 2288.78 717.13Z" fill="#040F0F" stroke="#248232" stroke-opacity="0.47" stroke-width="3"/>
<path d="M2321.27 753.008C2325.3 737.251 2349.29 743.044 2355.24 756.215C2380.29 810.353 2407.97 808.324 2442.48 800.934C2450.85 802.139 2456.99 788.638 2470.18 784.468C2483.36 780.299 2491.63 787.931 2500.05 783.576C2514.71 777.008 2527.08 778.652 2535.3 785.044C2541.88 788.084 2546.69 795.595 2546.89 804.42C2546.96 812.973 2542.66 822.672 2531.27 830.608C2488.78 848.872 2522.59 922.604 2520.17 944.432C2515.35 954.905 2517.78 962.842 2509.82 972.558C2501.86 982.274 2484.9 979.49 2480.97 980.773C2477.85 985.249 2473.62 986.638 2467.87 986.475C2462.46 994.163 2443.72 988.953 2425.51 979.592C2411.35 973.529 2396.97 969.965 2382.69 972.747C2373.04 970.5 2361.28 983.022 2349.02 986.807C2331.62 990.897 2327.43 983.288 2313.1 989.704C2304 993.36 2295.2 996.261 2286.59 998.7C2259.67 1003.81 2245.78 990.438 2243.53 975.341C2233.07 970.603 2230.71 956.214 2235.55 942.71C2239.42 933.398 2246.14 924.654 2255.54 918.721C2283.88 900.811 2305.52 890.234 2310.74 856.502C2313.79 844.467 2295.86 829.748 2298.35 812.156C2299.28 798.005 2306.45 787.351 2307.59 775.638C2308.7 764.352 2314.94 756.316 2321.27 753.008Z" fill="#040F0F" stroke="#248232" stroke-opacity="0.47" stroke-width="3"/>
<path d="M167.664 962.731C191.715 1049.72 367.35 1118.15 362.658 951.663C361.889 924.365 368.545 878.601 382.667 823.832C395.603 773.662 497.117 760.899 537.242 699.714C600.17 603.758 436.563 504.605 472.885 454.667C520.458 389.261 636.886 375.782 704.702 346.498C768.543 318.931 814.753 265.952 838.417 207.775C879.934 105.711 852.062 -12.3512 728.279 -37.2633C666.314 -49.7342 580.315 -38.8621 466.953 9.04508C416.268 30.4646 371.834 47.7024 332.638 61.1326C231.757 95.6999 274.98 -16.459 164.819 -37.9507C102.05 -50.1964 20.4129 39.7369 -21.1502 -21.4724C-50.7038 -64.9956 -84.2267 -117.441 -134.987 -173.895C-224.132 -273.036 -349.96 -305.164 -386.625 -189.162C-403.934 -134.402 -401.373 -46.6329 -365.706 82.678C-342.881 165.429 -429.332 149.19 -454.85 246.714C-480.368 344.238 -405.666 402.662 -471.339 434.453L-472.654 435.09C-522.711 459.318 -576.098 485.158 -612.425 545.089C-643.717 596.713 -650.102 651.671 -636.176 696.83C-621.272 745.16 -583.105 782.266 -527.311 792.051C-471.329 801.868 -397.6 784.178 -311.818 722.719C-255.261 682.198 -239.597 799.391 -149.98 801.6C-60.3626 803.808 -31.2367 697.614 16.4686 737.149C99.3365 805.824 139.497 860.848 167.664 962.731Z" fill="#040F0F" stroke="#248232" stroke-opacity="0.47" stroke-width="3"/>
<path d="M59.6586 491.818C63.3018 505.165 89.8943 505.947 93.3306 492.631C97.2431 477.469 91.2225 455.981 94.6969 440.714C101.405 411.236 115.124 404.682 142.256 392.815C151.979 388.571 159.024 380.43 162.638 371.496C168.978 355.822 164.76 337.707 145.923 333.908C136.493 332.007 123.4 333.693 106.135 341.069C98.4156 344.367 91.6484 347.021 85.6794 349.091C59.5356 359.119 38.8956 344.864 31.8435 336.483C27.3538 329.809 22.2617 321.766 14.5466 313.112C0.997436 297.913 -22.8119 295.925 -23.754 310.82C-25.0849 331.862 4.48716 415.778 -41.234 422.497C-62.4721 425.618 -64.0306 439.928 -61.9201 446.857C-59.6613 454.271 -53.8592 459.959 -45.3684 461.449C-36.8489 462.945 -20.83 453.248 -12.5525 450.765C18.0047 441.597 44.4719 438.518 59.6586 491.818Z" fill="#040F0F" stroke="#248232" stroke-opacity="0.47" stroke-width="3"/>
<path d="M337.783 911.528C341.368 1062.98 180.874 1000.4 158.824 920.654C131.807 823.148 92.8592 773.36 14.6814 711.701C-29.1011 675.843 -56.1531 772.735 -138.248 770.953C-220.344 769.172 -235.154 662.733 -287.002 699.531C-365.824 755.311 -433.436 770.891 -484.58 761.289C-535.442 752.074 -570.182 717.834 -583.491 673.427C-595.91 631.904 -589.583 581.509 -560.146 534.401C-522.646 478.796 -476.207 447.779 -430.199 423.667C-370.403 394.072 -437.811 340.625 -413.887 251.945C-389.964 163.266 -310.454 178.43 -330.606 103.827C-362.358 -13.0408 -364.224 -92.1683 -348.067 -141.387C-314.386 -246.549 -199.268 -216.806 -117.31 -126.3C-70.2764 -74.6334 -38.7106 -26.8205 -10.6319 12.327C27.7284 67.8307 102.622 -14.2306 160.436 -3.38533C261.453 15.8372 222.816 117.678 315.207 86.1296C351.471 73.8117 392.412 58.1342 438.958 38.7331C543.816 -4.50801 622.45 -12.7635 678.256 -0.00282079C790.719 23.0667 815.838 130.867 777.752 224.059C755.91 277.321 713.485 325.801 654.955 351.073C590.786 378.783 483.604 391.635 439.713 453.803C406.508 499.926 555.429 590.968 498.228 679.098C461.773 735.593 369.457 748.031 357.51 794.361C344.506 844.791 337.768 886.71 337.783 911.528Z" fill="#040F0F" stroke="#248232" stroke-opacity="0.47" stroke-width="3"/>
<path d="M311.777 869.69C314.292 1005.62 169.163 949.052 149.124 876.798C123.27 783.984 85.5785 739.582 12.1911 685.115C-27.6125 653.037 -52.523 740.304 -126.973 738.933C-201.423 737.562 -215.388 642.215 -262.437 675.157C-334.167 725.056 -395.556 738.458 -441.786 729.09C-487.642 720.46 -518.913 689.19 -530.619 648.845C-541.524 611.091 -535.279 565.426 -507.754 522.995C-469.472 472.434 -430.68 436.29 -389.177 412.577C-335.356 385.29 -395.383 336.976 -373.114 257.434C-350.846 177.892 -278.393 191.954 -295.861 125.735C-323.681 21.678 -324.872 -48.5539 -309.904 -92.0686C-279.287 -186.042 -175.044 -158.749 -100.37 -77.1496C-57.1204 -30.4236 -27.5458 12.6109 -0.973367 47.265C34.1418 96.8947 102.157 22.9923 154.931 32.4187C246.658 49.3387 212.694 140.521 296.446 112.12C329.72 100.965 367.103 86.9101 409.433 69.6029C505.618 31.1967 576.767 25.603 626.333 38.6245C727.314 59.807 749.672 157.003 715.101 241.009C695.128 289.178 656.565 332.99 603.443 355.867C543.023 381.894 445.253 394.047 405.127 452.756C375.102 494.904 509.139 577.58 457.775 657.582C425.062 709.193 342.087 721.239 331.16 763.574C319.308 809.497 312.509 847.433 311.777 869.69Z" fill="#040F0F" stroke="#248232" stroke-opacity="0.47" stroke-width="3"/>
<path d="M286.911 829.554C288.316 950.454 158.338 899.734 140.302 834.723C115.596 746.287 79.1151 707.121 10.4181 659.67C-25.4597 631.268 -48.2966 709.232 -115.22 708.29C-182.143 707.347 -195.254 622.753 -237.59 651.973C-302.356 696.194 -357.626 707.487 -399.013 698.335C-439.933 690.275 -467.776 661.871 -477.884 625.45C-487.28 591.332 -481.093 550.231 -455.422 512.317C-416.278 466.608 -385.066 425.213 -347.993 401.803C-300.054 376.712 -352.779 333.376 -332.104 262.679C-311.429 191.981 -245.922 204.967 -260.713 146.898C-284.611 55.2845 -285.106 -6.30563 -271.288 -44.2791C-243.656 -127.412 -150.13 -102.506 -82.6478 -29.543C-43.1275 12.3961 -15.5101 50.7979 9.58739 81.0765C41.4974 125 102.766 58.9697 150.582 66.9952C233.159 81.6454 203.785 162.51 279.04 137.127C309.381 127.084 343.27 114.59 381.458 99.3005C469.136 65.56 532.916 62.5817 576.317 75.8915C665.969 95.2299 685.571 182.163 654.433 257.297C636.282 300.551 601.505 339.863 553.698 360.446C496.924 384.898 408.405 396.425 371.963 451.894C345.057 490.227 464.397 564.79 418.762 636.967C389.723 683.887 315.953 695.609 306.016 734.103C295.281 775.688 288.399 809.778 286.911 829.554Z" fill="#040F0F" stroke="#248232" stroke-opacity="0.47" stroke-width="3"/>
<path d="M260.686 789.208C260.946 895.065 146.36 850.235 130.375 792.475C106.884 708.419 71.6862 674.503 7.81 634.093C-24.0723 609.381 -44.817 678.042 -104.097 677.546C-163.377 677.05 -175.588 603.22 -213.146 628.726C-270.85 667.283 -319.906 676.479 -356.376 667.553C-392.288 660.074 -416.645 634.547 -425.129 602.053C-432.99 571.576 -426.859 535.04 -403.077 501.637C-363.125 460.772 -339.535 414.104 -306.95 390.985C-264.969 368.076 -310.289 329.736 -291.225 267.883C-272.16 206.031 -213.716 217.923 -225.788 168.014C-245.698 88.8595 -245.479 35.9178 -232.826 3.48623C-208.205 -68.8068 -125.565 -46.3118 -65.4105 17.9908C-29.699 55.1295 -4.09678 88.888 19.4749 114.781C48.113 152.986 102.546 94.8156 145.319 101.426C218.6 113.782 193.845 184.329 260.48 161.947C287.838 153.008 318.177 142.066 352.162 128.786C431.19 99.6914 487.49 99.3154 524.648 112.904C602.81 130.374 619.598 207.034 591.926 273.298C575.617 311.639 544.676 346.459 502.261 364.758C449.223 387.652 370.106 398.577 337.395 450.818C313.644 485.342 418.059 551.756 378.214 616.114C352.886 658.351 288.447 669.769 279.506 704.423C269.897 741.67 262.934 771.914 260.686 789.208Z" fill="#040F0F" stroke="#248232" stroke-opacity="0.47" stroke-width="3"/>
<path d="M234.735 747.198C233.888 837.781 134.686 798.9 120.734 748.513C98.4374 669.015 64.519 640.413 5.46082 607.11C-22.4315 586.13 -41.058 645.332 -92.6899 645.264C-144.322 645.196 -155.657 582.286 -188.425 604.011C-239.046 636.8 -281.881 643.863 -313.435 635.172C-344.337 628.277 -365.216 605.674 -372.087 577.175C-378.424 550.404 -372.363 518.514 -350.485 489.704C-309.753 453.784 -293.792 401.958 -265.705 379.193C-229.692 358.532 -267.619 325.256 -250.189 272.389C-232.759 219.522 -181.379 230.314 -190.75 188.668C-206.7 122.138 -205.787 77.9596 -194.312 51.1444C-172.728 -10.1429 -100.974 9.91866 -48.1316 65.4408C-16.2209 97.7098 7.37323 126.76 29.4235 148.218C54.7995 180.631 102.373 130.466 140.1 135.662C204.082 145.722 183.971 205.789 241.972 186.478C266.342 178.673 293.124 169.316 322.898 158.086C393.257 133.726 442.072 135.971 472.988 149.822C539.662 165.411 553.661 231.636 529.481 288.876C515.029 322.215 487.938 352.456 450.927 368.417C401.642 389.685 331.938 399.958 302.979 448.844C282.396 479.474 371.902 537.629 337.871 594.016C316.27 631.467 261.168 642.534 253.236 673.27C244.766 706.094 237.734 732.425 234.735 747.198Z" fill="#040F0F" stroke="#248232" stroke-opacity="0.47" stroke-width="3"/>
<path d="M209.899 707.069C207.936 782.604 123.915 749.582 111.97 706.442C90.8252 631.308 58.1171 607.949 3.75535 581.673C-20.2039 564.374 -36.7552 614.267 -80.8469 614.63C-124.939 614.993 -135.417 562.846 -163.464 580.846C-207.112 607.953 -243.816 612.904 -270.519 604.427C-296.476 598.103 -313.919 578.367 -319.189 553.794C-324.013 530.661 -318.007 503.337 -297.986 479.047C-256.384 447.98 -248.017 390.868 -224.368 368.398C-194.247 349.931 -224.857 321.638 -209.022 277.622C-193.186 233.607 -148.764 243.323 -155.451 209.836C-167.469 155.764 -165.857 120.238 -155.534 98.9705C-136.938 48.5336 -75.9207 66.2072 -30.2837 113.085C-2.10916 140.563 19.5245 164.976 40.098 182.052C62.2629 208.752 103.079 166.464 135.84 170.255C190.656 178.041 175.143 227.78 224.632 211.488C246.065 204.796 269.347 197 294.972 187.789C356.811 168.098 398.243 172.966 422.982 187.11C478.306 200.853 489.542 256.807 468.798 305.169C456.171 333.59 432.872 359.331 401.185 372.996C355.548 392.695 295.111 402.345 269.84 447.999C252.38 474.814 327.16 524.85 298.869 573.409C280.946 606.17 235.067 616.917 228.125 643.811C220.774 672.295 213.657 694.778 209.899 707.069Z" fill="#040F0F" stroke="#248232" stroke-opacity="0.47" stroke-width="3"/>
<path d="M183.725 666.734C180.625 727.207 112.013 700.081 102.123 664.199C82.2189 593.427 50.816 575.332 1.3021 556.118C-18.6556 542.514 -33.1078 583.094 -69.5457 583.906C-105.984 584.719 -115.559 543.353 -138.82 557.634C-175.39 579.069 -205.87 581.919 -227.649 573.665C-248.592 567.92 -262.546 551.061 -266.191 530.417C-269.482 510.927 -263.537 488.171 -245.414 468.395C-203.042 442.165 -202.258 379.737 -183.098 357.548C-158.938 341.263 -182.143 317.968 -167.927 282.808C-153.71 247.648 -116.364 256.27 -120.339 230.955C-128.376 189.361 -126.056 162.498 -116.904 146.782C-101.327 107.202 -51.2107 122.463 -12.9151 160.669C11.4395 183.34 31.0466 203.102 50.0835 215.781C68.9698 236.753 102.94 202.334 130.648 204.705C176.154 210.191 165.259 249.596 206.116 236.307C224.558 230.719 244.282 224.476 265.696 217.277C318.862 202.237 352.8 209.719 371.293 224.152C415.118 236.029 423.541 281.698 406.269 321.181C395.488 344.686 376.031 365.93 349.744 377.31C307.867 395.46 256.849 404.513 235.311 446.951C221.009 469.955 280.851 511.837 258.352 552.572C244.142 580.647 207.598 591.094 201.653 614.147C195.428 638.292 188.236 656.927 183.725 666.734Z" fill="#040F0F" stroke="#248232" stroke-opacity="0.47" stroke-width="3"/>
<path d="M158.441 626.54C154.233 671.937 100.647 650.65 92.7286 622.019C73.8918 555.56 43.5971 542.71 -1.36357 530.527C-17.4379 520.605 -29.8351 551.855 -58.8118 553.088C-87.7884 554.32 -96.5498 523.737 -115.136 534.276C-144.806 550.003 -169.221 550.72 -186.197 542.665C-202.24 537.479 -212.791 523.485 -214.847 506.767C-216.635 490.916 -210.736 472.733 -194.428 457.49C-151.057 436.131 -157.924 368.327 -143.171 346.423C-124.861 332.337 -140.796 314.023 -128.15 287.737C-115.504 261.451 -85.0278 269.013 -86.3274 251.879C-90.4554 222.772 -87.4359 204.585 -79.4188 194.438C-66.8102 165.738 -27.3182 178.631 3.87382 208.194C24.5604 226.078 42.2679 241.202 59.8871 249.493C75.6149 264.747 102.89 238.23 125.696 239.201C162.138 242.422 155.845 271.473 188.274 261.223L189.164 260.968C204.442 256.577 220.419 251.986 237.399 246.918C282.167 236.579 308.797 246.72 321.145 261.469C353.708 271.518 359.398 306.904 345.541 337.488C336.568 356.066 320.867 372.796 299.851 381.868C261.513 398.441 219.648 406.857 201.764 446.077C190.564 465.261 235.814 499.041 219.026 531.932C208.479 555.311 181.089 565.432 176.13 584.642C171.019 604.442 163.725 619.223 158.441 626.54Z" fill="#040F0F" stroke="#248232" stroke-opacity="0.47" stroke-width="3"/>
<path d="M132.612 584.502C127.302 614.621 89.1668 599.297 83.2957 578.051C65.6964 516.219 36.7414 508.684 -3.32212 503.605C-15.3844 497.418 -25.649 519.204 -46.9419 520.865C-68.2348 522.527 -76.1003 502.866 -89.8739 509.627C-112.426 519.589 -130.589 518.183 -142.628 510.374C-153.643 505.78 -160.704 494.718 -161.144 482.003C-161.407 469.865 -155.587 456.333 -141.209 445.685C-97.1449 429.274 -111.596 356.413 -101.353 334.885C-89.0288 323.054 -97.5578 309.812 -86.5636 292.512C-75.5694 275.212 -52.1991 281.664 -50.801 272.787C-50.9682 256.298 -47.26 246.867 -40.4318 242.33C-30.8732 224.632 -2.31598 235.078 21.5184 255.85C38.371 268.855 54.0382 279.266 70.1032 283.124C82.5445 292.585 102.928 274.074 120.658 273.631C147.755 274.554 146.099 293.126 169.856 285.946C182.393 282.611 195.082 279.524 208.16 276.403C244.195 270.79 263.307 283.527 269.406 298.517C290.448 306.675 293.342 331.617 282.989 353.172C275.883 366.743 264.05 378.891 248.462 385.625C213.942 400.563 181.546 408.325 167.433 444.156C159.412 459.438 189.701 484.938 178.739 509.846C171.925 528.429 153.9 538.192 149.953 553.473C145.985 568.842 138.635 579.705 132.612 584.502Z" fill="#040F0F" stroke="#248232" stroke-opacity="0.47" stroke-width="3"/>
<path d="M106.055 544.06C99.6417 559.009 76.8349 549.599 72.9942 535.671C56.6105 478.33 28.9517 476.081 -6.2901 478.079C-14.3749 475.602 -22.5303 487.998 -36.2035 490.091C-49.8766 492.184 -56.8611 483.373 -65.8628 486.38C-81.3581 490.618 -93.3222 487.093 -100.461 479.513C-106.487 475.499 -110.081 467.338 -108.915 458.588C-107.66 450.126 -101.911 441.205 -89.4348 435.113C-44.6249 423.598 -66.6304 345.551 -60.8622 324.356C-54.4784 314.749 -55.6474 306.534 -46.2834 298.157C-36.9193 289.78 -20.592 295.138 -16.5086 294.474C-12.7358 290.531 -8.33866 289.809 -2.68616 290.853C3.84829 284.088 21.5587 292.116 38.1006 304.164C51.1586 312.331 64.815 318.062 79.3544 317.508C88.5411 321.211 102.093 310.646 114.793 308.791C132.624 307.424 135.583 315.586 150.739 311.45C160.295 309.236 169.439 307.722 178.32 306.635C205.709 305.72 217.362 321.07 217.248 336.332C226.85 342.621 226.964 357.201 220.085 369.799C214.828 378.406 206.831 386.012 196.624 390.429C165.858 403.77 142.845 410.896 132.463 443.421C127.595 454.844 143.033 472.142 137.854 489.142C134.746 502.981 126.016 512.406 123.072 523.802C120.236 534.784 112.821 541.764 106.055 544.06Z" fill="#040F0F" stroke="#248232" stroke-opacity="0.47" stroke-width="3"/>
<path d="M336.664 2147.73C360.715 2234.72 536.35 2303.15 531.658 2136.66C530.889 2109.36 537.545 2063.6 551.667 2008.83C564.603 1958.66 666.117 1945.9 706.242 1884.71C769.17 1788.76 605.563 1689.61 641.885 1639.67C689.458 1574.26 805.886 1560.78 873.702 1531.5C937.543 1503.93 983.753 1450.95 1007.42 1392.78C1048.93 1290.71 1021.06 1172.65 897.279 1147.74C835.314 1135.27 749.315 1146.14 635.953 1194.05C585.268 1215.46 540.834 1232.7 501.638 1246.13C400.757 1280.7 443.98 1168.54 333.819 1147.05C271.05 1134.8 189.413 1224.74 147.85 1163.53C118.296 1120 84.7733 1067.56 34.0126 1011.11C-55.1317 911.964 -180.96 879.836 -217.625 995.838C-234.934 1050.6 -232.373 1138.37 -196.706 1267.68C-173.881 1350.43 -260.332 1334.19 -285.85 1431.71C-311.368 1529.24 -236.666 1587.66 -302.339 1619.45L-303.654 1620.09C-353.711 1644.32 -407.098 1670.16 -443.425 1730.09C-474.717 1781.71 -481.102 1836.67 -467.176 1881.83C-452.272 1930.16 -414.105 1967.27 -358.311 1977.05C-302.329 1986.87 -228.6 1969.18 -142.818 1907.72C-86.2606 1867.2 -70.5972 1984.39 19.0201 1986.6C108.637 1988.81 137.763 1882.61 185.469 1922.15C268.337 1990.82 308.497 2045.85 336.664 2147.73Z" fill="#040F0F" stroke="#248232" stroke-opacity="0.47" stroke-width="3"/>
<path d="M506.783 2096.53C510.368 2247.98 349.874 2185.4 327.824 2105.65C300.807 2008.15 261.859 1958.36 183.681 1896.7C139.899 1860.84 112.847 1957.73 30.7516 1955.95C-51.3438 1954.17 -66.1541 1847.73 -118.002 1884.53C-196.824 1940.31 -264.436 1955.89 -315.58 1946.29C-366.442 1937.07 -401.182 1902.83 -414.491 1858.43C-426.91 1816.9 -420.583 1766.51 -391.146 1719.4C-353.646 1663.8 -307.207 1632.78 -261.199 1608.67C-201.403 1579.07 -268.811 1525.62 -244.887 1436.95C-220.964 1348.27 -141.454 1363.43 -161.606 1288.83C-193.358 1171.96 -195.224 1092.83 -179.067 1043.61C-145.386 938.451 -30.2676 968.194 51.6903 1058.7C98.7236 1110.37 130.289 1158.18 158.368 1197.33C196.728 1252.83 271.622 1170.77 329.436 1181.61C430.453 1200.84 391.816 1302.68 484.207 1271.13C520.471 1258.81 561.412 1243.13 607.958 1223.73C712.816 1180.49 791.45 1172.24 847.256 1185C959.719 1208.07 984.838 1315.87 946.752 1409.06C924.91 1462.32 882.485 1510.8 823.955 1536.07C759.786 1563.78 652.604 1576.64 608.713 1638.8C575.508 1684.93 724.429 1775.97 667.228 1864.1C630.773 1920.59 538.457 1933.03 526.51 1979.36C513.506 2029.79 506.768 2071.71 506.783 2096.53Z" fill="#040F0F" stroke="#248232" stroke-opacity="0.47" stroke-width="3"/>
<path d="M480.777 2054.69C483.292 2190.62 338.163 2134.05 318.124 2061.8C292.27 1968.98 254.578 1924.58 181.191 1870.12C141.388 1838.04 116.477 1925.3 42.0268 1923.93C-32.4235 1922.56 -46.3881 1827.21 -93.4372 1860.16C-165.167 1910.06 -226.556 1923.46 -272.786 1914.09C-318.642 1905.46 -349.913 1874.19 -361.619 1833.85C-372.524 1796.09 -366.279 1750.43 -338.754 1707.99C-300.472 1657.43 -261.68 1621.29 -220.177 1597.58C-166.356 1570.29 -226.383 1521.98 -204.114 1442.43C-181.846 1362.89 -109.393 1376.95 -126.861 1310.74C-154.681 1206.68 -155.872 1136.45 -140.904 1092.93C-110.287 998.958 -6.04371 1026.25 68.6298 1107.85C111.88 1154.58 141.454 1197.61 168.027 1232.27C203.142 1281.89 271.157 1207.99 323.931 1217.42C415.658 1234.34 381.694 1325.52 465.446 1297.12C498.72 1285.96 536.103 1271.91 578.433 1254.6C674.618 1216.2 745.767 1210.6 795.333 1223.62C896.314 1244.81 918.672 1342 884.101 1426.01C864.128 1474.18 825.565 1517.99 772.443 1540.87C712.023 1566.89 614.253 1579.05 574.127 1637.76C544.102 1679.9 678.139 1762.58 626.775 1842.58C594.062 1894.19 511.087 1906.24 500.16 1948.57C488.308 1994.5 481.509 2032.43 480.777 2054.69Z" fill="#040F0F" stroke="#248232" stroke-opacity="0.47" stroke-width="3"/>
<path d="M455.911 2014.55C457.316 2135.45 327.338 2084.73 309.302 2019.72C284.596 1931.29 248.115 1892.12 179.418 1844.67C143.54 1816.27 120.703 1894.23 53.7802 1893.29C-13.143 1892.35 -26.2536 1807.75 -68.5899 1836.97C-133.356 1881.19 -188.626 1892.49 -230.013 1883.33C-270.933 1875.27 -298.776 1846.87 -308.884 1810.45C-318.28 1776.33 -312.093 1735.23 -286.422 1697.32C-247.278 1651.61 -216.066 1610.21 -178.993 1586.8C-131.054 1561.71 -183.779 1518.38 -163.104 1447.68C-142.429 1376.98 -76.9222 1389.97 -91.713 1331.9C-115.611 1240.28 -116.106 1178.69 -102.288 1140.72C-74.656 1057.59 18.8702 1082.49 86.3522 1155.46C125.873 1197.4 153.49 1235.8 178.587 1266.08C210.497 1310 271.766 1243.97 319.582 1252C402.159 1266.65 372.785 1347.51 448.04 1322.13C478.381 1312.08 512.27 1299.59 550.458 1284.3C638.136 1250.56 701.916 1247.58 745.317 1260.89C834.969 1280.23 854.571 1367.16 823.433 1442.3C805.282 1485.55 770.505 1524.86 722.698 1545.45C665.924 1569.9 577.405 1581.43 540.963 1636.89C514.057 1675.23 633.397 1749.79 587.762 1821.97C558.723 1868.89 484.953 1880.61 475.016 1919.1C464.281 1960.69 457.399 1994.78 455.911 2014.55Z" fill="#040F0F" stroke="#248232" stroke-opacity="0.47" stroke-width="3"/>
<path d="M429.686 1974.21C429.946 2080.06 315.36 2035.23 299.375 1977.48C275.884 1893.42 240.686 1859.5 176.81 1819.09C144.928 1794.38 124.183 1863.04 64.903 1862.55C5.62301 1862.05 -6.58847 1788.22 -44.1464 1813.73C-101.85 1852.28 -150.906 1861.48 -187.376 1852.55C-223.288 1845.07 -247.645 1819.55 -256.129 1787.05C-263.99 1756.58 -257.859 1720.04 -234.077 1686.64C-194.125 1645.77 -170.535 1599.1 -137.95 1575.98C-95.9691 1553.08 -141.289 1514.74 -122.225 1452.88C-103.16 1391.03 -44.7157 1402.92 -56.7878 1353.01C-76.6976 1273.86 -76.4787 1220.92 -63.8263 1188.49C-39.2046 1116.19 43.4353 1138.69 103.589 1202.99C139.301 1240.13 164.903 1273.89 188.475 1299.78C217.113 1337.99 271.546 1279.82 314.319 1286.43C387.6 1298.78 362.845 1369.33 429.48 1346.95C456.838 1338.01 487.177 1327.07 521.162 1313.79C600.19 1284.69 656.49 1284.32 693.648 1297.9C771.81 1315.37 788.598 1392.03 760.926 1458.3C744.617 1496.64 713.676 1531.46 671.261 1549.76C618.223 1572.65 539.106 1583.58 506.395 1635.82C482.644 1670.34 587.059 1736.76 547.214 1801.11C521.886 1843.35 457.447 1854.77 448.506 1889.42C438.897 1926.67 431.934 1956.91 429.686 1974.21Z" fill="#040F0F" stroke="#248232" stroke-opacity="0.47" stroke-width="3"/>
<path d="M403.735 1932.2C402.888 2022.78 303.686 1983.9 289.734 1933.51C267.437 1854.02 233.519 1825.41 174.461 1792.11C146.569 1771.13 127.942 1830.33 76.3101 1830.26C24.6782 1830.2 13.3428 1767.29 -19.4246 1789.01C-70.0458 1821.8 -112.881 1828.86 -144.435 1820.17C-175.337 1813.28 -196.216 1790.67 -203.087 1762.18C-209.424 1735.4 -203.363 1703.51 -181.485 1674.7C-140.753 1638.78 -124.792 1586.96 -96.7047 1564.19C-60.6921 1543.53 -98.6188 1510.26 -81.1888 1457.39C-63.7589 1404.52 -12.3787 1415.31 -21.7501 1373.67C-37.6999 1307.14 -36.7868 1262.96 -25.312 1236.14C-3.72813 1174.86 68.0262 1194.92 120.868 1250.44C152.779 1282.71 176.373 1311.76 198.423 1333.22C223.799 1365.63 271.373 1315.47 309.1 1320.66C373.082 1330.72 352.971 1390.79 410.972 1371.48C435.342 1363.67 462.124 1354.32 491.898 1343.09C562.257 1318.73 611.072 1320.97 641.988 1334.82C708.662 1350.41 722.661 1416.64 698.481 1473.88C684.029 1507.21 656.938 1537.46 619.927 1553.42C570.642 1574.69 500.938 1584.96 471.979 1633.84C451.396 1664.47 540.902 1722.63 506.871 1779.02C485.27 1816.47 430.168 1827.53 422.236 1858.27C413.766 1891.09 406.734 1917.42 403.735 1932.2Z" fill="#040F0F" stroke="#248232" stroke-opacity="0.47" stroke-width="3"/>
<path d="M378.899 1892.07C376.936 1967.6 292.915 1934.58 280.97 1891.44C259.825 1816.31 227.117 1792.95 172.755 1766.67C148.796 1749.37 132.245 1799.27 88.1531 1799.63C44.0614 1799.99 33.5826 1747.85 5.53555 1765.85C-38.1118 1792.95 -74.8161 1797.9 -101.519 1789.43C-127.476 1783.1 -144.919 1763.37 -150.189 1738.79C-155.013 1715.66 -149.007 1688.34 -128.986 1664.05C-87.3844 1632.98 -79.0169 1575.87 -55.368 1553.4C-25.247 1534.93 -55.8573 1506.64 -40.0218 1462.62C-24.1862 1418.61 20.2363 1428.32 13.5491 1394.84C1.53082 1340.76 3.14329 1305.24 13.4662 1283.97C32.0617 1233.53 93.0793 1251.21 138.716 1298.08C166.891 1325.56 188.524 1349.98 209.098 1367.05C231.263 1393.75 272.079 1351.46 304.84 1355.26C359.656 1363.04 344.143 1412.78 393.632 1396.49C415.065 1389.8 438.347 1382 463.972 1372.79C525.811 1353.1 567.243 1357.97 591.982 1372.11C647.306 1385.85 658.542 1441.81 637.798 1490.17C625.171 1518.59 601.872 1544.33 570.185 1558C524.548 1577.69 464.111 1587.34 438.84 1633C421.38 1659.81 496.16 1709.85 467.869 1758.41C449.946 1791.17 404.067 1801.92 397.125 1828.81C389.774 1857.3 382.657 1879.78 378.899 1892.07Z" fill="#040F0F" stroke="#248232" stroke-opacity="0.47" stroke-width="3"/>
</g>
</svg>
